<?xml version="1.0" encoding="UTF-8"?>
<svg width="24px" height="24px" viewBox="0 0 24 24" version="1.1" xmlns="http://www.w3.org/2000/svg" xmlns:xlink="http://www.w3.org/1999/xlink">
    <!-- Generator: Sketch 47 (45396) - http://www.bohemiancoding.com/sketch -->
    <title>search</title>
    <desc>Created with Sketch.</desc>
    <defs></defs>
    <g id="Iconography" stroke="none" stroke-width="1" fill-rule="evenodd">
        <g transform="translate(-731.000000, -724.000000)" id="search">
            <g transform="translate(731.000000, 724.000000)">
                <g id="Group-34">
                    <g>
                        <g id="search" fill-rule="nonzero">
                            <path d="M16.9479919,16.3266716 L21.7262855,21.1049651 C22.1168098,21.4954894 22.1168098,22.1286544 21.7262855,22.5191787 L21.0191787,23.2262855 C20.6286544,23.6168098 19.9954894,23.6168098 19.6049651,23.2262855 L14.5928305,18.2141509 C13.166029,19.0322683 11.5126368,19.5 9.75,19.5 C4.36522369,19.5 0,15.1347763 0,9.75 C0,4.36522369 4.36522369,0 9.75,0 C15.1347763,0 19.5,4.36522369 19.5,9.75 C19.5,12.284328 18.5330661,14.5928164 16.9479919,16.3266716 Z M9.75,16.5 C13.4779221,16.5 16.5,13.4779221 16.5,9.75 C16.5,6.02207794 13.4779221,3 9.75,3 C6.02207794,3 3,6.02207794 3,9.75 C3,13.4779221 6.02207794,16.5 9.75,16.5 Z" id="Combined-Shape"></path>
                        </g>
                        <rect id="Rectangle-14-Copy-19" x="0" y="0" width="24" height="24" fill="transparent"></rect>
                    </g>
                </g>
            </g>
        </g>
    </g>
</svg>
