<?xml version="1.0" encoding="utf-8"?>
<!-- Generated by IcoMoon.io -->
<!DOCTYPE svg PUBLIC "-//W3C//DTD SVG 1.1//EN" "http://www.w3.org/Graphics/SVG/1.1/DTD/svg11.dtd">
<svg version="1.1" xmlns="http://www.w3.org/2000/svg" xmlns:xlink="http://www.w3.org/1999/xlink" width="16" height="16" viewBox="0 0 1024 1024"><g id="icomoon-ignore">
</g>
<path d="M807 631q25-45 38.5-96.5t13.5-106.5q0-89-34-167.5t-92-136.5-136.5-92-166.5-34q-89 0-167.5 34t-136.5 92-92 136.5-34 167.5 34 167 92 136 136.5 92 167.5 34q55 0 106.5-13.5t96.5-38.5q7-3 35-20.5t33-20.5l257 225 66-66-257-225 19.5-32t20.5-35v0zM66 428q0-76 28.5-142t78-115 115.5-78 142-29q75 0 141 29t115.5 78 78 115 28.5 142q0 75-28.5 141t-78 115.5-115.5 78-141 28.5q-76 0-142-28.5t-115.5-78-78-115.5-28.5-141v0z"></path>
</svg>
