<?xml version="1.0" encoding="UTF-8" standalone="no"?>
<!DOCTYPE svg PUBLIC "-//W3C//DTD SVG 1.1//EN" "http://www.w3.org/Graphics/SVG/1.1/DTD/svg11.dtd">
<svg width="100%" height="100%" viewBox="0 0 1024 1024" version="1.1" xmlns="http://www.w3.org/2000/svg" xmlns:xlink="http://www.w3.org/1999/xlink" xml:space="preserve" style="fill-rule:evenodd;clip-rule:evenodd;stroke-linejoin:round;stroke-miterlimit:1.41421;">
    <g transform="matrix(1.18021,0,0,1.18021,-108.973,-184.321)">
        <path d="M527.03,1022.79C468.614,1022.79 411.928,1011.34 358.546,988.768C306.999,966.968 260.711,935.77 220.968,896.036C181.224,856.302 150.016,810.019 128.213,758.479C105.63,705.1 94.18,648.414 94.18,590C94.18,531.584 105.63,474.898 128.212,421.52C150.016,369.98 181.222,323.7 220.967,283.963C260.711,244.229 306.997,213.029 358.545,191.233C411.928,168.659 468.613,157.213 527.03,157.213C585.43,157.213 642.107,168.658 695.48,191.233C747.02,213.031 793.3,244.231 833.04,283.963C872.78,323.699 903.985,369.981 925.788,421.52C948.368,474.9 959.818,531.584 959.818,590C959.818,648.414 948.368,705.1 925.788,758.478C903.985,810.018 872.78,856.298 833.041,896.035C793.304,935.768 747.021,966.97 695.481,988.767C642.111,1011.34 585.434,1022.79 527.031,1022.79L527.03,1022.79ZM527.03,221.21C428.51,221.21 335.885,259.57 266.22,329.224C196.55,398.878 158.18,491.49 158.18,590C158.18,688.51 196.55,781.122 266.218,850.776C335.885,920.43 428.51,958.79 527.03,958.79C625.522,958.79 718.13,920.43 787.787,850.777C857.453,781.12 895.82,688.507 895.82,590C895.82,491.492 857.453,398.88 787.787,329.222C718.129,259.57 625.524,221.212 527.031,221.212L527.03,221.21Z" style="fill-rule:nonzero;"/>
    </g>
    <g transform="matrix(1.18021,0,0,1.18021,-108.973,-184.321)">
        <path d="M373.87,335.966C402.484,335.966 425.75,359.271 425.75,387.846C425.75,416.5 402.484,439.691 373.87,439.691C345.12,439.691 321.968,416.501 321.968,387.848C321.968,359.271 345.12,335.968 373.868,335.968M329.074,479.08L418.626,479.08L418.626,766.875L329.074,766.875L329.074,479.08ZM474.747,479.08L560.497,479.08L560.497,518.43L561.757,518.43C573.677,495.776 602.867,471.897 646.382,471.897C736.888,471.897 753.622,531.497 753.622,609.014L753.622,766.874L664.224,766.874L664.224,626.932C664.224,593.58 663.614,550.6 617.767,550.6C571.197,550.6 564.127,586.97 564.127,624.526L564.127,766.876L474.747,766.876L474.747,479.08L474.747,479.08Z" style="fill-rule:nonzero;"/>
    </g>
</svg>
