<svg xmlns="http://www.w3.org/2000/svg" viewBox="0 0 20 20"><g fill="none"><path fill="#CC0001" d="M0 .03h20v15.003H0z"/><path fill="#FFF" d="M0 13.961h20v1.072H0zM0 11.818h20v1.071H0zM0 9.674h20v1.071H0zM0 7.532h20v1.071H0zM0 5.388h20v1.071H0zM0 3.244h20v1.071H0zM0 1.102h20v1.071H0z"/><path fill="#010066" d="M0 .03h11.645v8.573H0z"/><g fill="#FC0"><path d="M4.678 1.548a2.774 2.774 0 0 0-2.777 2.768 2.774 2.774 0 0 0 2.777 2.768 2.77 2.77 0 0 0 1.504-.44 2.46 2.46 0 0 1-3.268-2.32A2.46 2.46 0 0 1 6.23 2.02a2.77 2.77 0 0 0-1.553-.473z"/><path d="M9.285 5.757l-1.17-.61.346 1.249-.783-1.045-.244 1.272-.24-1.273-.786 1.043.35-1.248-1.172.607.871-.977-1.326.051 1.218-.512-1.217-.515 1.326.055-.867-.979 1.17.61-.346-1.249.782 1.045.244-1.272.24 1.273.786-1.043-.35 1.248 1.172-.607-.87.977 1.326-.051-1.219.512 1.217.515-1.326-.055z"/></g></g></svg>