<?xml version="1.0" encoding="utf-8"?>
<!-- Generated by IcoMoon.io -->
<!DOCTYPE svg PUBLIC "-//W3C//DTD SVG 1.1//EN" "http://www.w3.org/Graphics/SVG/1.1/DTD/svg11.dtd">
<svg version="1.1" xmlns="http://www.w3.org/2000/svg" xmlns:xlink="http://www.w3.org/1999/xlink" width="16" height="16" viewBox="0 0 1024 900">
<g id="icomoon-ignore">
</g>
<path d="M718 128c-21.333 0-42 3.167-62 9.5s-39.667 15.5-59 27.5c-25.333 16.667-47.833 37-67.5 61s-36.167 51.667-49.5 83c-14-31.333-30.667-59-50-83s-41.333-44.333-66-61c-19.333-12-39.167-21.167-59.5-27.5s-41.167-9.5-62.5-9.5c-9.333 0-19 0.667-29 2s-20 3.333-30 6c-14.667 4-29 9.5-43 16.5s-27.333 15.833-40 26.5-24.167 22.667-34.5 36-19.5 28-27.5 44c-0.667 0.667-1.167 1.333-1.5 2s-0.5 1.333-0.5 2l-2 2v1c-11.333 22.667-19.833 47-25.5 73s-8.5 53.667-8.5 83v2c0 14.667 2 30 6 46s10.333 33 19 51c8 18 17.667 36 29 54s24.333 35.667 39 53c28 34.667 58.167 68 90.5 100s66.5 62.667 102.5 92c32.667 27.333 62.667 51.167 90 71.5s52 37.5 74 51.5c9.333 6 16.5 10.5 21.5 13.5s7.833 4.5 8.5 4.5v0 0 0 0c0.667 0 3.5-1.5 8.5-4.5s12.167-7.167 21.5-12.5c22-14.667 46.667-32.333 74-53s57.333-44 90-70c36.667-30.667 71.167-62 103.5-94s62.167-65 89.5-99c14.667-17.333 27.667-34.833 39-52.5s21-35.5 29-53.5c8.667-18 15-35.167 19-51.5s6-31.833 6-46.5v-2c-0.667-29.333-3.667-57-9-83s-13.333-50-24-72l-4-8c-8.667-16-18.167-30.5-28.5-43.5s-21.833-24.833-34.5-35.5-25.833-19.667-39.5-27-28.167-13-43.5-17c-10-2.667-20-4.667-30-6s-19.667-2-29-2v0 0z"></path>
</svg>
