<svg xmlns="http://www.w3.org/2000/svg" viewBox="0 0 16 16"><path d="M11.7 2.4c.2 0 .5 0 .7.1.3.1.6.3.9.5.3.3.6.6.8 1v.1c.3.6.4 1.3.4 2 0 .4-.1.8-.3 1.1-.2.5-.6 1-.9 1.5-.9 1.1-1.8 2-2.9 2.9-.8.6-1.6 1.3-2.4 1.8-.8-.5-1.6-1.2-2.4-1.8-1-.9-2-1.8-2.9-2.9-.4-.4-.7-.9-1-1.5-.1-.3-.3-.7-.3-1.1 0-.7.1-1.4.4-2V4c.2-.4.4-.7.8-1 .3-.2.6-.4.9-.5.8-.2 1.5 0 2.2.4.3.2.6.4.8.7.3.3.5.7.6 1.1l.9 2 .8-2c.2-.4.4-.8.7-1.1.2-.3.5-.5.8-.8.5-.2.9-.4 1.4-.4.1 0 0 0 0 0zm0-.9c-.7 0-1.3.2-1.9.6C9 2.6 8.4 3.4 8 4.3c-.4-.9-1-1.7-1.8-2.2-.9-.6-1.9-.7-2.8-.5-1 .3-1.8 1-2.3 1.9v.1C.7 4.4.5 5.2.5 6.1c0 .5.2 1 .4 1.5.3.6.6 1.2 1.1 1.7.9 1.1 1.9 2.1 3 3 .8.7 1.7 1.3 2.6 1.9.1.1.4.3.5.3.1 0 .4-.2.5-.3.9-.6 1.7-1.3 2.6-1.9 1.1-.9 2.1-1.9 3-3 .4-.5.8-1.1 1.1-1.7.2-.5.4-1 .4-1.5 0-.8-.2-1.7-.5-2.4l-.1-.1c-.5-.9-1.3-1.7-2.3-1.9-.5-.2-.8-.2-1.1-.2-.3 0 0 0 0 0z"/></svg>
