<svg viewBox="0 0 22 22" xmlns="http://www.w3.org/2000/svg" xmlns:xlink="http://www.w3.org/1999/xlink"><g transform="translate(-1 -1)"><path d="M0 0h24v24H0z" fill="none"/><path d="M12 2C6.5 2 2 6.5 2 12s4.5 10 10 10 10-4.5 10-10S17.5 2 12 2zm7.708 14.958H17c.458-1.375.708-2.916.75-4.625h3.417c-.084 1.709-.584 3.292-1.459 4.625zM2.833 12.333H6.25c.042 1.709.292 3.25.75 4.625H4.292c-.875-1.333-1.375-2.916-1.459-4.625zm1.459-5.291H7a16.384 16.384 0 0 0-.75 4.5H2.833a9.149 9.149 0 0 1 1.459-4.5zm8.125-.834V2.875c1.375.208 2.541 1.458 3.375 3.333h-3.375zm3.708.834c.458 1.291.75 2.833.792 4.5h-4.5v-4.5h3.708zm-4.542-4.167v3.333H8.208c.834-1.875 2-3.125 3.375-3.333zm0 4.167v4.5h-4.5c.042-1.667.334-3.167.792-4.5h3.708zm-4.5 5.291h4.5v4.625H7.875c-.458-1.333-.75-2.916-.792-4.625zm4.5 5.459v3.333c-1.375-.208-2.541-1.458-3.375-3.333h3.375zm.834 3.333v-3.333h3.375c-.834 1.875-2 3.125-3.375 3.333zm0-4.167v-4.625h4.5c-.042 1.709-.334 3.292-.792 4.625h-3.708zM17.75 11.5c-.042-1.625-.292-3.167-.75-4.5h2.708a9.149 9.149 0 0 1 1.459 4.5H17.75zm1.333-5.292h-2.375c-.5-1.208-1.125-2.166-1.833-2.916 1.667.541 3.125 1.583 4.208 2.916zM9.125 3.292C8.375 4 7.75 5 7.292 6.208H4.917C6 4.875 7.458 3.833 9.125 3.292zm-4.208 14.5h2.375c.5 1.208 1.125 2.166 1.833 2.916-1.667-.541-3.125-1.583-4.208-2.916zm9.958 2.916c.75-.708 1.375-1.708 1.833-2.916h2.375c-1.083 1.333-2.541 2.375-4.208 2.916z" id="a"/><circle stroke="currentColor" fill="none" cx="12" cy="12" r="10"/></g></svg>