<svg xmlns="http://www.w3.org/2000/svg" width="100" height="99.998" viewBox="0 0 100 99.998"><path d="M49.998 99.998c-6.748 0-13.298-1.318-19.463-3.93-5.95-2.52-11.3-6.12-15.89-10.72-4.59-4.584-8.195-9.93-10.712-15.888C1.323 63.298 0 56.75 0 49.998c0-6.748 1.323-13.296 3.933-19.46 2.517-5.957 6.12-11.3 10.713-15.89 4.59-4.593 9.94-8.197 15.89-10.714C36.703 1.326 43.25 0 49.997 0c6.746 0 13.293 1.326 19.46 3.933 5.952 2.517 11.304 6.12 15.898 10.713 4.585 4.592 8.198 9.934 10.713 15.89C98.676 36.703 100 43.25 100 50c0 6.753-1.323 13.3-3.93 19.463-2.516 5.958-6.13 11.305-10.714 15.9-4.595 4.59-9.946 8.187-15.898 10.707-6.167 2.612-12.715 3.93-19.46 3.93zm0-92.588c-11.377 0-22.068 4.434-30.112 12.476S7.41 38.623 7.41 49.998c0 11.372 4.43 22.075 12.476 30.117s18.735 12.47 30.112 12.47c11.38 0 22.073-4.428 30.12-12.47S92.593 61.37 92.593 49.998c0-11.375-4.43-22.07-12.476-30.112S61.377 7.41 49.997 7.41z"/><path d="M39.71 74.055c-1.024 0-2-.425-2.704-1.172L23.126 58.08c-1.4-1.5-1.324-3.84.17-5.237 1.494-1.402 3.838-1.326 5.234.168l11.177 11.925L71.5 30.902c1.4-1.497 3.744-1.577 5.238-.176 1.494 1.396 1.577 3.74.18 5.234l-34.5 36.923c-.7.747-1.68 1.172-2.704 1.172h-.005z"/></svg>