<svg viewBox="0 0 22 22" xmlns="http://www.w3.org/2000/svg"><g><path fill="none" d="M-4 0h24v24H-4z"/><path d="M10.67 17H5.33c-.182 0-.33.448-.33 1s.148 1 .33 1h5.34c.182 0 .33-.448.33-1s-.148-1-.33-1zM10.67 20H5.33c-.182 0-.33.448-.33 1s.148 1 .33 1h5.34c.182 0 .33-.448.33-1s-.148-1-.33-1zM9.78 22H6.22c-.122 0-.22.448-.22 1s.099 1 .22 1h3.56c.122 0 .22-.448.22-1s-.099-1-.22-1zM8.326 8.954l-1.57-1.57a.455.455 0 0 0-.377-.13.455.455 0 0 0-.358.133l-1.84 1.84a.456.456 0 1 0 .645.644L6.39 8.307 7.952 9.87a.456.456 0 0 0 .434.12.455.455 0 0 0 .327-.133l3.083-3.083a.456.456 0 0 0-.645-.644L8.326 8.954zm-4.263 5.674C1.551 13.227 0 10.648 0 7.836 0 3.516 3.64 0 8.113 0 12.587 0 16 3.515 16 7.836c0 2.927-1.493 5.633-4.176 6.969v.783a.42.42 0 0 1-.427.412H4.49a.42.42 0 0 1-.427-.412v-.96z" fill-rule="nonzero"/></g></svg>