<svg viewBox="0 0 22 22" xmlns="http://www.w3.org/2000/svg"><g><path fill="none" d="M-2-2h24v24H-2z"/><path d="M0 2.5A2.5 2.5 0 0 1 2.5 0h5A2.5 2.5 0 0 1 10 2.5v2.501h7.5a2.5 2.5 0 0 1 2.5 2.5V17.5a2.5 2.5 0 0 1-2.5 2.5h-15A2.5 2.5 0 0 1 0 17.5v-15zm15 10c.69 0 1.25-.56 1.25-1.25V10a1.25 1.25 0 0 0-2.5 0v1.25c0 .69.56 1.25 1.25 1.25zm-10 0c.69 0 1.25-.56 1.25-1.25V10a1.25 1.25 0 0 0-2.5 0v1.25c0 .69.56 1.25 1.25 1.25zm0-5c.69 0 1.25-.56 1.25-1.25V5a1.25 1.25 0 1 0-2.5 0v1.25c0 .69.56 1.25 1.25 1.25zm0 10c.69 0 1.25-.56 1.25-1.25V15a1.25 1.25 0 0 0-2.5 0v1.25c0 .69.56 1.25 1.25 1.25zm10 0c.69 0 1.25-.56 1.25-1.25V15a1.25 1.25 0 0 0-2.5 0v1.25c0 .69.56 1.25 1.25 1.25z"/></g></svg>