<svg xmlns="http://www.w3.org/2000/svg" viewBox="0 0 100 100"><path d="M0 4.2C0 1.7 1.8 0 4.3 0h41.6C48.3 0 50 1.7 50 4.2V25h45.8c2.5 0 4.2 1.7 4.2 4.2v66.7c0 2.5-1.7 4.2-4.2 4.2H4.2C1.7 100 0 98.4 0 95.9V4.2zm75 58.3c3.3 0 6.3-2.9 6.3-6.3v-6.3c0-3.3-2.9-6.3-6.3-6.3s-6.3 2.9-6.3 6.3v6.3c.1 3.3 3.1 6.3 6.3 6.3zm-50 0c3.3 0 6.3-2.9 6.3-6.3v-6.3c0-3.3-2.9-6.3-6.3-6.3s-6.3 2.9-6.3 6.3v6.3c.1 3.3 3.1 6.3 6.3 6.3zm0-25c3.3 0 6.3-2.9 6.3-6.3v-6.3c0-3.3-2.9-6.3-6.3-6.3s-6.3 2.9-6.3 6.3v6.3c.1 3.3 3.1 6.3 6.3 6.3zm0 50c3.3 0 6.3-2.9 6.3-6.3v-6.3c0-3.3-2.9-6.3-6.3-6.3s-6.3 2.9-6.3 6.3v6.3c.1 3.3 3.1 6.3 6.3 6.3zm50 0c3.3 0 6.3-2.9 6.3-6.3v-6.3c0-3.3-2.9-6.3-6.3-6.3s-6.3 2.9-6.3 6.3v6.3c.1 3.3 3.1 6.3 6.3 6.3z"/></svg>