<svg xmlns="http://www.w3.org/2000/svg" width="512" height="512" viewBox="0 0 512 512"><path d="M379.764 501.74L257.65 417.1l-123.805 84.64c-27.845 19.63-58.51 3.594-45.07-35.64.135-.394.18-.5.36-1.055l40.5-144.598-117.64-93.293C-9.53 209.918 0 169.57 32 169.57h145.554c12.652-36.96 25.32-74.334 37.93-111.277C222.777 36.89 231.305 0 257.652 0s34.404 32.32 41.307 52.557c13.223 38.832 26.473 78.18 39.736 117.014h143.195c34.056 0 39.96 41.46 19.028 61.42l-112.653 89.458 43.194 148.25c11.21 32.636-26.985 53.958-51.693 33.042zm15.333-22.11c4.236 2.68 10.82.763 9.375-6.515-.25-1.21-44.667-153.793-44.667-153.793-1.527-5.236.277-10.86 4.542-14.223l120.834-96.71c8.6-7.54 3.737-12.39-4.43-12.418-17.556-.068-108.778 0-137.528 0-30.5 0-37.25-39.14-37.25-39.14S272.44 52.296 266.497 35.57c-3.164-8.903-9.83-8.93-9.83-8.93l.666 360.648s7.308.414 10.095 2.354l127.667 89.987z"></path></svg>
