<?xml version="1.0" encoding="utf-8"?>
<!-- Generated by IcoMoon.io -->
<!DOCTYPE svg PUBLIC "-//W3C//DTD SVG 1.1//EN" "http://www.w3.org/Graphics/SVG/1.1/DTD/svg11.dtd">
<svg version="1.1" xmlns="http://www.w3.org/2000/svg" xmlns:xlink="http://www.w3.org/1999/xlink" width="16" height="16" viewBox="0 0 1024 1024">
<g id="icomoon-ignore">
</g>
<path d="M528.206 1023.047c-58.27 0-114.817-11.423-168.071-33.95-51.422-21.752-97.599-52.886-137.246-92.536-39.65-39.651-70.783-85.834-92.536-137.263-22.529-53.267-33.953-109.83-33.953-168.12 0-58.275 11.424-114.827 33.954-168.083 21.753-51.421 52.887-97.597 92.536-137.244 39.648-39.646 85.824-70.777 137.245-92.529 53.254-22.527 109.802-33.949 168.071-33.949 58.283 0 114.843 11.422 168.105 33.948 51.43 21.751 97.612 52.882 137.266 92.528s70.791 85.823 92.546 137.245c22.531 53.256 33.955 109.808 33.955 168.084 0 58.291-11.424 114.855-33.954 168.12-21.755 51.431-52.892 97.613-92.546 137.265-39.652 39.649-85.835 70.783-137.266 92.535-53.262 22.527-109.822 33.949-168.106 33.949zM528.206 223.372c-98.227 0-190.585 38.261-260.062 107.734-69.479 69.476-107.744 161.838-107.744 260.072 0 98.263 38.265 190.646 107.745 260.13 69.473 69.477 161.832 107.739 260.061 107.739 98.258 0 190.637-38.263 260.119-107.741 69.485-69.48 107.753-161.862 107.753-260.128 0-98.236-38.267-190.597-107.752-260.070-69.485-69.475-161.865-107.736-260.12-107.736zM439.376 798.98c-8.845 0-17.296-3.661-23.346-10.114l-119.895-127.897c-12.086-12.895-11.433-33.145 1.461-45.231 12.895-12.088 33.144-11.434 45.231 1.46l96.51 102.952 274.606-293.904c12.065-12.914 32.313-13.602 45.229-1.535 12.914 12.065 13.601 32.315 1.535 45.229l-297.949 318.887c-6.045 6.47-14.501 10.146-23.355 10.153-0.009 0-0.018 0-0.027 0z"></path>
</svg>
