<?xml version="1.0" encoding="utf-8"?>
<!-- Generated by IcoMoon.io -->
<!DOCTYPE svg PUBLIC "-//W3C//DTD SVG 1.1//EN" "http://www.w3.org/Graphics/SVG/1.1/DTD/svg11.dtd">
<svg version="1.1" xmlns="http://www.w3.org/2000/svg" xmlns:xlink="http://www.w3.org/1999/xlink" width="16" height="16" viewBox="0 0 1024 1024">
<path d="M923.419 422.313c-21.764-51.445-52.914-97.641-92.585-137.304-39.67-39.662-85.872-70.805-137.324-92.564-53.285-22.535-109.868-33.96-168.176-33.96-58.294 0-114.866 11.426-168.143 33.961-51.444 21.76-97.64 52.903-137.305 92.565-39.667 39.664-70.814 85.859-92.577 137.303-22.54 53.281-33.968 109.859-33.968 168.164 0 58.312 11.429 114.895 33.968 168.18 21.763 51.448 52.91 97.647 92.577 137.313 39.665 39.664 85.861 70.809 137.305 92.569 53.277 22.535 109.848 33.962 168.144 33.962 58.309 0 114.892-11.426 168.176-33.961 51.452-21.761 97.655-52.905 137.324-92.569 39.671-39.666 70.821-85.864 92.585-137.313 22.541-53.284 33.97-109.869 33.97-168.181-0.001-58.306-11.43-114.884-33.971-168.165zM785.582 850.714c-69.517 69.508-161.941 107.788-260.248 107.788-98.28 0-190.686-38.279-260.195-107.787-69.515-69.514-107.799-161.935-107.799-260.237 0-98.29 38.284-190.701 107.798-260.21 69.51-69.505 161.917-107.783 260.195-107.783 98.306 0 190.73 38.278 260.249 107.784s107.806 161.917 107.806 260.208c0.001 98.306-38.285 190.726-107.806 260.237zM553.073 735.163h-49.42c-4.418 0-8 3.582-8 8v49.107c0 4.418 3.582 8 8 8h49.42c4.418 0 8-3.582 8-8v-49.107c0-4.418-3.582-8-8-8zM503.654 672.484h49.108c4.418 0 8-3.582 8-8v-271.752c0-4.418-3.582-8-8-8h-49.108c-4.418 0-8 3.582-8 8v271.752c0 4.418 3.581 8 8 8z"></path>
</svg>
