<?xml version="1.0" encoding="utf-8"?>
<!-- Generated by IcoMoon.io -->
<!DOCTYPE svg PUBLIC "-//W3C//DTD SVG 1.1//EN" "http://www.w3.org/Graphics/SVG/1.1/DTD/svg11.dtd">
<svg version="1.1" xmlns="http://www.w3.org/2000/svg" width="16" height="16" viewBox="0 0 512 512">
<path d="M491.87 156.344c-12.897-30.484-31.355-57.858-54.862-81.361s-50.884-41.956-81.373-54.849c-31.575-13.354-65.103-20.123-99.654-20.123-34.542 0-68.065 6.771-99.635 20.124-30.483 12.894-57.858 31.348-81.362 54.85-23.505 23.504-41.962 50.877-54.858 81.36-13.357 31.572-20.128 65.098-20.128 99.647 0 34.553 6.772 68.082 20.128 99.656 12.896 30.486 31.352 57.861 54.858 81.366 23.504 23.503 50.877 41.959 81.362 54.853 31.57 13.353 65.091 20.125 99.635 20.125 34.551 0 68.081-6.771 99.654-20.124 30.488-12.894 57.866-31.349 81.373-54.853 23.507-23.505 41.966-50.88 54.862-81.366 13.357-31.574 20.129-65.104 20.129-99.657-0-34.549-6.773-68.076-20.13-99.647zM410.193 410.197c-41.193 41.188-95.959 63.87-154.213 63.87-58.237 0-112.993-22.683-154.181-63.87-41.191-41.191-63.877-95.956-63.877-154.207 0-58.243 22.686-113.001 63.876-154.19 41.189-41.186 95.946-63.868 154.181-63.868 58.252 0 113.019 22.682 154.213 63.868s63.882 95.945 63.882 154.189c0 58.252-22.686 113.016-63.882 154.207zM272.418 341.726h-29.285c-2.618 0-4.74 2.123-4.74 4.74v29.099c0 2.618 2.123 4.74 4.74 4.74h29.285c2.618 0 4.74-2.123 4.74-4.74v-29.099c0-2.618-2.123-4.74-4.74-4.74zM243.135 304.584h29.099c2.618 0 4.74-2.123 4.74-4.74v-161.029c0-2.618-2.123-4.74-4.74-4.74h-29.1c-2.618 0-4.74 2.123-4.74 4.74v161.029c0 2.618 2.122 4.74 4.74 4.74z"></path>
</svg>
