<svg xmlns="http://www.w3.org/2000/svg" viewBox="0 0 16 16"><path d="M14.2 5.4C12.8 2 8.7.4 5.4 1.8 2 3.2.4 7.3 1.8 10.6c1.4 3.4 5.5 5 8.8 3.6 3.4-1.4 5.1-5.4 3.6-8.8-.3-.8.4.8 0 0zm-2.1 6.7c-2.2 2.2-5.9 2.2-8.1 0C1.8 9.9 1.8 6.2 4 4c2.2-2.2 5.9-2.2 8.1 0 2.2 2.2 2.2 5.8 0 8.1-1.1 1.1 1.1-1.1 0 0zm-3.7-1.8h-.7c-.1 0-.1.1-.1.1v.8c0 .1.1.1.1.1h.8c.1 0 .1-.1.1-.1v-.8c0-.1-.1-.1-.2-.1 0 0 .1 0 0 0zm-.7-1h.8c.1 0 .1-.1.1-.1V4.9c0-.1-.1-.1-.1-.1h-.8c-.1 0-.1.1-.1.1v4.2c-.1.1 0 .2.1.2 0 0-.1 0 0 0z"/></svg>
