<svg xmlns="http://www.w3.org/2000/svg" width="1024" height="1024" viewBox="0 0 1024 1024"><path d="M527.03 1022.79c-58.416 0-115.102-11.446-168.484-34.022-51.547-21.8-97.835-52.998-137.578-92.732-39.744-39.734-70.952-86.017-92.755-137.557C105.63 705.1 94.18 648.414 94.18 590c0-58.416 11.45-115.102 34.032-168.48 21.804-51.54 53.01-97.82 92.755-137.557 39.744-39.734 86.03-70.934 137.578-92.73 53.383-22.574 110.068-34.02 168.485-34.02 58.4 0 115.077 11.445 168.45 34.02 51.54 21.798 97.82 52.998 137.56 92.73 39.74 39.736 70.945 86.018 92.748 137.557 22.58 53.38 34.03 110.064 34.03 168.48 0 58.414-11.45 115.1-34.03 168.478-21.803 51.54-53.008 97.82-92.747 137.557-39.737 39.733-86.02 70.935-137.56 92.732-53.37 22.577-110.047 34.022-168.45 34.022zm0-801.58c-98.52 0-191.145 38.36-260.81 108.014C196.55 398.878 158.18 491.49 158.18 590c0 98.51 38.37 191.122 108.038 260.776C335.885 920.43 428.51 958.79 527.03 958.79c98.492 0 191.1-38.36 260.757-108.013C857.453 781.12 895.82 688.507 895.82 590c0-98.508-38.367-191.12-108.033-260.778-69.658-69.652-162.263-108.01-260.756-108.01z"/><path d="M474.734 769.6c165.722 0 256.363-137.282 256.363-256.323 0-3.947 0-7.857-.27-11.728 17.63-12.688 32.884-28.516 44.957-46.606-16.44 7.32-33.88 12.074-51.778 14.22 18.855-11.268 32.922-29.014 39.63-49.862-17.707 10.54-37.024 17.937-57.223 21.846-34.108-36.257-91.177-38.02-127.434-3.91-23.456 22.037-33.345 54.805-26.1 86.118-72.437-3.64-139.93-37.866-185.653-94.128-23.953 41.125-11.727 93.783 27.864 120.267-14.333-.46-28.36-4.292-40.874-11.306v1.148c0 42.887 30.24 79.87 72.265 88.303-13.26 3.642-27.154 4.14-40.682 1.535 11.804 36.754 45.606 61.857 84.183 62.624-31.906 25.025-71.324 38.67-111.892 38.632-7.167-.038-14.315-.46-21.443-1.304 41.22 26.444 89.146 40.473 138.088 40.435"/></svg>