<?xml version="1.0" encoding="UTF-8" standalone="no"?>
<!DOCTYPE svg PUBLIC "-//W3C//DTD SVG 1.1//EN" "http://www.w3.org/Graphics/SVG/1.1/DTD/svg11.dtd">
<svg width="100%" height="100%" viewBox="0 0 1024 1024" version="1.1" xmlns="http://www.w3.org/2000/svg" xmlns:xlink="http://www.w3.org/1999/xlink" xml:space="preserve" style="fill-rule:evenodd;clip-rule:evenodd;stroke-linejoin:round;stroke-miterlimit:1.41421;">
    <g transform="matrix(1.18021,0,0,1.18021,-109.973,-184.321)">
        <path d="M527.03,1022.79C468.614,1022.79 411.928,1011.34 358.546,988.768C306.999,966.968 260.711,935.77 220.968,896.036C181.224,856.302 150.016,810.019 128.213,758.479C105.63,705.1 94.18,648.414 94.18,590C94.18,531.584 105.63,474.898 128.212,421.52C150.016,369.98 181.222,323.7 220.967,283.963C260.711,244.229 306.997,213.029 358.545,191.233C411.928,168.659 468.613,157.213 527.03,157.213C585.43,157.213 642.107,168.658 695.48,191.233C747.02,213.031 793.3,244.231 833.04,283.963C872.78,323.699 903.985,369.981 925.788,421.52C948.368,474.9 959.818,531.584 959.818,590C959.818,648.414 948.368,705.1 925.788,758.478C903.985,810.018 872.78,856.298 833.041,896.035C793.304,935.768 747.021,966.97 695.481,988.767C642.111,1011.34 585.434,1022.79 527.031,1022.79L527.03,1022.79ZM527.03,221.21C428.51,221.21 335.885,259.57 266.22,329.224C196.55,398.878 158.18,491.49 158.18,590C158.18,688.51 196.55,781.122 266.218,850.776C335.885,920.43 428.51,958.79 527.03,958.79C625.522,958.79 718.13,920.43 787.787,850.777C857.453,781.12 895.82,688.507 895.82,590C895.82,491.492 857.453,398.88 787.787,329.222C718.129,259.57 625.524,221.212 527.031,221.212L527.03,221.21Z" style="fill-rule:nonzero;"/>
    </g>
    <g transform="matrix(1.18021,0,0,1.18021,-109.973,-184.321)">
        <path d="M554.19,852.754L554.19,612.137L635.008,612.137L647.085,518.322L554.19,518.322L554.19,458.475C554.19,431.369 561.704,412.851 600.656,412.851L650.344,412.814L650.344,328.966C641.757,327.856 612.274,325.246 577.96,325.246C506.38,325.246 457.345,368.916 457.345,449.196L457.345,518.322L376.373,518.322L376.373,612.138L457.345,612.138L457.345,852.754L554.19,852.754Z" style="fill-rule:nonzero;"/>
    </g>
    <g>
        <g transform="matrix(1.18021,0,0,1.18021,-109.973,-184.321)">
            <path d="M527.03,1022.79C468.614,1022.79 411.928,1011.34 358.546,988.768C306.999,966.968 260.711,935.77 220.968,896.036C181.224,856.302 150.016,810.019 128.213,758.479C105.63,705.1 94.18,648.414 94.18,590C94.18,531.584 105.63,474.898 128.212,421.52C150.016,369.98 181.222,323.7 220.967,283.963C260.711,244.229 306.997,213.029 358.545,191.233C411.928,168.659 468.613,157.213 527.03,157.213C585.43,157.213 642.107,168.658 695.48,191.233C747.02,213.031 793.3,244.231 833.04,283.963C872.78,323.699 903.985,369.981 925.788,421.52C948.368,474.9 959.818,531.584 959.818,590C959.818,648.414 948.368,705.1 925.788,758.478C903.985,810.018 872.78,856.298 833.041,896.035C793.304,935.768 747.021,966.97 695.481,988.767C642.111,1011.34 585.434,1022.79 527.031,1022.79L527.03,1022.79Z" style="fill-rule:nonzero;"/>
        </g>
        <g transform="matrix(1.18021,0,0,1.18021,-109.973,-184.321)">
            <path d="M474.734,769.6C640.456,769.6 731.097,632.318 731.097,513.277C731.097,509.33 731.097,505.42 730.827,501.549C748.457,488.861 763.711,473.033 775.784,454.943C759.344,462.263 741.904,467.017 724.006,469.163C742.861,457.895 756.928,440.149 763.636,419.301C745.929,429.841 726.612,437.238 706.413,441.147C672.305,404.89 615.236,403.127 578.979,437.237C555.523,459.274 545.634,492.042 552.879,523.355C480.442,519.715 412.949,485.489 367.226,429.227C343.273,470.352 355.499,523.01 395.09,549.494C380.757,549.034 366.73,545.202 354.216,538.188L354.216,539.336C354.216,582.223 384.456,619.206 426.481,627.639C413.221,631.281 399.327,631.779 385.799,629.174C397.603,665.928 431.405,691.031 469.982,691.798C438.076,716.823 398.658,730.468 358.09,730.43C350.923,730.392 343.775,729.97 336.647,729.126C377.867,755.57 425.793,769.599 474.735,769.561" style="fill:white;fill-rule:nonzero;"/>
        </g>
    </g>
</svg>
