<svg xmlns="http://www.w3.org/2000/svg" viewBox="0 0 24 24"><path fill="currentColor" d="M22.5 2.5h-1.2v1.8c0 1.3-1.1 2.3-2.5 2.3s-2.5-1.1-2.5-2.3V2.5H7.8v1.8c0 1.3-1.1 2.3-2.6 2.3s-2.5-1-2.5-2.3V2.5H1.5C.7 2.5 0 3.1 0 3.9v18.8c0 .7.7 1.3 1.5 1.3h21c.8 0 1.5-.6 1.5-1.4V3.9c0-.8-.7-1.4-1.5-1.4zM6 21.5H3v-2.8h3v2.8zm0-4.7H3V14h3v2.8zm0-4.9H3V9.1h3v2.8zm5.1 9.6h-3v-2.8h3v2.8zm0-4.7h-3V14h3v2.8zm0-4.9h-3V9.1h3v2.8zm5.1 9.6h-3v-2.8h3v2.8zm0-4.7h-3V14h3v2.8zm0-4.9h-3V9.1h3v2.8zm5.1 4.9h-3V14h3v2.8zm0-4.9h-3V9.1h3v2.8zm-2.5-6.4c.9 0 1.6-.7 1.6-1.5V1.5c0-.8-.7-1.5-1.6-1.5-.9 0-1.6.7-1.6 1.5V4c-.1.8.6 1.5 1.6 1.5zm-13.5 0c.9 0 1.6-.7 1.6-1.5V1.5C6.9.7 6.2 0 5.3 0c-1 0-1.7.7-1.7 1.5V4c0 .8.7 1.5 1.7 1.5z"/></svg>
