<svg xmlns="http://www.w3.org/2000/svg" width="20" height="20"><path d="M19.214 6.106c-.503-1.19-1.225-2.26-2.143-3.178A9.962 9.962 0 0 0 10.001 0 9.952 9.952 0 0 0 2.93 2.929 9.976 9.976 0 0 0 0 9.999a9.98 9.98 0 0 0 2.93 7.072A9.973 9.973 0 0 0 10.002 20a9.973 9.973 0 0 0 7.071-2.929A9.953 9.953 0 0 0 20 9.999c0-1.35-.264-2.659-.786-3.893zm-3.189 9.918a8.465 8.465 0 0 1-6.024 2.496 8.466 8.466 0 0 1-6.025-2.496A8.462 8.462 0 0 1 1.48 9.999c0-2.275.886-4.415 2.496-6.024a8.466 8.466 0 0 1 6.025-2.496c2.275 0 4.415.887 6.024 2.496a8.461 8.461 0 0 1 2.496 6.024 8.458 8.458 0 0 1-2.496 6.025z"/><path d="M14.814 9.271H10.74V5.198a.74.74 0 0 0-1.478 0v4.073H5.187a.74.74 0 0 0 0 1.478h4.075v4.075a.74.74 0 0 0 1.478 0V10.75h4.074a.74.74 0 0 0 0-1.479z"/></svg>
