<?xml version="1.0" encoding="utf-8"?>
<!-- Generator: Adobe Illustrator 16.0.0, SVG Export Plug-In . SVG Version: 6.00 Build 0)  -->
<!DOCTYPE svg PUBLIC "-//W3C//DTD SVG 1.1//EN" "http://www.w3.org/Graphics/SVG/1.1/DTD/svg11.dtd">
<svg version="1.1" id="Layer_1" xmlns="http://www.w3.org/2000/svg" xmlns:xlink="http://www.w3.org/1999/xlink" x="0px" y="0px"
	 width="20px" height="20px" viewBox="0 0 20 20" enable-background="new 0 0 20 20" xml:space="preserve">
<g>
	<path d="M19.214,6.106c-0.503-1.19-1.225-2.26-2.143-3.178s-1.987-1.639-3.179-2.143C12.66,0.265,11.351,0,10.001,0
		S7.342,0.265,6.108,0.786C4.918,1.29,3.848,2.011,2.93,2.929S1.291,4.916,0.787,6.106C0.265,7.34,0,8.649,0,9.999
		c0,1.351,0.265,2.66,0.787,3.894c0.504,1.19,1.225,2.26,2.143,3.178s1.988,1.639,3.179,2.143c1.233,0.521,2.543,0.786,3.893,0.786
		s2.659-0.265,3.892-0.786c1.191-0.504,2.261-1.225,3.179-2.143s1.64-1.987,2.143-3.178C19.736,12.659,20,11.35,20,9.999
		C20,8.649,19.736,7.34,19.214,6.106z M16.025,16.024c-1.609,1.609-3.749,2.496-6.024,2.496c-2.276,0-4.416-0.887-6.025-2.496
		c-1.61-1.609-2.496-3.749-2.496-6.025c0-2.275,0.886-4.415,2.496-6.024c1.609-1.609,3.749-2.496,6.025-2.496
		c2.275,0,4.415,0.887,6.024,2.496c1.61,1.609,2.496,3.749,2.496,6.024C18.521,12.275,17.636,14.415,16.025,16.024z"/>
	<path d="M14.814,9.271H10.74V5.198c0-0.408-0.331-0.739-0.739-0.739S9.262,4.79,9.262,5.198v4.073H5.187
		c-0.408,0-0.739,0.331-0.739,0.739s0.331,0.739,0.739,0.739h4.075v4.075c0,0.408,0.331,0.739,0.739,0.739s0.739-0.331,0.739-0.739
		V10.75h4.074c0.408,0,0.74-0.331,0.74-0.739S15.223,9.271,14.814,9.271z"/>
</g>
</svg>
