<svg xmlns="http://www.w3.org/2000/svg" viewBox="0 0 16 16"><path d="M14.2 5.4c.1.2.2.4 0 0-.1-.4-.1-.2 0 0-.7-1.6-2-2.9-3.6-3.6C8.1.7 5.1 1.3 3.2 3.2c-.6.6-1.1 1.4-1.4 2.2-.7 1.6-.7 3.6 0 5.2 1.4 3.4 5.5 5 8.9 3.6 1.6-.7 2.9-2 3.6-3.6.6-1.6.6-3.5-.1-5.2zm-2.1 6.7c.2-.3.5-.6 0 0-.6.5-.3.2 0 0-2.2 2.2-5.9 2.2-8.1 0C1.8 9.9 1.8 6.2 4 4c2.2-2.2 5.9-2.2 8.1 0 2.2 2.2 2.2 5.9 0 8.1zm-3.8-1.8h-1c-.1 0-.1.1-.1.1v1c0 .1.1.1.1.1h1c.1 0 .1-.1.1-.1v-1c0-.1-.1-.1-.1-.1zm1-5.2c-.7-.7-2.1-.7-2.9 0-.4.3-.6.7-.5 1.2v.1l.1.1h.9c.1 0 .1-.6.3-.7.3-.3 1-.3 1.3 0 .3.3.3.9.1 1.3-.2.2-.4.5-.7.8-.3.3-.5.5-.6.7 0 .2-.3 1.2 0 1.2h.9c.2 0 .1-.6.2-.8 0-.1.1-.2.3-.4.4-.3.6-.7.9-1 .4-.7.4-1.9-.3-2.5-.3-.3.4.3 0 0z"/></svg>
