<?xml version="1.0" encoding="utf-8"?>
<!-- Generator: Adobe Illustrator 16.0.0, SVG Export Plug-In . SVG Version: 6.00 Build 0)  -->
<!DOCTYPE svg PUBLIC "-//W3C//DTD SVG 1.1//EN" "http://www.w3.org/Graphics/SVG/1.1/DTD/svg11.dtd">
<svg version="1.1" id="Layer_1" xmlns="http://www.w3.org/2000/svg" xmlns:xlink="http://www.w3.org/1999/xlink" x="0px" y="0px"
	 width="18px" height="21.009px" viewBox="0 0 18 21.009" enable-background="new 0 0 18 21.009" xml:space="preserve">
<g>
	<path d="M17.25,2.965h-3.84V0.749C13.41,0.336,13.074,0,12.66,0H5.223c-0.414,0-0.75,0.336-0.75,0.749v2.216H0.75
		C0.336,2.965,0,3.301,0,3.715s0.336,0.749,0.75,0.749h0.694V20.26c0,0.413,0.336,0.749,0.75,0.749h13.521
		c0.414,0,0.749-0.336,0.749-0.749V4.464h0.785c0.414,0,0.75-0.335,0.75-0.749S17.664,2.965,17.25,2.965z M5.972,1.499h5.939v1.466
		H5.972V1.499z M14.966,19.51H2.943V4.487h2.279h7.438h2.306V19.51z"/>
	<path d="M5.962,5.254c-0.414,0-0.749,0.336-0.749,0.75V17.99c0,0.414,0.335,0.75,0.749,0.75s0.75-0.336,0.75-0.75V6.004
		C6.712,5.59,6.376,5.254,5.962,5.254z"/>
	<path d="M8.965,5.254c-0.414,0-0.75,0.336-0.75,0.75V17.99c0,0.414,0.336,0.75,0.75,0.75s0.75-0.336,0.75-0.75V6.004
		C9.715,5.59,9.379,5.254,8.965,5.254z"/>
	<path d="M11.963,5.254c-0.414,0-0.749,0.336-0.749,0.75V17.99c0,0.414,0.335,0.75,0.749,0.75s0.75-0.336,0.75-0.75V6.004
		C12.713,5.59,12.377,5.254,11.963,5.254z"/>
</g>
</svg>
