<svg xmlns="http://www.w3.org/2000/svg" width="917.561" height="894.44" viewBox="62.584 127.157 917.561 894.44"><path d="M257.904 1021.597c-6.63 0-13.238-2.058-18.83-6.125-10.377-7.55-15.24-20.57-12.353-33.074l66.82-289.402L71.855 469.33c-9.084-9.165-11.773-22.89-6.82-34.808 4.952-11.917 16.58-19.692 29.484-19.718l283.17-.57L495.804 146.33c5.06-11.56 16.438-19.066 29.054-19.17h.264c12.516 0 23.89 7.297 29.102 18.693l123.624 268.386 270.365.568c12.724.026 24.222 7.59 29.286 19.26 5.064 11.67 2.734 25.235-5.936 34.546L766.18 689.187l63.86 293.61c2.698 12.406-2.194 25.236-12.472 32.695s-23.992 8.138-34.952 1.728L525.314 866.744l-250.97 150.308c-5.078 3.04-10.767 4.545-16.44 4.545zM525.12 797.56c5.58 0 11.162 1.458 16.153 4.377L752.01 925.18l-51.927-238.748c-2.23-10.246.703-20.935 7.85-28.607L874.767 478.65l-217.564-.457c-12.498-.025-23.838-7.327-29.034-18.694L525.76 237.513l-97.81 221.508c-5.087 11.625-16.562 19.145-29.25 19.17l-227.497.46 180.214 181.824c7.73 7.8 10.923 19.022 8.452 29.726l-53.863 233.286 202.67-121.38c5.06-3.03 10.752-4.548 16.442-4.548z"/></svg>