<svg xmlns="http://www.w3.org/2000/svg" width="917.561" height="894.44" viewBox="62.584 127.157 917.561 894.44"><path d="M977.498 434.065c-5.064-11.67-16.562-19.233-29.286-19.26l-270.365-.568L554.223 145.85c-5.21-11.395-16.586-18.693-29.102-18.693h-.263c-12.617.105-23.996 7.612-29.054 19.17L377.69 414.236l-283.17.57c-12.905.024-24.532 7.8-29.484 19.717-4.953 11.917-2.264 25.644 6.82 34.81L293.54 692.995l-66.818 289.402c-2.887 12.504 1.975 25.523 12.352 33.074 5.593 4.068 12.2 6.125 18.83 6.125 5.675 0 11.363-1.507 16.44-4.547l250.97-150.308L782.62 1017.22c10.96 6.41 24.675 5.73 34.95-1.728s15.17-20.29 12.473-32.696l-63.86-293.61L971.57 468.612c8.667-9.31 10.997-22.874 5.93-34.545z"/></svg>