<?xml version="1.0" encoding="utf-8"?>
<!-- Generated by IcoMoon.io -->
<!DOCTYPE svg PUBLIC "-//W3C//DTD SVG 1.1//EN" "http://www.w3.org/Graphics/SVG/1.1/DTD/svg11.dtd">
<svg version="1.1" xmlns="http://www.w3.org/2000/svg" xmlns:xlink="http://www.w3.org/1999/xlink" width="16" height="16" viewBox="0 0 1024 1024">
<g id="icomoon-ignore">
</g>
<path d="M924.958 423.128c-21.771-51.462-52.93-97.673-92.612-137.349s-85.897-70.828-137.365-92.594c-53.301-22.542-109.9-33.971-168.227-33.971s-114.922 11.43-168.217 33.971c-51.461 21.766-97.671 52.919-137.345 92.596-39.673 39.675-70.825 85.887-92.59 137.35-22.54 53.295-33.968 109.892-33.968 168.218s11.429 114.922 33.968 168.217c21.765 51.462 52.917 97.671 92.59 137.345s85.883 70.826 137.345 92.591c53.294 22.54 109.891 33.969 168.217 33.969s114.926-11.429 168.227-33.968c51.468-21.765 97.684-52.916 137.365-92.589 39.683-39.675 70.842-85.884 92.612-137.345 22.547-53.296 33.979-109.894 33.979-168.22s-11.432-114.923-33.979-168.221zM787.096 851.654c-69.542 69.526-161.999 107.816-260.342 107.816-98.336 0-190.782-38.289-260.307-107.813s-107.813-161.971-107.813-260.308c0-98.337 38.289-190.786 107.814-260.314s161.971-107.82 260.306-107.82c98.341 0 190.799 38.292 260.341 107.823 69.544 69.532 107.843 161.979 107.843 260.312 0 98.331-38.299 190.776-107.842 260.304zM543 736.574h-61.558c-4.418 0-8 3.582-8 8v62.134c0 4.418 3.582 8 8 8h61.558c4.418 0 8-3.582 8-8v-62.134c0-4.418-3.582-8-8-8zM610.941 405.291c-22.525-20.756-54.228-31.28-94.224-31.28-36.571 0-67.243 10.093-91.167 30-24.419 20.339-36.478 47.654-35.842 81.188 0.022 1.168 0.3 2.318 0.814 3.368l0.852 1.738c1.343 2.742 4.13 4.48 7.184 4.48h54.59c4.418 0 8-3.582 8-8 0-16.125 5.050-27.865 15.428-35.883 11.107-8.551 24.238-12.708 40.141-12.708 18.247 0 31.719 4.634 41.178 14.161 9.463 9.552 14.063 23.188 14.063 41.687 0 15.526-3.648 28.872-10.845 39.666-7.93 11.898-21.387 29.088-40 51.096-20.554 18.619-33.037 33.476-38.154 45.402-6.605 15.352-7.801 47.586-7.926 65.434-0.015 2.131 0.821 4.181 2.323 5.692 1.502 1.513 3.545 2.363 5.677 2.363h57.214c4.418 0 8-3.582 8-8 0-18.114 1.175-33.758 3.081-40.882 1.786-6.869 7.46-15.095 16.865-24.448 22.683-21.957 41.256-43.781 55.213-64.883 14.442-21.938 21.765-46.464 21.765-72.897 0-36.991-11.516-66.361-34.23-87.294z"></path>
</svg>
