<?xml version="1.0" encoding="UTF-8"?>
<svg width="24px" height="24px" viewBox="0 0 24 24" version="1.1" xmlns="http://www.w3.org/2000/svg" xmlns:xlink="http://www.w3.org/1999/xlink">
    <!-- Generator: Sketch 47 (45396) - http://www.bohemiancoding.com/sketch -->
    <title>location</title>
    <desc>Created with Sketch.</desc>
    <defs></defs>
    <g id="Iconography" stroke="none" stroke-width="1" fill-rule="evenodd">
        <g transform="translate(-158.000000, -424.000000)" id="location">
            <g transform="translate(158.000000, 424.000000)">
                <g id="Group-24">
                    <g>
                        <path d="M12.5,0 C7.80071429,0 4,3.756 4,8.4 C4,14.7 12.5,24 12.5,24 C12.5,24 21,14.7 21,8.4 C21,3.756 17.1992857,0 12.5,0 L12.5,0 Z M12.5,11.4 C10.8242857,11.4 9.46428571,10.056 9.46428571,8.4 C9.46428571,6.744 10.8242857,5.4 12.5,5.4 C14.1757143,5.4 15.5357143,6.744 15.5357143,8.4 C15.5357143,10.056 14.1757143,11.4 12.5,11.4 L12.5,11.4 Z" id="location"></path>
                        <rect id="Rectangle-14-Copy-9" x="0" y="0" width="24" height="24" fill="transparent"></rect>
                    </g>
                </g>
            </g>
        </g>
    </g>
</svg>
