<?xml version="1.0" encoding="utf-8"?>
<!-- Generator: Adobe Illustrator 19.1.0, SVG Export Plug-In . SVG Version: 6.00 Build 0)  -->
<svg version="1.1" id="Layer_1" xmlns="http://www.w3.org/2000/svg" xmlns:xlink="http://www.w3.org/1999/xlink" x="0px" y="0px"
	 viewBox="0 0 250 250" style="enable-background:new 0 0 250 250;" xml:space="preserve">
<g id="NbXbWz.tif">
	<g>
		<path d="M161.2,9.8C127.8-5.2,88.5,2.3,61,28.9c-21.3,20.6-37.6,57-19.5,97.6c20.8,46.7,51,86.4,77.9,118.7l1.7,2.4h8.4l1.7-2.5
			c21.6-26.9,46.2-58.7,65.2-93.1l0.2-0.5c9.3-16.8,18.9-34.2,19.8-54.8C217.9,60.3,195.8,25.3,161.2,9.8z M72.7,42.9
			c14.5-15.1,31.6-22.8,50.3-22.8c7.9,0,16.2,1.4,24.6,4.2c28.6,9.4,45.5,30.1,50.2,61.5c1.4,9.1,0,18.3-4.1,29.1
			c-11.4,29.7-28.9,54.8-50.5,84.5c-4.8,6.6-9.8,13-15.1,19.8c-1.1,1.4-2.2,2.8-3.3,4.2c-26-34-50.5-66.3-66.7-104.2
			C46.1,91.2,51,65.5,72.7,42.9z"/>
		<path d="M125.2,49.6c0,0-0.1,0-0.1,0c-11.9,0-23.6,4.3-32.2,13c-8.7,8.7-13.4,19.9-13.3,31.9c0.2,25.1,20.6,45.2,45.5,45.2
			c0.1,0,0.2,0,0.3,0c12.1,0,23.6-5.2,32.2-14.1c8.6-8.8,13.1-19.7,12.9-31.6C170,69.3,149.7,49.6,125.2,49.6z M125.1,66.6
			C125.1,66.6,125.1,66.6,125.1,66.6c7.3,0,14.1,2.8,19.2,7.9c5.2,5.2,8,12.6,8,20.1c-0.1,15-12.1,27-27.2,27c0,0,0,0,0,0
			c-15.2,0-27.1-12.1-27.1-27.1c0-7.5,2.8-14.6,8-19.8C111,69.6,117.8,66.6,125.1,66.6z"/>
	</g>
</g>
</svg>
