<?xml version="1.0" encoding="UTF-8"?>
<svg width="24px" height="24px" viewBox="0 0 24 24" version="1.1" xmlns="http://www.w3.org/2000/svg" xmlns:xlink="http://www.w3.org/1999/xlink">
    <!-- Generator: Sketch 47 (45396) - http://www.bohemiancoding.com/sketch -->
    <title>jobfunctions</title>
    <desc>Created with Sketch.</desc>
    <defs></defs>
    <g id="Iconography" stroke="none" stroke-width="1" fill-rule="evenodd">
        <g transform="translate(-847.000000, -334.000000)" id="job-functions">
            <g transform="translate(847.000000, 334.000000)">
                <g id="jobfunctions">
                    <g id="Group-22">
                        <path d="M10.5319149,23 L0.70212766,23 C0.314553191,23 0,22.6871111 0,22.3015873 L0,11.1269841 C0,10.7414603 0.314553191,10.4285714 0.70212766,10.4285714 L10.5319149,10.4285714 C10.9194894,10.4285714 11.2340426,10.7414603 11.2340426,11.1269841 L11.2340426,22.3015873 C11.2340426,22.6871111 10.9194894,23 10.5319149,23 Z M9.19148936,4.92857143 C9.19148936,7.09845238 7.47702128,8.85714286 5.36170213,8.85714286 C3.24638298,8.85714286 1.53191489,7.09845238 1.53191489,4.92857143 C1.53191489,2.75869048 3.24638298,1 5.36170213,1 C7.47702128,1 9.19148936,2.75869048 9.19148936,4.92857143 Z M14.8411046,1 L22.4354912,1 L22.4354912,1 C23.2995455,1 24,1.70045446 24,2.56450883 L24,2.57834832 C24,3.44240268 23.2995455,4.14285714 22.4354912,4.14285714 L14.8411046,4.14285714 C13.9770502,4.14285714 13.2765957,3.44240268 13.2765957,2.57834832 L13.2765957,2.56450883 C13.2765957,1.70045446 13.9770502,1 14.8411046,1 L14.8411046,1 Z M14.8411046,13.5714286 L22.4354912,13.5714286 C23.2995455,13.5714286 24,14.271883 24,15.1359374 L24,15.1497769 C24,16.0138313 23.2995455,16.7142857 22.4354912,16.7142857 L14.8411046,16.7142857 C13.9770502,16.7142857 13.2765957,16.0138313 13.2765957,15.1497769 L13.2765957,15.1359374 C13.2765957,14.271883 13.9770502,13.5714286 14.8411046,13.5714286 Z M14.8411046,7.28571429 L22.4354912,7.28571429 C23.2995455,7.28571429 24,7.98616875 24,8.85022311 L24,8.8640626 C24,9.72811697 23.2995455,10.4285714 22.4354912,10.4285714 L14.8411046,10.4285714 C13.9770502,10.4285714 13.2765957,9.72811697 13.2765957,8.8640626 L13.2765957,8.85022311 L13.2765957,8.85022311 C13.2765957,7.98616875 13.9770502,7.28571429 14.8411046,7.28571429 Z M14.8411046,19.8571429 L22.4354912,19.8571429 C23.2995455,19.8571429 24,20.5575973 24,21.4216517 L24,21.4354912 C24,22.2995455 23.2995455,23 22.4354912,23 L14.8411046,23 C13.9770502,23 13.2765957,22.2995455 13.2765957,21.4354912 L13.2765957,21.4216517 C13.2765957,20.5575973 13.9770502,19.8571429 14.8411046,19.8571429 Z" id="job-functions"></path>
                        <rect id="Rectangle-14-Copy-8" x="0" y="0" width="24" height="24" fill="transparent"></rect>
                    </g>
                </g>
            </g>
        </g>
    </g>
</svg>
