<svg xmlns="http://www.w3.org/2000/svg" viewBox="0 0 16 16"><path d="M7 15.3H.5c-.3 0-.5-.2-.5-.5V7.4c0-.3.2-.5.5-.5H7c.3 0 .5.2.5.5v7.5c0 .2-.2.4-.5.4zM6.1 3.2c0 1.5-1.1 2.6-2.5 2.6S1 4.7 1 3.2 2.1.6 3.6.6s2.5 1.2 2.5 2.6zM9.9.6H15c.6 0 1.1.5 1.1 1.1 0 .6-.5 1.1-1.1 1.1H9.9c-.6 0-1.1-.5-1.1-1.1.1-.6.5-1.1 1.1-1.1zm0 8.4H15c.6 0 1.1.5 1.1 1.1 0 .6-.5 1.1-1.1 1.1H9.9c-.6 0-1.1-.5-1.1-1.1.1-.6.5-1.1 1.1-1.1zm0-4.2H15c.6 0 1.1.5 1.1 1.1S15.5 7 14.9 7h-5c-.6 0-1.1-.5-1.1-1.1.1-.6.5-1.1 1.1-1.1zm0 8.4H15c.6 0 1.1.5 1.1 1.1 0 .6-.5 1.1-1.1 1.1H9.9c-.6 0-1.1-.5-1.1-1.1.1-.6.5-1.1 1.1-1.1z"/></svg>
