<svg xmlns="http://www.w3.org/2000/svg" viewBox="0 0 16 16"><path d="M14.1 6.9c-.5-.6-1.3-.9-2.1-.9H9.7c.2-.9.5-2.7 0-4C9.2.7 7.3.6 6.8 2c-.3.6-1.6 4.7-1.8 5.5H2.8c-1 0-1.8.8-1.8 1.8v3.8c0 1 .8 1.8 1.8 1.8H12c1.6 0 3-1.3 3-3V9c0-.8-.3-1.6-.9-2.1-.5-.6.6.5 0 0zM2 13.1V9.3c0-.5.4-.8.8-.8h1.9V12c0 .8.3 1.5.8 2H2.8c-.4 0-.8-.4-.8-.9 0 0 0 .5 0 0zM14 12c0 1.1-.9 2-2 2H7.7c-1.1 0-2-.9-2-2V8.7c0-.3.1-.5.2-.8.3-1.1.7-2.2 1.1-3.3.2-.6.4-1.3.6-1.9.2-.6.8-1.1 1.2-.3.2.6.2 1.5.1 2.5-.1.4-.8 2.1.1 2.1h3c1.1 0 2 .9 2 1.9V12c0 1.1 0 0 0 0z"/></svg>
