<svg xmlns="http://www.w3.org/2000/svg" viewBox="0 0 16 16"><path d="M8 1.4c.5 0 1 .1 1.4.4.4.3.8.6 1 1 .8 1.3.2 2.9-1 3.7-1.3.7-3.1.3-3.9-1-.5-.8-.5-1.8 0-2.7.2-.4.6-.8 1-1 .5-.2 1-.4 1.5-.4.3 0 0 0 0 0zm0 7.8c1.7 0 3.4.7 4.7 1.8.6.6 1.1 1.3 1.4 2 .2.4.3.8.4 1.2v.3h-13v-.3c.1-.4.2-.8.4-1.2.3-.8.8-1.4 1.4-2 1.3-1.1 3-1.8 4.7-1.8.4 0 0 0 0 0zM8 .5c-.7 0-1.3.2-1.9.5-1.7 1-2.4 3.2-1.4 5 .3.5.8 1 1.4 1.3 1.7 1 4.1.4 5.2-1.3 1-1.7.4-4-1.4-5C9.3.7 8.7.5 8 .5c-.3 0 0 0 0 0zm0 7.8c-1 0-2 .2-2.9.6-.9.4-1.7.9-2.4 1.5s-1.2 1.4-1.6 2.3c-.4.9-.6 1.8-.6 2.8h15c0-1-.2-1.9-.6-2.8-.4-.9-.9-1.7-1.6-2.3C11.9 9 10 8.3 8 8.3c-.5 0 0 0 0 0z"/></svg>
