<svg id="Layer_1" data-name="Layer 1" xmlns="http://www.w3.org/2000/svg" width="165" height="33"><defs><style>.cls-2{fill:#1c3f94}</style><clipPath id="clip-path"><path d="M25.36 17.1l.11-.08a.24.24 0 0 0-.11.08m-9.64-6zm0 0zm2.4-1.1H18s0 .08-.07.11H18.14a.06.06 0 0 0 0-.06s-.07 0-.1.06m-.69-.34a.22.22 0 0 0-.09 0 .21.21 0 0 1-.11 0v.11a.17.17 0 0 0 0 .06.8.8 0 0 1 0 .08.12.12 0 0 0 0 .09.15.15 0 0 1 0 .07v.07l-.05.07v.08l.06.07h.24a.3.3 0 0 1 0-.05.12.12 0 0 1 0-.06.12.12 0 0 0 0-.06.44.44 0 0 1 0-.05h.05a.16.16 0 0 0 0-.05V10.35h-.06a.34.34 0 0 1 0-.05h.12v-.06c0-.06.07 0 .1 0h.06v-.06-.05H17.55a.15.15 0 0 0-.07 0zm.65-.45v-.05l-.07.06s-.07 0-.08.07h.08v-.07h.08v-.06h-.07m-2.17.44h.06zm.37-.49h-.05a.67.67 0 0 0-.11.11v.07a.16.16 0 0 1 0 .08h-.05v-.05-.05c0-.05 0 0 0 0a.2.2 0 0 0 0 .06h.17c.06 0 .08.07.11.11v.07H16.43a.21.21 0 0 0 0-.08v-.09a.08.08 0 0 0 0-.07.35.35 0 0 1 0-.07.68.68 0 0 1 0-.07v-.16l.05-.05a.12.12 0 0 0 0-.06h.12-.06c-.06 0 0 .1 0 .13a.05.05 0 0 0-.05 0h-.07s.07-.09.06-.15-.07 0-.09-.05h-.05zm2.1-.22a.15.15 0 0 1 0 .07h-.06v.07h.11a.18.18 0 0 0 0-.08m-2.72 0v.33a2 2 0 0 0 .15-.39c0-.17 0-.31.1-.4a2.81 2.81 0 0 0-.14.34m.23 1.47a.19.19 0 0 1 0-.07H16a.16.16 0 0 1 0 .07h-.13m-.34-.28l-.07-.06V10c0 .06.08.08.08.18m.14-1.56l-.08.14a.15.15 0 0 1 0 .1 6.55 6.55 0 0 0-.4.94v.5s.06-.1.08-.15.06.1.1.22a1.42 1.42 0 0 0 .19.31h.11v.11c.27 0 .25-.26.38-.4a.2.2 0 0 0-.07-.06h-.15v-.05c-.09 0-.06 0-.09-.09s0 0-.06 0a1.26 1.26 0 0 1 .06-.23V9.9h.05s.09-.1 0-.2 0 0 0 .06a.33.33 0 0 0 0-.09.29.29 0 0 0 0 .22.2.2 0 0 1-.14.17v-.31-.06c0-.06 0 0 0 0a.6.6 0 0 1 0-.1h.07v-.24c0-.08 0 0-.07 0s-.05.12-.15.12a.12.12 0 0 1 0 .05.31.31 0 0 1 0-.21v.08c.15-.05.08-.28.13-.44a2.34 2.34 0 0 0 .14-.32zm7.89-.5zm-6-.41h-.06a.26.26 0 0 0 0-.05m.2 0v.05a.11.11 0 0 0 0-.06v-.06M19.33 7.53a.56.56 0 0 0-.27.16l-.13.1a.68.68 0 0 0-.11.13s0 .11-.07.16l-.05.08-.06.09a.34.34 0 0 0-.05.08v.08a.35.35 0 0 1-.09.14.6.6 0 0 1-.13.12c-.05 0-.11 0-.13.09a.15.15 0 0 1 0 .07h-.07c-.05 0-.08.08-.12.12s0 0 0 .06 0 0 .05 0a.61.61 0 0 0 .17-.1 1.39 1.39 0 0 0 .21-.17l.08-.09.08-.08a.8.8 0 0 0 0-.1.44.44 0 0 1 .08-.09.19.19 0 0 0 .06-.1v-.11a.14.14 0 0 1 .06-.09.29.29 0 0 0 .08-.1A.77.77 0 0 1 19 8a.35.35 0 0 1 .11-.1l.1-.08.09-.09.12-.09zm3.93-.48zM21.42 7H21V7.12h.46a.34.34 0 0 1 0-.06zm-.95-1.44h-.16a.19.19 0 0 0 .16 0m3.39 10H24h-.1zm.16 0h.06H24m.12 0c0-.06.14 0 .2-.08 0 .08-.13 0-.2.08m-.36-.1h.09-.21.18a1 1 0 0 1-.24 0 1.19 1.19 0 0 0-.27 0 1 1 0 0 1-.4 0 .56.56 0 0 0-.16 0 .45.45 0 0 1 .38-.08.48.48 0 0 0 .29 0 .48.48 0 0 1 .17 0h.07a.21.21 0 0 0 .12 0m1.63 0s0 .05-.06.06zm-.94 0c.06 0 .18 0 .24-.07-.05.07-.16 0-.23.09zm.62-.15a1 1 0 0 0-.31.21c0-.13.2-.16.29-.22M16.55 16.04s0-.09-.05-.13-.08-.08-.09-.12v-.14a1 1 0 0 1-.1-.22c.11 0 .21-.06.24-.16v.12s.07.07.09.13a.36.36 0 0 1 0 .16 1 1 0 0 0 0 .41.33.33 0 0 1 0 .1.3.3 0 0 1-.22-.08m8.49-.87h.11-.09zm-2 0h.1H23m-.25-.08c.09 0 .09 0 .17.07-.11 0-.1 0-.16-.09m3.43-.3a.14.14 0 0 1 0 .05v-.05m-1.07 0h.11-.11zm-.33 0h.08a.34.34 0 0 1 0 .06h-.06m-3.31 0h.11a.16.16 0 0 1-.11 0m3.86 0l.15-.07h.07-.19zm-.24-.05zm.42-.13a.18.18 0 0 1 0 .06h-.04v-.06m-3.25.63a.79.79 0 0 0-.06-.1s-.11 0-.15-.08 0-.09-.06-.14-.11-.05-.16-.08a.81.81 0 0 1-.16-.14h-.12a.86.86 0 0 1 .36 0s0 .07.07.09h.1l.14.16h.12c.08 0 .14.1.21.13a.1.1 0 0 1 0 .06.05.05 0 0 1 .05 0 .4.4 0 0 1 0 .07l.16.07v.2a.59.59 0 0 1-.5-.21m2.15-.19h-.07c0-.18.14-.2.16-.34s.08-.07.14-.09h.15a.39.39 0 0 0 .24-.14c0 .18-.36.19-.52.27a.11.11 0 0 0 0 .09.43.43 0 0 0 .27-.1h.06s-.15.08-.25.1 0 .13.12.14-.06.07-.11.08a.84.84 0 0 1 .01-.2v.25c0 .09-.05 0-.08 0a.57.57 0 0 1 0-.15M26.89 14.42h.16c0 .1.1.07.14.14l-.21.07a.14.14 0 0 1 0-.06.36.36 0 0 0-.27.07s-.14 0-.22.1-.11-.12-.14-.17a1.35 1.35 0 0 1-.24 0h-.12c-.04 0 0 0 0 0a.2.2 0 0 1-.08-.05.36.36 0 0 0 .13-.06h-.15-.07c.05 0 .28-.12.33-.09s0 0 0 .07h.07c.05 0 .18-.14.2-.19h.26a.56.56 0 0 1 .25 0m-1.3 0c0 .07 0 .07-.07.1h.06-.1c-.04 0 0 .07 0 .09s0-.15-.1-.16.06-.08.08-.14a.14.14 0 0 1 0 .07.32.32 0 0 0 .13-.09M25.6 14.06a.12.12 0 0 1 0 .06.14.14 0 0 1 0-.06m-1.84.5s.2-.13.28-.19.08-.11.11-.14.11 0 .15-.07 0-.11.08-.16.14.08.3.08-.07 0-.1.06h-.06a.16.16 0 0 0 0 .18c0 .05.06 0 .1.08a.46.46 0 0 0-.18.11V14.74a.5.5 0 0 1-.18.13h-.66a.25.25 0 0 0-.18 0h-.06l.08-.15h-.13c-.04 0 0 0 0 0s-.06 0-.07-.07a.06.06 0 0 1 0-.06c0-.07.23-.16.32-.08zm-3.88-.33h-.06c-.06 0 .05-.15.08-.26s.14.14.21.21 0 0 0 .05a.13.13 0 0 1-.13.07.14.14 0 0 1-.1 0m5.36-.58l.06-.07a.29.29 0 0 1 0 .1.19.19 0 0 1 0 .13v.14a.07.07 0 0 0-.07 0H25v-.13a.43.43 0 0 0-.28.13c.06-.12.13-.13.22-.21h.08M24.83 13.69v.16c0-.09 0-.1.07-.17m.05.09a.19.19 0 0 1 0-.09s0 .06.09.06h-.11m-.2-.16h.15a.12.12 0 0 1 0 .07c0 .05-.06.06-.1.09s0-.1 0-.15m.28 0h.05a.13.13 0 0 1 0 .1h.07-.13v-.06H25m-.17-.14h.09-.1a.17.17 0 0 1 0-.06m-.3 0a.14.14 0 0 1 .09 0c-.1 0-.1 0-.16-.08m.45 0s.06 0 .08.07a.2.2 0 0 1 0 .08c-.11 0-.05 0-.09-.07zm-1.76-.24a.23.23 0 0 1 0-.11.65.65 0 0 1 .24 0c0 .07 0 .09-.07.13H23.1m1.33.19c-.08 0-.09-.1-.11-.18h.07a.49.49 0 0 0 0-.18 1.86 1.86 0 0 0 .2-.06c0 .09 0 .24-.1.28a.23.23 0 0 0 0 .09H24.8a.14.14 0 0 1-.09 0 .09.09 0 0 0 0 .06c-.07 0-.06-.05-.15-.06s0 0 0 .06-.06 0-.08-.07h-.1m-.07-.81c0-.13.05-.16.08-.24a.63.63 0 0 1 0 .25h-.05m.3-1.26h.16m.46-.13h.09v.28h-.08v-.17c-.06 0 0 0-.07.06a.28.28 0 0 1 .09-.16m.15 0a.93.93 0 0 0 .13-.11.3.3 0 0 1-.1.16h-.06m.27-.51s.06-.06.08-.11-.06-.24-.07-.37a.15.15 0 0 0 0-.08.45.45 0 0 0 .15.18v.27a1.54 1.54 0 0 1 .06.14v.12a.85.85 0 0 1-.26.1.4.4 0 0 1-.08.14v-.12c0-.03-.2.07-.25.12a.41.41 0 0 1 .13-.2.25.25 0 0 1 .14 0v-.27a.16.16 0 0 1 0 .07zm.12-.95s0 .07.08.08-.1.12 0 .19-.06 0-.08 0a.12.12 0 0 0-.09 0v.08a.14.14 0 0 1-.08-.07v-.13h.07c0-.08-.06-.1-.07-.19h.15a.1.1 0 0 0 .08 0m.14-.11v.14a.56.56 0 0 1 0-.15m-.64-.2s0-.12-.07-.16h-.07a.87.87 0 0 1-.22-.34.63.63 0 0 0 .08.09v.12h.08a2.24 2.24 0 0 0 .27.28h-.08l.2.2h-.07v.05l-.22-.38m.74-.52v0M25.58 7.85zm-2.9-.19a.24.24 0 0 1 0 .05M22.66 7.35h.05a.32.32 0 0 1 .11.08h-.07m.12-.43A.12.12 0 0 1 23 7a.11.11 0 0 0-.08 0l-.06-.08m0 0V7M22.52 6.89zm.36-.05a.28.28 0 0 1 .19 0v.05a.56.56 0 0 1-.18-.05m-.26-.08h.16v.06s-.09.08-.13.09a.89.89 0 0 0-.1-.06s0-.07-.07-.1h.09zm-2.8 0a.54.54 0 0 0 .19 0h.08v.06H19.69l-.09.05-.09.07-.1.08a.12.12 0 0 1 0 .07v-.08a.05.05 0 0 1 0-.06l.07-.06.11-.08H19.94zm1.25 0a.12.12 0 0 1 0-.06v-.09l.08.09v.07l-.09.07m0-.49v.17a.43.43 0 0 1 0 .2h-.13a.13.13 0 0 1 0-.06v-.07a.14.14 0 0 1 0-.05.21.21 0 0 0 0-.06.14.14 0 0 0 0-.08h.07m-.76 0a.44.44 0 0 0 0-.07h.29-.06a.27.27 0 0 1-.16.06h-.09m-1.09-.23l.18-.16a2.39 2.39 0 0 0 .24-.12.5.5 0 0 1 .21 0h.13H19.69l-.11.08h-.14V5.9c0-.06 0 0 0 0h-.14m4-.65s0 .11.07.14l.12.05v.07c0 .07.07 0 .09.08s0 .06 0 .1a1.89 1.89 0 0 0 .23.21h-.16a2.53 2.53 0 0 1-.6 0 1.9 1.9 0 0 0-.51 0c-.05 0-.1.09-.16.11h-.28a.45.45 0 0 1-.3 0h-.13a.47.47 0 0 1-.29-.18 1.68 1.68 0 0 0-.25 0 .31.31 0 0 0-.13.27.26.26 0 0 1 0-.09 1.59 1.59 0 0 0-.34-.12.29.29 0 0 0-.14 0h-.17c0-.05.07-.07.11-.09s-.62-.13-.81-.13a.26.26 0 0 1-.14 0l-.4.11h-.1a6.61 6.61 0 0 0-2.67 2h.11c.05 0 .09 0 .11-.07a.51.51 0 0 1 .08-.16.15.15 0 0 1 .07 0h.07a.3.3 0 0 1 0 .07h-.05c-.05 0-.06 0-.06.05s0 0-.07.06a.06.06 0 0 1 0 .06v.05h.07v.06c0 .06.09 0 .11-.07a.08.08 0 0 1 .13 0h.05c.05 0 .05-.06.06-.09s0-.07.06-.06h.31a.11.11 0 0 0 0-.09c0-.06-.14 0-.19-.06a.09.09 0 0 1 0-.09.21.21 0 0 1 .07-.09c.08-.06.17-.1.26-.15l.1-.07.1-.05a.18.18 0 0 0 .08-.06v-.06c0-.01-.07 0-.1 0l-.09.07h-.2c-.06 0-.1.1-.17.13h-.08l-.07.07a.08.08 0 0 1-.07 0v.07c0 .07 0 0-.05 0h-.07l-.06.05a.38.38 0 0 1-.13.08h-.07c-.01 0 0-.06 0-.08v-.13a.22.22 0 0 1 .1-.1h.07v-.06a.12.12 0 0 1 .18.21v-.06c0-.06-.06 0-.06 0v.05h-.1H17.68a.58.58 0 0 0-.12.12h.1l.08-.06h.19-.11s-.08 0-.08.05h.09v.06a.14.14 0 0 0 0 .07v.08a.1.1 0 0 1 0 .07h-.07a.25.25 0 0 1-.08 0h-.13s-.06 0 0 .06 0 0 0 .06v.07a.07.07 0 0 0 .08 0v-.07.06a.06.06 0 0 0 .07 0v-.07h.12a.13.13 0 0 1 0 .07s.07-.08.11-.11h.12c.06 0 0 .05 0 .06h-.07v.06H18.28h-.06.47a.08.08 0 0 1 .06.07.33.33 0 0 0 0 .1h.06c.06 0 0 0 0-.07a.3.3 0 0 1 0-.1 1.39 1.39 0 0 1 .17-.22.51.51 0 0 1 .09-.09.09.09 0 0 1 .1 0 .07.07 0 0 1 0 .1l-.07.1v.1l-.07.09a.1.1 0 0 0 0 .09.11.11 0 0 1 0 .08.17.17 0 0 1-.07.06.18.18 0 0 1-.1 0 .23.23 0 0 0-.12 0l-.13.08a.49.49 0 0 0-.12.1.15.15 0 0 0 0 .11.18.18 0 0 1 0 .09l-.07.09a.1.1 0 0 0 0 .11.17.17 0 0 0 .11.07v-.06c0-.06-.06-.07-.06-.11a.52.52 0 0 1 .05-.11.24.24 0 0 0 0-.06l.06-.07a.51.51 0 0 1 .11-.09.14.14 0 0 1 .12 0 .15.15 0 0 0 .12 0 .37.37 0 0 0 .1-.07.23.23 0 0 0 .06-.09s0-.06.06-.06a.12.12 0 0 1 .1.06.11.11 0 0 1 0 .1v.07a.06.06 0 0 0 .06 0 .08.08 0 0 0 .07 0v-.05a.21.21 0 0 1 0-.14.07.07 0 0 0 0-.07.14.14 0 0 0-.07 0h-.08c-.02 0 0 0 0-.06v-.06a.09.09 0 0 0 0-.07V7.8l.06-.06a.12.12 0 0 0 0-.07s0-.07.05-.05 0 .07 0 .09a.1.1 0 0 0 0 .08v.07c0 .01 0-.06.06-.08s0 0 .07 0h.07v.06a.05.05 0 0 0 0 .07h.08a.11.11 0 0 1 0-.07.07.07 0 0 1 0-.07H21v.06c0 .06 0 0 .06 0h.06a.56.56 0 0 1 .1-.15h.13a.19.19 0 0 1 0 .06.29.29 0 0 1 .26 0 .38.38 0 0 0 0 .16c0 .05-.07.06-.1.1s0 0 .09 0h.09c.04 0 0 0 0 0a.92.92 0 0 0 .28 0 .11.11 0 0 0 0 .07.81.81 0 0 0 .21 0s-.05 0-.06-.11h.18a.18.18 0 0 0 0 .06h.1l.07.06.08.07a.1.1 0 0 1 0 .07v.07a.09.09 0 0 0 0 .06.16.16 0 0 0 0 .09.1.1 0 0 0 0 .05.21.21 0 0 0 .08.08L23 8h.23a.46.46 0 0 1 .19.14c0-.05-.08-.08-.12-.12h.16a.52.52 0 0 0-.19 0H23a.08.08 0 0 0 0 .07.18.18 0 0 1 0-.05.16.16 0 0 1 0-.08.85.85 0 0 0 0-.09h.14a2 2 0 0 0 .2 0 .15.15 0 0 0-.34-.79V7a.36.36 0 0 0 .14 0H23.31a.1.1 0 0 1 .08 0 .1.1 0 0 0 .1 0h.11a.09.09 0 0 1-.06.08c.08 0 .09-.1.15-.14h.19c.08.07.2.09.28.15s0-.06 0-.1.18-.09.24 0c0-.09-.07-.08-.13-.13a.25.25 0 0 0 .12-.09 2 2 0 0 1 .4 0H25v-.1c0-.1.13 0 .2 0v.05h.1l.09.07a.13.13 0 0 1 0 .05h-.25c-.08 0 .05.05.05.13a.3.3 0 0 1 .25.11v.09a.66.66 0 0 0 .19.28h-.06v.16a.11.11 0 0 1-.05-.05.84.84 0 0 0 0 .09v.07c0 .02.09.09.11.15s.11.11.19.13 0 0 0 .06.21.12.12.2a.94.94 0 0 0 .14.35v.08a3.28 3.28 0 0 1-.28-.21s0-.09-.08-.11-.15-.08-.19-.15 0-.28-.1-.38a.89.89 0 0 1-.09-.13V7.7c0-.07-.12 0-.12-.16a.43.43 0 0 0 .14.2v.05a.25.25 0 0 1-.15-.14c0 .14.06.19.07.31h.07v.09h-.07v.08H25v-.1a.21.21 0 0 0-.19.12h-.07v.15c-.1 0-.1.06-.17.09s0 .47-.07.56V9h.23a.48.48 0 0 0 0-.1c.14 0 .21.15.27.25s.14.16.18.23a.77.77 0 0 0 0 .1c.08.33-.11.57-.18.78a.31.31 0 0 1-.1 0v.1c0 .05-.2.16-.1.27s-.05 0-.09.07 0 .07-.07.1a.59.59 0 0 1 .29.16s0 .1.07.15-.06.08-.07.16-.1 0-.19.05a.93.93 0 0 1 0-.18l-.1-.05c-.1-.05 0-.07 0-.15a.53.53 0 0 0-.13 0v-.18a.58.58 0 0 0-.36.13.26.26 0 0 0 0-.21l-.09.08s0 .12-.08.14a1.57 1.57 0 0 1-.16.06l.06.07h.21a.55.55 0 0 0 .17-.07h.11a.41.41 0 0 1-.13.13h-.06s0 .16-.09.2.11 0 .16 0a.6.6 0 0 1 0 .15c.08 0 .1.08.16.11a.18.18 0 0 1-.09 0h.08c.03 0 0 .11-.06.18h.17l-.08.05c0 .07-.06 0-.08.09v.18a.46.46 0 0 1 0 .06v.05l-.16.21a1.82 1.82 0 0 1-.42.15 1 1 0 0 1-.3.11v.07h-.08a.11.11 0 0 1 0-.07.57.57 0 0 0-.43.22.16.16 0 0 0 0 .08c0 .06.06 0 .11.07l.06.08s.11 0 .15.06.09.13.13.16a.47.47 0 0 1-.28.45h-.11s-.07.08-.1.1-.07 0-.09 0a.19.19 0 0 1 0-.11c0-.12-.14-.08-.2-.14l-.07-.12a.13.13 0 0 0-.09 0h-.11v.32a.19.19 0 0 0-.12 0v.4a.15.15 0 0 1 .1 0s0 .06.07.12a1.1 1.1 0 0 1 .32.14.25.25 0 0 1 0 .2c0 .09.08.12.13.17a.1.1 0 0 1 0 .05.93.93 0 0 1-.47-.27c-.08-.13 0-.24-.18-.3H22a1.14 1.14 0 0 1 0-.26.81.81 0 0 0 0-.21h-.09a1.57 1.57 0 0 0-.08-.42c-.07 0-.22.19-.35.08a1.24 1.24 0 0 1-.1-.34h-.08c0-.05-.08-.16-.06-.23h-.08C21 12.95 21 13 21 13s-.26 0-.37.07 0 .06 0 .08-.2.1-.27.13-.19.16-.29.21h-.08l-.06.05h-.16v.1c0 .03 0 .17-.09.21a1.93 1.93 0 0 1 0 .2h-.06a.55.55 0 0 1-.08.1s-.11 0-.15.08c-.23 0-.21-.18-.27-.35a1.19 1.19 0 0 0-.08-.11c0-.07 0-.13-.07-.2a2.69 2.69 0 0 1-.15-.3.87.87 0 0 1 0-.38.35.35 0 0 1-.23.08 1.35 1.35 0 0 1-.18-.19.37.37 0 0 1 .16 0h-.1c-.01 0 0 0 0 0a1.47 1.47 0 0 1-.27-.28 1.5 1.5 0 0 1-.81-.22l-.1-.15h-.16a1.19 1.19 0 0 1-.26-.26c-.1-.16 0-.31-.26-.32v.13a1 1 0 0 1 0 .13s.07.09.08.13 0 .13 0 .18a.31.31 0 0 0 0-.08h.07v.11c0 .02.3.11.4.06a1 1 0 0 0 .06.15c0 .06.07 0 .12.07s0 .14.11.17-.13.11-.2.17 0 .08 0 .11a.55.55 0 0 1-.24.11h-.17s-.06.08-.11.1a2.09 2.09 0 0 1-.44 0h-.19a.14.14 0 0 1-.1 0 1 1 0 0 0-.07-.29v-.33c0-.11-.09-.21-.11-.32s0-.1 0-.13a1.26 1.26 0 0 0-.06-.13v-.23a1.62 1.62 0 0 1-.08-.4v-.21a.87.87 0 0 0 0 .36v.3a1.56 1.56 0 0 1 0 .32 2 2 0 0 0 0 .26s.07.1.09.12v.3l.1.1a1.9 1.9 0 0 1 .08.22L16 13a.74.74 0 0 1 .12.18c.12 0 .42.09.48.06a.19.19 0 0 1 .1 0 .59.59 0 0 1-.1.27s-.08 0-.11.08l-.1.2c-.11 0-.13.13-.21.18h-.15a1.43 1.43 0 0 0-.21.18s0 .1-.06.13.06.11.08.16.15.4.21.53 0 .14.05.19-.13.12-.21.14a6.58 6.58 0 0 0 9.47 1.71.11.11 0 0 1-.09 0v-.08c0-.02 0 0-.06 0s0 0 0-.07a.48.48 0 0 0-.18.13.42.42 0 0 1 0-.07c-.16 0-.2 0-.33.07l-.29.07-.3.18h-.28s-.05.05-.08.07a.46.46 0 0 1-.37 0s.05 0 .08-.06 0-.36-.07-.4h.19l-.12-.07a.27.27 0 0 1 0-.13s.13-.11.2-.15c.26-.11.69-.13.75-.43h.07s.05-.08.09-.11.13 0 .16 0 0 0 0-.06a.26.26 0 0 1 .13-.1.24.24 0 0 1 .11 0v.07s.13-.11.21-.06a1 1 0 0 1 .13-.23s.09 0 .12-.06.07-.11.13-.13.06 0 .08 0a.29.29 0 0 0 .24-.07 1.16 1.16 0 0 1-.19.28h.24c.07 0 .22-.34.29-.5a1.85 1.85 0 0 1 .28-.1.52.52 0 0 1 0 .25h.06a1.25 1.25 0 0 1 0 .3h.1a.37.37 0 0 1 0 .23v.07a6.57 6.57 0 0 0-1.3-9.3l-.05-.05h-.09a.71.71 0 0 1-.22-.18l-.21-.13v.06a.49.49 0 0 1-.18-.11s0-.07-.07-.09S24.3 6 24.23 6s0-.06 0-.08a1 1 0 0 0-.23-.09 1.55 1.55 0 0 1-.18-.11.5.5 0 0 1-.11 0l-.52-.17m-2.9 0h-.06m-.24 0zm.76-.09a.25.25 0 0 1-.11 0h-.15.1a.15.15 0 0 0 0 .11c.09.07.21 0 .29-.06h.16a2.75 2.75 0 0 1 .62-.12h.75l-.4-.05h-.73a1.15 1.15 0 0 0-.55.08" fill="none"/></clipPath><radialGradient id="radial-gradient" cx="-215.4" cy="435.69" r="1" gradientTransform="matrix(7.98 0 0 -7.98 1739.2 3483.47)" gradientUnits="userSpaceOnUse"><stop offset="0" stop-color="#fffffe"/><stop offset="1" stop-color="#060e9f"/></radialGradient></defs><path class="cls-2" d="M9.21 2.44h4.89V11a13.22 13.22 0 0 1-.49 4.11 4.65 4.65 0 0 1-1.93 2.39 6.43 6.43 0 0 1-3.7 1 8.56 8.56 0 0 1-3.7-.64 4.71 4.71 0 0 1-2-1.88 7.2 7.2 0 0 1-.84-3.08l4.65-.63a5.37 5.37 0 0 0 .19 1.55 1.69 1.69 0 0 0 .59.82 1.32 1.32 0 0 0 .79.21 1.3 1.3 0 0 0 1.19-.6 4 4 0 0 0 .39-2.05zM29.11 2.44h4.42V7.9a4.32 4.32 0 0 1 1.49-1 4.79 4.79 0 0 1 1.85-.35A4.45 4.45 0 0 1 40.32 8a6.16 6.16 0 0 1 1.37 4.31 8.15 8.15 0 0 1-.63 3.3 4.65 4.65 0 0 1-1.74 2.13 4.66 4.66 0 0 1-4.55.2 5.56 5.56 0 0 1-1.57-1.45v1.71h-4.1zm4.38 10a3.39 3.39 0 0 0 .51 2.15 1.8 1.8 0 0 0 1.42.66 1.63 1.63 0 0 0 1.31-.65 3.46 3.46 0 0 0 .54-2.19 3.05 3.05 0 0 0-.53-2 1.55 1.55 0 0 0-1.26-.64 1.84 1.84 0 0 0-1.46.66 3 3 0 0 0-.56 2M42.12 13l4.64-.29a3.52 3.52 0 0 0 .61 1.72 2.58 2.58 0 0 0 2.15 1 2.37 2.37 0 0 0 1.6-.49 1.46 1.46 0 0 0 .57-1.14 1.44 1.44 0 0 0-.54-1.1 6.34 6.34 0 0 0-2.49-.91 10.61 10.61 0 0 1-4.57-1.91 3.84 3.84 0 0 1-1.37-3 4.1 4.1 0 0 1 .69-2.29 4.64 4.64 0 0 1 2.12-1.7 9.88 9.88 0 0 1 3.89-.62A7.91 7.91 0 0 1 54 3.29a4.81 4.81 0 0 1 1.9 3.58l-4.59.27a2.39 2.39 0 0 0-.78-1.55 2.42 2.42 0 0 0-1.61-.49 1.93 1.93 0 0 0-1.28.36 1.09 1.09 0 0 0-.43.88.89.89 0 0 0 .35.67 4.13 4.13 0 0 0 1.64.58A19.65 19.65 0 0 1 53.78 9a4.67 4.67 0 0 1 2 1.74 4.43 4.43 0 0 1 .63 2.33 5 5 0 0 1-.84 2.8 5.32 5.32 0 0 1-2.34 1.95 9.58 9.58 0 0 1-3.8.65q-4 0-5.57-1.54A6.09 6.09 0 0 1 42.12 13M62.76 2.44v4.34h2.41V10h-2.41v4a2.18 2.18 0 0 0 .14 1 .79.79 0 0 0 .76.37 5 5 0 0 0 1.34-.29l.32 3a14.42 14.42 0 0 1-3 .35 5.31 5.31 0 0 1-2.43-.43 2.57 2.57 0 0 1-1.15-1.27 7.6 7.6 0 0 1-.37-2.73v-4h-1.61V6.78h1.62v-2.1zM66.19 6.78h4.1v1.87A4.48 4.48 0 0 1 71.5 7a2.56 2.56 0 0 1 1.56-.47 4.61 4.61 0 0 1 2.12.61l-1.35 3.12a3.48 3.48 0 0 0-1.23-.33 1.51 1.51 0 0 0-1.33.71 7.23 7.23 0 0 0-.68 3.74v3.82h-4.4zM87.86 13.58h-8.78a2.77 2.77 0 0 0 .57 1.57 2.08 2.08 0 0 0 1.66.75 2.52 2.52 0 0 0 1.22-.33 2.78 2.78 0 0 0 .76-.72l4.31.4a6.11 6.11 0 0 1-2.38 2.47 8.6 8.6 0 0 1-4 .75 8.29 8.29 0 0 1-3.57-.63 5.33 5.33 0 0 1-2.16-2 6.2 6.2 0 0 1-.85-3.28 5.77 5.77 0 0 1 1.71-4.33 6.58 6.58 0 0 1 4.75-1.66 8.39 8.39 0 0 1 3.87.75 4.94 4.94 0 0 1 2.16 2.15 7.84 7.84 0 0 1 .75 3.67zm-4.46-2.1a2.89 2.89 0 0 0-.69-1.82 2.13 2.13 0 0 0-3.12.28 3 3 0 0 0-.51 1.53zM101.44 13.58h-8.78a2.87 2.87 0 0 0 .57 1.57 2.08 2.08 0 0 0 1.66.75 2.53 2.53 0 0 0 1.23-.33 2.81 2.81 0 0 0 .76-.72l4.31.4a6.13 6.13 0 0 1-2.39 2.47 8.56 8.56 0 0 1-4 .75 8.31 8.31 0 0 1-3.58-.63 5.37 5.37 0 0 1-2.16-2 6.23 6.23 0 0 1-.85-3.28 5.77 5.77 0 0 1 1.72-4.33 6.56 6.56 0 0 1 4.74-1.66 8.43 8.43 0 0 1 3.88.75 5 5 0 0 1 2.16 2.15 7.79 7.79 0 0 1 .75 3.67zM97 11.47a2.87 2.87 0 0 0-.68-1.82 2 2 0 0 0-1.45-.55 2 2 0 0 0-1.67.83 3.08 3.08 0 0 0-.51 1.53zM107.62 2.44v4.34H110V10h-2.41v4a2.12 2.12 0 0 0 .15 1 .78.78 0 0 0 .75.37 5 5 0 0 0 1.35-.28l.32 3a14.41 14.41 0 0 1-3 .35 5.35 5.35 0 0 1-2.41-.42 2.63 2.63 0 0 1-1.15-1.27 7.71 7.71 0 0 1-.36-2.77V10h-1.62V6.78h1.62v-2.1zM125.88 13.9l4.16.47a5.91 5.91 0 0 1-1.13 2.26 5.21 5.21 0 0 1-2 1.47 7.7 7.7 0 0 1-3.1.53 11.53 11.53 0 0 1-3-.34 5.42 5.42 0 0 1-2.07-1.09 5.6 5.6 0 0 1-1.37-1.79 6.32 6.32 0 0 1-.5-2.71 6.35 6.35 0 0 1 .61-2.93 5.34 5.34 0 0 1 1.2-1.54 5.58 5.58 0 0 1 1.57-1 8.69 8.69 0 0 1 3.28-.53 7.55 7.55 0 0 1 4.26 1 5.23 5.23 0 0 1 2.06 2.92l-4.11.55a1.88 1.88 0 0 0-.72-1.1 2.23 2.23 0 0 0-1.36-.38 2.2 2.2 0 0 0-1.77.79 3.53 3.53 0 0 0-.67 2.35 3.05 3.05 0 0 0 .67 2.13 2.19 2.19 0 0 0 1.7.74 2.32 2.32 0 0 0 1.44-.44 2.63 2.63 0 0 0 .88-1.36M130.4 12.7a5.68 5.68 0 0 1 1.77-4.3 7.64 7.64 0 0 1 9.94.29 5.78 5.78 0 0 1 1.41 3.94 5.75 5.75 0 0 1-1.75 4.32 6.67 6.67 0 0 1-4.83 1.67 6.76 6.76 0 0 1-4.45-1.39 5.6 5.6 0 0 1-2.09-4.53m4.39 0a3.46 3.46 0 0 0 .61 2.26 2 2 0 0 0 1.56.73 1.93 1.93 0 0 0 1.55-.72 3.55 3.55 0 0 0 .61-2.31 3.34 3.34 0 0 0-.61-2.2A1.9 1.9 0 0 0 137 9.7a2 2 0 0 0-1.59.74 3.39 3.39 0 0 0-.62 2.23M144.56 7h4.08v1.62a5.72 5.72 0 0 1 1.77-1.48 4.9 4.9 0 0 1 2.17-.44 4.15 4.15 0 0 1 2.16.48A3.53 3.53 0 0 1 156 8.62a6.63 6.63 0 0 1 1.88-1.52 4.86 4.86 0 0 1 2.1-.4 3.75 3.75 0 0 1 2.87 1.1 4.78 4.78 0 0 1 1 3.4v7.17h-4.39v-6.5a1.85 1.85 0 0 0-.3-1.15 1.33 1.33 0 0 0-1.1-.59 1.56 1.56 0 0 0-1.25.56 2.76 2.76 0 0 0-.47 1.79v5.89H152v-6.29a3.81 3.81 0 0 0-.09-1 1.35 1.35 0 0 0-.48-.69 1.25 1.25 0 0 0-.8-.27 1.55 1.55 0 0 0-1.23.57 2.83 2.83 0 0 0-.49 1.87v5.83h-4.39zM111.82 16.3a2.06 2.06 0 1 1 2.07 2.11 2.09 2.09 0 0 1-2.07-2.11"/><path d="M28 11.83a6.58 6.58 0 1 1-6.58-6.58A6.58 6.58 0 0 1 28 11.83" fill="#00a94f"/><g clip-path="url(#clip-path)"><path fill="url(#radial-gradient)" d="M15.17 5.27H28v13.14H15.17z"/></g><path class="cls-2" d="M27.66 29v-7.7h1.05l4.06 6.07V21.3h1V29h-1.06l-4.07-6v6zM35.21 26.23a2.88 2.88 0 0 1 .87-2.3 2.61 2.61 0 0 1 1.76-.62 2.52 2.52 0 0 1 1.89.76 2.88 2.88 0 0 1 .73 2.09 3.7 3.7 0 0 1-.32 1.7 2.3 2.3 0 0 1-.94 1 2.75 2.75 0 0 1-1.35.34 2.52 2.52 0 0 1-1.9-.75 3 3 0 0 1-.74-2.22zm1 0a2.38 2.38 0 0 0 .47 1.61 1.56 1.56 0 0 0 2.36 0 2.44 2.44 0 0 0 .47-1.64 2.31 2.31 0 0 0-.51-1.57 1.57 1.57 0 0 0-2.36 0 2.37 2.37 0 0 0-.46 1.6zM42 29v-1h1.08v1zM51.53 29h-.95v-6a4.9 4.9 0 0 1-.9.65 6.39 6.39 0 0 1-1 .49v-.92a5.73 5.73 0 0 0 1.39-.91 3.57 3.57 0 0 0 .84-1h.61zM57.25 26.84l.92-.13a2 2 0 0 0 .33 1.21 1 1 0 0 0 .82.33 1.21 1.21 0 0 0 .66-.18.9.9 0 0 0 .39-.48 3.2 3.2 0 0 0 .11-1V21.3h1v5.27a3.83 3.83 0 0 1-.24 1.5 1.67 1.67 0 0 1-.74.81 2.45 2.45 0 0 1-1.2.28 2 2 0 0 1-1.56-.59 2.42 2.42 0 0 1-.49-1.73zM62.91 26.23a2.88 2.88 0 0 1 .87-2.3 2.61 2.61 0 0 1 1.76-.62 2.52 2.52 0 0 1 1.89.76 2.88 2.88 0 0 1 .73 2.09 3.7 3.7 0 0 1-.32 1.7 2.3 2.3 0 0 1-.94 1 2.75 2.75 0 0 1-1.35.34 2.52 2.52 0 0 1-1.9-.75 3 3 0 0 1-.74-2.22zm1 0a2.38 2.38 0 0 0 .47 1.61 1.56 1.56 0 0 0 2.36 0 2.44 2.44 0 0 0 .47-1.64 2.31 2.31 0 0 0-.47-1.57 1.57 1.57 0 0 0-2.36 0 2.37 2.37 0 0 0-.5 1.6zM70.35 29h-.88v-7.7h.95v2.76A1.88 1.88 0 0 1 72 23.3a2.35 2.35 0 0 1 1 .21 2 2 0 0 1 .76.59 2.82 2.82 0 0 1 .47.91 3.74 3.74 0 0 1 .17 1.14 3.2 3.2 0 0 1-.71 2.23 2.23 2.23 0 0 1-1.71.79 1.78 1.78 0 0 1-1.56-.83zm0-2.84a2.9 2.9 0 0 0 .27 1.46 1.36 1.36 0 0 0 2.29.19 2.46 2.46 0 0 0 .45-1.61 2.5 2.5 0 0 0-.44-1.62 1.33 1.33 0 0 0-1.05-.52 1.37 1.37 0 0 0-1.08.54 2.37 2.37 0 0 0-.45 1.59zM78.68 26.55l1-.08a2.13 2.13 0 0 0 .32 1 1.74 1.74 0 0 0 .78.6 2.94 2.94 0 0 0 1.19.23 2.84 2.84 0 0 0 1-.17 1.43 1.43 0 0 0 .67-.48 1.11 1.11 0 0 0 .22-.66 1 1 0 0 0-.21-.64 1.56 1.56 0 0 0-.7-.46 13.51 13.51 0 0 0-1.38-.38 7.06 7.06 0 0 1-1.49-.51 2.1 2.1 0 0 1-.83-.72 1.76 1.76 0 0 1-.27-1 2 2 0 0 1 .33-1.09 2.06 2.06 0 0 1 1-.77 3.69 3.69 0 0 1 1.42-.26 3.88 3.88 0 0 1 1.52.28 2.19 2.19 0 0 1 1 .82 2.34 2.34 0 0 1 .38 1.22l-1 .07a1.58 1.58 0 0 0-.54-1.11 2.08 2.08 0 0 0-1.35-.37 2.16 2.16 0 0 0-1.35.34 1 1 0 0 0-.43.82.88.88 0 0 0 .3.69 4.07 4.07 0 0 0 1.54.55 10.26 10.26 0 0 1 1.71.49 2.34 2.34 0 0 1 1 .79 1.92 1.92 0 0 1 .32 1.1 2.1 2.1 0 0 1-.34 1.15 2.32 2.32 0 0 1-1 .85 3.54 3.54 0 0 1-1.49.3 4.45 4.45 0 0 1-1.76-.31 2.47 2.47 0 0 1-1.11-.92 2.6 2.6 0 0 1-.45-1.37zM86.34 22.39V21.3h.95v1.09zm0 6.64v-5.6h.95V29zM91 28.18l.14.84a3.51 3.51 0 0 1-.72.08 1.62 1.62 0 0 1-.8-.16.91.91 0 0 1-.4-.43 3.4 3.4 0 0 1-.12-1.12v-3.22h-.7v-.74h.7V22l.94-.57v2h1v.74h-1v3.27a1.66 1.66 0 0 0 0 .52.4.4 0 0 0 .16.18.64.64 0 0 0 .33.07zM96 27.23l1 .12a2.4 2.4 0 0 1-.86 1.33 2.92 2.92 0 0 1-3.55-.28 3 3 0 0 1-.72-2.12 3.09 3.09 0 0 1 .73-2.19 2.47 2.47 0 0 1 1.89-.78 2.4 2.4 0 0 1 1.84.76 3 3 0 0 1 .67 2.15v.25h-4.18a2.15 2.15 0 0 0 .52 1.41 1.55 1.55 0 0 0 1.17.49 1.45 1.45 0 0 0 .89-.27 1.83 1.83 0 0 0 .6-.87zm-3.12-1.53H96a1.9 1.9 0 0 0-.36-1.06 1.45 1.45 0 0 0-1.18-.55 1.51 1.51 0 0 0-1.1.44 1.74 1.74 0 0 0-.48 1.16zM101.6 22.39V21.3h.95v1.09zm0 6.64v-5.6h.95V29zM104.2 29v-5.6h.86v.8a2 2 0 0 1 1.78-.92 2.33 2.33 0 0 1 .93.18 1.46 1.46 0 0 1 .64.48 1.82 1.82 0 0 1 .3.7 5.43 5.43 0 0 1 .05.92V29h-.95v-3.37a2.57 2.57 0 0 0-.11-.87.92.92 0 0 0-.39-.46 1.25 1.25 0 0 0-.66-.17 1.54 1.54 0 0 0-1 .38 1.9 1.9 0 0 0-.44 1.46V29zM113.41 26.55l1-.08a2.13 2.13 0 0 0 .32 1 1.74 1.74 0 0 0 .78.6 2.94 2.94 0 0 0 1.19.23 2.84 2.84 0 0 0 1-.17 1.43 1.43 0 0 0 .67-.48 1.11 1.11 0 0 0 .22-.66 1 1 0 0 0-.21-.64 1.56 1.56 0 0 0-.7-.46 13.51 13.51 0 0 0-1.38-.38 7.06 7.06 0 0 1-1.5-.51 2.1 2.1 0 0 1-.83-.72 1.76 1.76 0 0 1-.27-1 2 2 0 0 1 .3-1.08 2.06 2.06 0 0 1 1-.77 3.69 3.69 0 0 1 1.42-.26 3.88 3.88 0 0 1 1.52.28 2.19 2.19 0 0 1 1 .82 2.34 2.34 0 0 1 .38 1.22l-1 .07a1.58 1.58 0 0 0-.54-1.11 2.08 2.08 0 0 0-1.35-.37 2.16 2.16 0 0 0-1.35.34 1 1 0 0 0-.43.82.88.88 0 0 0 .3.69 4.07 4.07 0 0 0 1.54.55 10.26 10.26 0 0 1 1.71.49 2.34 2.34 0 0 1 1 .79 1.92 1.92 0 0 1 .32 1.1 2.1 2.1 0 0 1-.35 1.16 2.32 2.32 0 0 1-1 .85 3.54 3.54 0 0 1-1.49.3 4.45 4.45 0 0 1-1.76-.31 2.47 2.47 0 0 1-1.11-.92 2.6 2.6 0 0 1-.4-1.39zM121.06 22.39V21.3h.94v1.09zm0 6.64v-5.6h.94V29zM123.67 29v-5.6h.86v.8a2 2 0 0 1 1.78-.92 2.33 2.33 0 0 1 .93.18 1.46 1.46 0 0 1 .64.48 1.82 1.82 0 0 1 .3.7 5.43 5.43 0 0 1 .05.92V29h-.95v-3.37a2.57 2.57 0 0 0-.11-.87.92.92 0 0 0-.39-.46 1.25 1.25 0 0 0-.66-.17 1.54 1.54 0 0 0-1 .38 1.9 1.9 0 0 0-.44 1.46V29zM129.71 29.5l.92.14a.88.88 0 0 0 .32.62 1.58 1.58 0 0 0 1 .26 1.7 1.7 0 0 0 1-.26 1.3 1.3 0 0 0 .48-.74 6 6 0 0 0 .07-1.22 2 2 0 0 1-1.55.73 2.12 2.12 0 0 1-1.79-.83 3.21 3.21 0 0 1-.63-2 3.72 3.72 0 0 1 .29-1.48 2.32 2.32 0 0 1 .84-1 2.27 2.27 0 0 1 1.29-.37 2 2 0 0 1 1.64.8v-.68h.88v4.84a4.58 4.58 0 0 1-.27 1.85 2 2 0 0 1-.84.86 2.93 2.93 0 0 1-1.42.32 2.68 2.68 0 0 1-1.62-.45 1.52 1.52 0 0 1-.61-1.39zm.79-3.36a2.43 2.43 0 0 0 .44 1.61 1.39 1.39 0 0 0 1.1.51 1.4 1.4 0 0 0 1.1-.5 2.35 2.35 0 0 0 .44-1.58 2.29 2.29 0 0 0-.46-1.55 1.41 1.41 0 0 0-1.1-.52 1.37 1.37 0 0 0-1.08.51 2.29 2.29 0 0 0-.45 1.51zM139.75 28.34a3.54 3.54 0 0 1-1 .63 2.94 2.94 0 0 1-1 .18 2 2 0 0 1-1.42-.45 1.49 1.49 0 0 1-.5-1.15 1.53 1.53 0 0 1 .19-.75 1.55 1.55 0 0 1 .49-.55 2.29 2.29 0 0 1 .68-.31 6.82 6.82 0 0 1 .84-.14 8.69 8.69 0 0 0 1.69-.33v-.25a1 1 0 0 0-.27-.82 1.59 1.59 0 0 0-1.08-.32 1.68 1.68 0 0 0-1 .23 1.44 1.44 0 0 0-.47.83l-.93-.13a2.29 2.29 0 0 1 .42-1 1.83 1.83 0 0 1 .84-.56 3.75 3.75 0 0 1 1.27-.2 3.36 3.36 0 0 1 1.17.17 1.54 1.54 0 0 1 .66.42 1.49 1.49 0 0 1 .3.65 5.26 5.26 0 0 1 0 .88v1.27a13.54 13.54 0 0 0 .06 1.67 2.09 2.09 0 0 0 .24.67h-1a2 2 0 0 1-.18-.64zm-.08-2.12a7 7 0 0 1-1.55.36 3.57 3.57 0 0 0-.83.19.83.83 0 0 0-.38.31.84.84 0 0 0 .16 1.08 1.24 1.24 0 0 0 .84.25 2 2 0 0 0 1-.24 1.48 1.48 0 0 0 .63-.66 2.3 2.3 0 0 0 .15-.95zM142.31 31.18v-7.75h.87v.73a2.12 2.12 0 0 1 .69-.64 1.9 1.9 0 0 1 .93-.21 2.22 2.22 0 0 1 1.27.37 2.27 2.27 0 0 1 .83 1 3.82 3.82 0 0 1 .28 1.47 3.75 3.75 0 0 1-.31 1.55 2.35 2.35 0 0 1-2.13 1.42 1.79 1.79 0 0 1-.85-.2 1.93 1.93 0 0 1-.62-.51v2.73zm.86-4.92a2.44 2.44 0 0 0 .44 1.6 1.34 1.34 0 0 0 1.06.52 1.37 1.37 0 0 0 1.08-.54 2.54 2.54 0 0 0 .45-1.66 2.47 2.47 0 0 0-.44-1.6 1.33 1.33 0 0 0-1.05-.53 1.37 1.37 0 0 0-1.07.57 2.53 2.53 0 0 0-.47 1.64zM148.18 26.23a2.88 2.88 0 0 1 .87-2.3 2.61 2.61 0 0 1 1.76-.62 2.52 2.52 0 0 1 1.89.76 2.88 2.88 0 0 1 .73 2.09 3.7 3.7 0 0 1-.32 1.7 2.3 2.3 0 0 1-.94 1 2.76 2.76 0 0 1-1.35.34 2.52 2.52 0 0 1-1.9-.75 3 3 0 0 1-.74-2.22zm1 0a2.38 2.38 0 0 0 .47 1.61 1.57 1.57 0 0 0 2.36 0 2.45 2.45 0 0 0 .47-1.64 2.31 2.31 0 0 0-.47-1.57 1.57 1.57 0 0 0-2.36 0 2.37 2.37 0 0 0-.5 1.6zM154.73 29v-5.6h.86v.85a2.32 2.32 0 0 1 .6-.79 1.06 1.06 0 0 1 .61-.19 1.85 1.85 0 0 1 1 .31l-.33.88a1.36 1.36 0 0 0-.7-.21.91.91 0 0 0-.56.19 1 1 0 0 0-.35.52 3.69 3.69 0 0 0-.16 1.11V29zM162.39 27.23l1 .12a2.4 2.4 0 0 1-.86 1.33 2.92 2.92 0 0 1-3.53-.28 3 3 0 0 1-.72-2.12 3.09 3.09 0 0 1 .73-2.19 2.47 2.47 0 0 1 1.89-.78 2.4 2.4 0 0 1 1.84.76 3 3 0 0 1 .71 2.15v.25h-4.18a2.15 2.15 0 0 0 .52 1.41 1.55 1.55 0 0 0 1.17.49 1.45 1.45 0 0 0 .89-.27 1.83 1.83 0 0 0 .54-.87zm-3.12-1.53h3.13a1.9 1.9 0 0 0-.36-1.06 1.45 1.45 0 0 0-1.18-.55 1.51 1.51 0 0 0-1.1.44 1.74 1.74 0 0 0-.49 1.16z"/></svg>