<svg id="Layer_1" data-name="Layer 1" xmlns="http://www.w3.org/2000/svg" width="165" height="33"><defs><style>.cls-2{fill:#1c3f94}</style><clipPath id="clip-path"><path d="M25.66 17.88l.11-.09a.24.24 0 0 0-.11.09m-9.64-6zm0 0zm2.24-.81zm.13-.28h-.12c-.04 0 0 .07-.07.11h.19a.07.07 0 0 0 0-.06s-.07 0-.1.06m-.69-.33a.25.25 0 0 0-.09 0 .18.18 0 0 1-.11 0v.11a.14.14 0 0 0 0 .06v.09a.12.12 0 0 0 0 .09.17.17 0 0 1 0 .07v.07l-.05.07v.07l.06.07h.24v-.05a.13.13 0 0 1 0-.06.1.1 0 0 0 0-.06.3.3 0 0 1 0-.05h.05a.15.15 0 0 0 0-.05v-.06-.05h-.06a.49.49 0 0 1 0-.05h.12v-.06c0-.06.07 0 .1 0h.06v-.06-.05H17.8a.13.13 0 0 0-.07 0zm.66-.45l-.06.05-.07.06s-.07 0-.08.07h.08v-.07h.08v-.05h-.07m-2.17.44h.06zm.34-.48h-.05a.63.63 0 0 0-.11.11v.07a.15.15 0 0 1 0 .08h-.05v-.05-.05.06h.17c.06 0 .08.06.11.11v.07H16.6a.21.21 0 0 0 0-.08v-.09a.09.09 0 0 0 0-.07.31.31 0 0 1 0-.07.44.44 0 0 1 0-.07V10l.06-.05v-.06c0-.06 0 0 0 0h.24-.06c-.06 0 0 .1 0 .13a.06.06 0 0 0-.05 0h-.07s.06-.09.06-.15-.07 0-.09-.05h-.09m2.14-.23a.15.15 0 0 1 0 .07h-.06v.07a.06.06 0 0 0 .05 0h.06a.19.19 0 0 0 0-.08M16 9.73v.32a2 2 0 0 0 0-.23c0-.17 0-.31.1-.4a2.83 2.83 0 0 0-.14.34m.23 1.47a.21.21 0 0 1 0-.07h.17a.15.15 0 0 1 0 .07h-.13m-.34-.28l-.07-.06v-.1a.25.25 0 0 1 .08.18m.1-1.61l-.08.14a.13.13 0 0 1 0 .1 6.52 6.52 0 0 0-.4.94V11s.06-.1.08-.14.06.1.1.21a1.56 1.56 0 0 0 .19.31H16v.05c.27 0 .25-.26.38-.4a.21.21 0 0 0-.07-.06h-.15V11s-.06 0-.09-.09 0 0-.06 0a1.43 1.43 0 0 1 .06-.23.12.12 0 0 1 0-.06h.05s.09-.1 0-.2 0 .05 0 .06a.32.32 0 0 0 0-.09.29.29 0 0 0 0 .22.19.19 0 0 1-.14.17v-.13-.07c0-.07 0 0 0 0a.58.58 0 0 1 0-.1h.07v-.25c0-.09 0 0-.07 0s-.05.12-.15.12 0 0 0 .05a.31.31 0 0 1 0-.21v.08c.15-.05.08-.28.13-.45a2.27 2.27 0 0 0 .04-.46zm7.89-.5zm-6-.41V8.4m.2 0v.05a.12.12 0 0 0 0-.06v-.06M19.71 8.27a.55.55 0 0 0-.28.16l-.13.1a.77.77 0 0 0-.11.13s0 .11-.07.16L19 9l-.06.09a.34.34 0 0 0 0 .08.5.5 0 0 0 0 .08.37.37 0 0 1-.09.13.64.64 0 0 1-.13.12c-.05 0-.11 0-.13.09a.16.16 0 0 1 0 .07h-.07c-.05 0-.08.08-.12.12s0 0 0 .06 0 0 .05 0a.62.62 0 0 0 .17-.1 1.47 1.47 0 0 0 .21-.17l.08-.09.08-.08v-.1a.43.43 0 0 1 .01-.04.2.2 0 0 0 .06-.1v-.11a.15.15 0 0 1 .1-.05.28.28 0 0 0 .08-.1.67.67 0 0 1 0-.11.3.3 0 0 1 .11-.1l.1-.08.09-.09a.72.72 0 0 0 .11-.08M23.61 7.9zm-2 0H21.32V8.02h.45v-.18h-.09M20.81 6.34h-.16a.18.18 0 0 0 .16 0m3.39 10h.06-.09zm.16 0h.06-.06m.12 0c0-.06.14 0 .2-.08 0 .08-.13 0-.2.09m-.36-.1h.09H24h.18a1 1 0 0 1-.24 0 1.17 1.17 0 0 0-.27 0 1 1 0 0 1-.4 0 .65.65 0 0 0-.17 0 .44.44 0 0 1 .38-.08.5.5 0 0 0 .29 0 .47.47 0 0 1 .17 0H24a.22.22 0 0 0 .12 0m1.63 0l-.06.06zm-.94 0c.06 0 .18 0 .24-.07 0 .07-.16 0-.23.09zm.62-.15a1 1 0 0 0-.31.21c0-.13.2-.16.29-.22M16.89 16.83s0-.09-.05-.14-.08-.08-.09-.12v-.14a1.13 1.13 0 0 1-.1-.22c.11 0 .21-.06.24-.17v.12s.07.07.09.13a.37.37 0 0 1 0 .16 1 1 0 0 0 0 .41.31.31 0 0 1 0 .1.31.31 0 0 1-.22-.08m8.49-.87h.11-.09zm-2 0h.1-.1m-.16-.01c.09 0 .09 0 .17.07-.11 0-.1-.05-.16-.09m3.43-.3a.13.13 0 0 1 0 .05v-.05m-1.07 0h.11-.11zm-.33 0h.08v.05h-.06m-3.31-.05h.11a.18.18 0 0 1-.11 0m3.86 0l.15-.07h.07-.18zm-.24-.05zm.41-.13a.15.15 0 0 1 0 .06h-.07v-.06m-3.25.63s0-.08-.06-.1-.11 0-.15-.09 0-.09-.06-.14-.11-.05-.16-.08a.86.86 0 0 1-.16-.14h-.12a.87.87 0 0 1 .36 0s0 .07.07.09h.1l.15.16h.12c.08 0 .14.1.21.13a.11.11 0 0 1 0 .06.06.06 0 0 1 .05 0L23 16l.16.07v.2a.58.58 0 0 1-.5-.21m2.15-.19h-.07c0-.18.14-.2.16-.33s.08-.06.13-.09h.16a.38.38 0 0 0 .24-.14c0 .18-.37.19-.52.27a.11.11 0 0 0 0 .08.44.44 0 0 0 .27-.1h.05s-.15.08-.25.1 0 .13.12.14-.06.07-.11.08l-.08-.13V16c0 .09-.05 0-.08 0a.54.54 0 0 1 0-.15M27.19 15.17h.16c0 .1.1.07.14.14l-.21.06a.13.13 0 0 1 0-.05.36.36 0 0 0-.27.07s-.14 0-.23.1-.11-.12-.14-.17a1.25 1.25 0 0 1-.24 0h-.12c-.04 0 0 0 0 0a.22.22 0 0 1-.08-.06.35.35 0 0 0 .14-.05H26h-.07c.05 0 .28-.12.33-.08s0 0 0 .06h.07c.06 0 .18-.14.2-.19h.51m-1.3 0c0 .07 0 .07-.07.1h.06-.1c-.04 0 0 .07 0 .09s0-.15-.1-.17.06-.08.08-.13a.14.14 0 0 1 0 .07.34.34 0 0 0 .12-.09M25.7 14.81a.1.1 0 0 1 0 .05.15.15 0 0 1 0-.05m-1.84.5s.2-.13.28-.19.08-.11.11-.14.11 0 .15-.07 0-.11.08-.15.14.08.3.08-.06 0-.1.05h-.06a.17.17 0 0 0 0 .18c0 .05.06 0 .1.08a.46.46 0 0 0-.18.11V15.49a.47.47 0 0 1-.18.13h-.16c-.06 0-.2.38-.2.38h-.1a.25.25 0 0 0-.18 0h-.05l.08-.15h-.13c-.04 0 0 0 0 0s-.06 0-.07-.07 0 0 0-.06.23-.16.32-.08zM20 15.24h-.06c0-.13.05-.15.08-.26s.14.14.21.21 0 0 0 .06a.13.13 0 0 1-.12.07.14.14 0 0 1-.1 0m5.36-.58l.06-.07a.31.31 0 0 1 0 .1.2.2 0 0 1 0 .13v.14a.07.07 0 0 0-.07 0h-.07v-.13a.44.44 0 0 0-.28.13c.06-.12.13-.13.22-.21M25.04 14.71v.16c0-.09 0-.11.07-.17m.05.09a.18.18 0 0 1 0-.09s0 .06.09.06h-.1m-.2-.17h.15a.14.14 0 0 1 0 .07c0 .05-.06.05-.1.09s0-.11 0-.15m.28 0h.05a.13.13 0 0 1 0 .1h.07-.13v-.05h-.06m-.17-.14h.06-.1a.16.16 0 0 1 0-.06m-.3 0a.14.14 0 0 1 .09 0c-.1 0-.1 0-.16-.08m.45 0s.05 0 .08.07a.19.19 0 0 1 0 .08c-.11 0-.05 0-.09-.07zM23.54 14a.21.21 0 0 1 0-.11.67.67 0 0 1 .24 0c0 .07 0 .09-.07.13H23.5m1.33.19c-.08 0-.09-.1-.11-.18h.07a.52.52 0 0 0 0-.18 1.49 1.49 0 0 0 .2-.06c0 .09 0 .24-.1.28a.2.2 0 0 0 0 .09h.32a.16.16 0 0 1-.09 0 .11.11 0 0 0 0 .05c-.07 0-.06-.05-.15-.05s0 0 0 .05-.06 0-.08-.07h-.1m-.07-.81c0-.13.05-.16.08-.24a.62.62 0 0 1 0 .25h-.05m.3-1.26h.09-.09m.46-.14h.09v.18a.1.1 0 0 1 0 .1h-.08v-.17c-.06 0 0 0-.07.05a.3.3 0 0 1 .09-.16m.15 0a.88.88 0 0 0 .13-.11.3.3 0 0 1-.1.16h-.06m.34-.49s.06-.05.08-.11S26 11.14 26 11a.16.16 0 0 0 0-.08.46.46 0 0 0 .15.18v.27c0 .09.06.12.06.14v.12a.87.87 0 0 1-.26.1.39.39 0 0 1-.08.14v-.12c0-.03-.2.07-.25.12a.41.41 0 0 1 .13-.2.25.25 0 0 1 .14 0v-.27a.15.15 0 0 1 0 .07zm.12-.95s0 .06.08.08-.1.12 0 .19-.06 0-.08 0a.12.12 0 0 0-.09 0v.09a.14.14 0 0 1-.08-.07v-.13h.07c0-.08-.06-.1-.07-.19h.15a.1.1 0 0 0 .08 0M26.33 10.29v.14a.56.56 0 0 1 0-.15m-.64-.2s0-.12-.07-.16h-.07a.86.86 0 0 1-.18-.32.51.51 0 0 0 .08.09v.12h.08a2 2 0 0 0 .27.28h-.08l.2.2h-.07a.06.06 0 0 0 0 .05l-.23-.38m.74-.52v0m-2.86-.57zm2.38-.24zM23 8.44a.11.11 0 0 1 0-.05.16.16 0 0 1 0 .05m0-.37a.31.31 0 0 1 .11.08H23m.21-.33a.13.13 0 0 1 .09 0h-.08c-.02 0 0-.05-.06-.08M22.82 7.63zm.36-.05a.29.29 0 0 1 .19 0v.05a.48.48 0 0 1-.18-.05m-.26-.08h.16v.06s-.09.07-.13.09l-.1-.06s0-.07-.07-.1 0 0 .09 0zm-2.62-.07h.08v.06H19.98l-.09.05-.09.06-.1.09a.11.11 0 0 1 0 .07v-.08a.06.06 0 0 1 0-.06.3.3 0 0 1 .07-.06l.11-.08H20l.08-.05H20.23a.59.59 0 0 0 .19 0m1.07 0a.12.12 0 0 1 0-.06v-.09l.08.09v.07l-.09.07m0-.49v.17a.42.42 0 0 1 0 .19H21.33a.12.12 0 0 1 0-.06v-.06a.15.15 0 0 1 0-.05.24.24 0 0 0 0-.06.13.13 0 0 0 0-.08h.07m-.76 0a.49.49 0 0 0 0-.07h.29-.06a.28.28 0 0 1-.16.05h-.09m-1.1-.03l.11-.07a2.38 2.38 0 0 0 .24-.12.51.51 0 0 1 .21 0h.13H20l-.11.08h-.14v-.07c0-.02 0 0 0 0h-.14m4-.65s0 .11.07.14l.12.05v.06c0 .06.07 0 .09.08s0 .06 0 .1l.23.21h-.16a2.75 2.75 0 0 1-.6 0 1.9 1.9 0 0 0-.51 0c-.05 0-.1.09-.16.11h-.29a.44.44 0 0 1-.3 0h-.14a.48.48 0 0 1-.29-.18 1.66 1.66 0 0 0-.25 0 .29.29 0 0 0-.11-.06.26.26 0 0 1 0-.09 1.66 1.66 0 0 0-.34-.12.29.29 0 0 0-.14 0h-.17c0-.05.07-.07.11-.09s-.62-.14-.81-.13a.25.25 0 0 1-.14 0l-.4.11h-.1a6.6 6.6 0 0 0-2.67 2h.11a.09.09 0 0 0 .11-.07.53.53 0 0 1 .08-.16.13.13 0 0 1 .06 0 .1.1 0 0 1 .07 0 .24.24 0 0 1 0 .07h-.05c-.05 0-.06 0-.06.05s0 0-.07.06a.05.05 0 0 1 0 .06v.05h.07v.06c0 .06.09 0 .11-.07s.09-.07.13 0 0 0 .05 0 .05-.06.06-.09 0-.06.06-.06h.31a.11.11 0 0 0 0-.09c0-.06-.14 0-.19-.06a.09.09 0 0 1 0-.09.18.18 0 0 1 .07-.09 2.55 2.55 0 0 1 .26-.15l.1-.07L18 8a.18.18 0 0 0 .08-.06v-.06a.14.14 0 0 0-.1 0l-.09.07h-.09l-.1.05c-.06 0-.1.1-.17.13h-.08l-.07.06a.08.08 0 0 1-.07 0 .55.55 0 0 1 0 .07H17.19l-.06.05a.35.35 0 0 1-.13.08h-.07c-.01 0 0-.05 0-.07v-.13a.23.23 0 0 1 .1-.1h.07v-.06a.14.14 0 0 1 .05-.06v-.05c0-.05-.06 0-.06 0v.05h-.1V8H17.81a.67.67 0 0 0-.12.12h.1l.08-.06h.19-.11s-.08 0-.08.05h.09v.06a.14.14 0 0 0 0 .06v.08a.11.11 0 0 1 0 .07.16.16 0 0 1-.07 0 .21.21 0 0 1-.08 0h-.13s-.06 0 0 .06 0 0 0 .06v.07a.07.07 0 0 0 .08 0V8.5v.06a.06.06 0 0 0 .07 0v-.08h.12a.12.12 0 0 1 0 .07s.07-.08.11-.11h.12c.06 0 0 0 0 .06h-.07v.06h.23-.06.41a.17.17 0 0 1 .11 0 .08.08 0 0 1 .06.07.34.34 0 0 0 0 .1h.06c.06 0 0 0 0-.07a.25.25 0 0 1 0-.1 1.32 1.32 0 0 1 .17-.23.59.59 0 0 1 .09-.09.09.09 0 0 1 .1 0 .07.07 0 0 1 0 .1l-.07.1v.1l-.07.09a.11.11 0 0 0 0 .09.1.1 0 0 1 0 .09.16.16 0 0 1-.07.06.18.18 0 0 1-.1 0 .23.23 0 0 0-.12 0l-.13.08a.47.47 0 0 0-.12.1.16.16 0 0 0 0 .11.17.17 0 0 1 0 .09l-.07.1a.1.1 0 0 0 0 .11.17.17 0 0 0 .11.07v-.06c0-.06.87-.47.88-.47a.43.43 0 0 1 .05-.11.28.28 0 0 0 0-.06s0-.05.06-.07a.58.58 0 0 1 .11-.09.15.15 0 0 1 .12 0 .15.15 0 0 0 .12 0l.1-.07a.23.23 0 0 0 .06-.09s0-.06.06-.07a.13.13 0 0 1 .1.07.1.1 0 0 1 0 .1v.07c0 .02 0 0 .06 0h.07c.07 0 0 0 0-.05a.21.21 0 0 1 0-.14.07.07 0 0 0 0-.07.16.16 0 0 0-.07 0 .15.15 0 0 1-.08 0V8.3a.1.1 0 0 0 0-.07v-.05l.1-.18a.14.14 0 0 0 0-.07s0-.07.05-.05 0 .07 0 .09a.1.1 0 0 0 0 .08.1.1 0 0 0 0 .07s0-.06.06-.08 0 0 .08 0h.07v.06a.05.05 0 0 0 0 .07h.08c.01 0 0 0 0 0a.11.11 0 0 1 0-.07.07.07 0 0 1 0-.07h.07a.06.06 0 0 1 .06 0h.12v.06c0 .06 0 0 .06 0h.06a.52.52 0 0 1 .1-.15h.13a.2.2 0 0 1 0 .06.29.29 0 0 1 .26 0 .38.38 0 0 0 0 .17c0 .05-.07.06-.1.1s0 0 .09 0h.09c.04 0 0 0 0 0a1 1 0 0 0 .28 0 .11.11 0 0 0 0 .07V8a.75.75 0 0 0 .22 0s-.05 0-.06-.11h.17a.15.15 0 0 0 0 .06h.1l.07.06.08.07v.14a.1.1 0 0 0 0 .06.17.17 0 0 0 0 .09.1.1 0 0 0 0 .05.22.22 0 0 0 .08.08l.07.06h.22a.44.44 0 0 1 .19.14c0-.05-.08-.09-.12-.12h.16a.46.46 0 0 0-.19 0h-.28a.08.08 0 0 0 0 .07.18.18 0 0 1 0-.06.15.15 0 0 1 0-.08v-.09h.14a1.75 1.75 0 0 0 .2 0 .15.15 0 0 0-.09-.15.35.35 0 0 0 .14 0H23.21a.1.1 0 0 1 .08 0 .1.1 0 0 0 .1 0h.11a.1.1 0 0 1-.06.08c.08 0 .09-.09.15-.13h.19c.08.07.2.09.28.15s0-.06 0-.1.17-.09.24 0c0-.09-.07-.08-.12-.13a.25.25 0 0 0 .12-.09 2.16 2.16 0 0 1 .4 0h.11v-.1c0-.1.13 0 .2 0V8h.1l.09.07h-.25c-.08 0 .05 0 .05.13a.31.31 0 0 1 .25.11V8a.65.65 0 0 0 .19.28h-.06v.16a.11.11 0 0 1-.05-.06.76.76 0 0 0 0 .09v.07c0 .02.09.09.11.15s.11.11.19.13 0 0 0 .06.21.12.13.2a.91.91 0 0 0 .14.35v.08a2.77 2.77 0 0 1 .1-.2s0-.09-.08-.11-.15-.07-.19-.14 0-.28-.1-.38a.83.83 0 0 1-.09-.13v-.07c0-.07-.12 0-.12-.17a.44.44 0 0 0 .14.2v.09a.25.25 0 0 1-.15-.14c0 .14.06.19.07.31h.07v.05h-.07v.08h-.07a.87.87 0 0 1 0-.1.21.21 0 0 0-.19.12h-.12v.07c-.1 0-.1.06-.17.09s0 .47-.07.55h.23a.58.58 0 0 0 0-.1c.14 0 .21.15.27.25s.14.16.18.24 0 .07 0 .1c.09.33-.11.57-.18.78a.29.29 0 0 1-.1 0v.1c0 .05-.2.16-.1.27s-.05 0-.09.07 0 .07-.07.1a.56.56 0 0 1 .29.16s0 .1.07.14-.06.08-.07.16-.1.05-.19.06a.93.93 0 0 1 0-.18l-.1-.05c-.1-.05 0-.07 0-.15a.52.52 0 0 0-.14 0v-.18a.57.57 0 0 0-.36.13.25.25 0 0 0 0-.21l-.09.08s0 .12-.08.15a1.43 1.43 0 0 1-.16.06l.06.07h.22a.64.64 0 0 0 .17-.07h.11a.44.44 0 0 1-.13.13h-.06s0 .16-.09.21.11 0 .16 0a.66.66 0 0 1 0 .15c.08 0 .1.08.16.11a.21.21 0 0 1-.09 0h.08c.03 0 0 .11-.06.18h.17l-.08.05c0 .07-.06.05-.08.09v.18a.51.51 0 0 1 0 .06v.05l-.16.21a1.85 1.85 0 0 1-.41.15 1 1 0 0 1-.3.11v.07h-.08a.11.11 0 0 1 0-.07.57.57 0 0 0-.43.22.14.14 0 0 0 0 .08c0 .06.06 0 .11.07l.06.08s.11 0 .15.06.09.13.13.16a.47.47 0 0 1-.28.45h-.11s-.07.08-.1.1h-.09a.17.17 0 0 1 0-.1c0-.12-.14-.09-.2-.14l-.07-.12a.13.13 0 0 0-.09 0h-.11v-.09a.19.19 0 0 0-.12 0v.4a.16.16 0 0 1 .1 0s0 .06.07.12a1.06 1.06 0 0 1 .32.13.25.25 0 0 1 0 .2c0 .09.09.12.13.17a.13.13 0 0 1 0 .05.94.94 0 0 1-.47-.27c-.08-.12 0-.25-.18-.3h-.13a1.24 1.24 0 0 1 0-.26.77.77 0 0 0 0-.21h-.09a1.55 1.55 0 0 0-.08-.42c-.07 0-.22.19-.35.08a1.26 1.26 0 0 1-.1-.34h-.23c0-.05-.08-.16-.06-.23h-.08c-.08 0-.08.05-.14.08s-.26 0-.37.07 0 .06 0 .07-.2.1-.27.13-.19.16-.29.21h-.08l-.06.06h-.16v.1c0 .03 0 .17-.09.22a1.73 1.73 0 0 1 0 .2.64.64 0 0 1-.08.1s-.11 0-.15.08c-.23 0-.21-.18-.27-.35s-.06-.08-.08-.11 0-.13-.07-.2a2.44 2.44 0 0 1-.15-.3.9.9 0 0 1 0-.38.34.34 0 0 1-.23.08 1.54 1.54 0 0 1-.18-.19.36.36 0 0 1 .16 0h-.1c-.01 0 0 0 0 0a1.4 1.4 0 0 1-.27-.28 1.49 1.49 0 0 1-.81-.22l-.1-.14h-.16a1.19 1.19 0 0 1-.26-.26c-.1-.16 0-.31-.26-.32v.13a1 1 0 0 1 0 .14s.07.09.08.13 0 .13 0 .18a.31.31 0 0 0 0-.08h.07v.11c0 .02.3.11.4.06a1.32 1.32 0 0 0 .06.15c0 .06.07 0 .12.07s0 .14.11.17-.13.11-.2.17 0 .08 0 .11a.53.53 0 0 1-.24.11h-.17s-.07.08-.11.1a2.08 2.08 0 0 1-.44 0h-.19a.14.14 0 0 1-.1 0 1 1 0 0 0-.07-.29v-.33c0-.11-.09-.21-.11-.32s0-.1 0-.13a1 1 0 0 0-.06-.13v-.23a1.67 1.67 0 0 1-.08-.4v-.21a.85.85 0 0 0 0 .36v.3a1.42 1.42 0 0 1 0 .32A2.26 2.26 0 0 0 16 13s.07.1.09.12v.3l.1.1a2.18 2.18 0 0 1 .08.22s.07.09 0 .12a.72.72 0 0 1 .12.18c.12 0 .42.09.48.06a.18.18 0 0 1 .1 0 .63.63 0 0 1-.1.27s-.08 0-.11.08l-.1.2c-.11 0-.13.13-.21.18h-.15a1.48 1.48 0 0 0-.21.18s0 .1-.06.13.06.11.08.17.15.4.2.52 0 .14.05.19-.13.12-.21.14a6.57 6.57 0 0 0 9.48 1.71.12.12 0 0 1-.09 0v-.08c0-.02 0 0-.06 0a.07.07 0 0 1 0-.07.51.51 0 0 0-.18.13.35.35 0 0 1 0-.07c-.16 0-.2 0-.33.07l-.29.07-.3.18h-.28s-.05.05-.08.07a.48.48 0 0 1-.37 0s.05 0 .08-.06 0-.36-.07-.4h.19l-.13-.07a.29.29 0 0 1 0-.13s.13-.11.2-.15c.26-.12.68-.13.75-.43h.07c.07 0 .05-.08.09-.11s.13 0 .16 0 0 0 0-.05a.26.26 0 0 1 .13-.1h.11c.04 0 0 0 0 .07s.13-.11.21-.06a1 1 0 0 1 .13-.23s.09 0 .12-.06.07-.12.13-.13.06 0 .08 0a.3.3 0 0 0 .24-.07 1.19 1.19 0 0 1-.19.28h.24c.07 0 .22-.34.29-.5a1.49 1.49 0 0 1 .11-.16v.25h.06a1.31 1.31 0 0 1 0 .3h.1a.38.38 0 0 1 0 .23v.07a6.58 6.58 0 0 0-1.3-9.3v-.05h-.09a.67.67 0 0 1-.15-.15L25.09 7v.06a.52.52 0 0 1-.18-.11s0-.07-.07-.09-.25 0-.32-.08 0-.06 0-.08a.94.94 0 0 0-.16-.05 1.25 1.25 0 0 1-.18-.11h-.11l-.52-.17m-2.9 0h-.06m-.24 0zm.75-.09a.24.24 0 0 1-.11 0v-.05h-.15.1a.14.14 0 0 0 0 .11c.09.07.21 0 .29-.06h.16a2.9 2.9 0 0 1 .61-.19 1 1 0 0 1 .23 0h.53l-.4-.05h-.73a1.15 1.15 0 0 0-.55.08" fill="none"/></clipPath><radialGradient id="radial-gradient" cx="-215.76" cy="349.08" r="1" gradientTransform="matrix(7.98 0 0 -7.98 1742.41 2793.49)" gradientUnits="userSpaceOnUse"><stop offset="0" stop-color="#fffffe"/><stop offset="1" stop-color="#060e9f"/></radialGradient></defs><path class="cls-2" d="M9.51 3.22h4.89v8.56a13.23 13.23 0 0 1-.49 4.11A4.64 4.64 0 0 1 12 18.28a6.42 6.42 0 0 1-3.7 1 8.56 8.56 0 0 1-3.7-.65 4.69 4.69 0 0 1-2-1.88 7.2 7.2 0 0 1-.84-3.08L6.37 13a5.44 5.44 0 0 0 .19 1.55 1.69 1.69 0 0 0 .59.82 1.33 1.33 0 0 0 .79.21A1.3 1.3 0 0 0 9.12 15a4 4 0 0 0 .39-2.05zM29.41 3.22h4.42v5.46a4.34 4.34 0 0 1 1.49-1 4.79 4.79 0 0 1 1.85-.35 4.45 4.45 0 0 1 3.45 1.51A6.16 6.16 0 0 1 42 13.12a8.16 8.16 0 0 1-.63 3.3 4.66 4.66 0 0 1-1.74 2.13 4.67 4.67 0 0 1-4.55.2 5.55 5.55 0 0 1-1.57-1.45V19h-4.1zm4.38 10a3.39 3.39 0 0 0 .55 2.14 1.81 1.81 0 0 0 1.42.66 1.63 1.63 0 0 0 1.31-.65 3.47 3.47 0 0 0 .54-2.19 3.05 3.05 0 0 0-.53-2 1.55 1.55 0 0 0-1.26-.64 1.84 1.84 0 0 0-1.47.66 3 3 0 0 0-.56 2M42.41 13.77l4.59-.29a3.5 3.5 0 0 0 .61 1.72 2.58 2.58 0 0 0 2.15 1 2.36 2.36 0 0 0 1.6-.49 1.46 1.46 0 0 0 .64-1.18 1.44 1.44 0 0 0-.54-1.1 6.35 6.35 0 0 0-2.46-.91 10.58 10.58 0 0 1-4.57-1.91 3.84 3.84 0 0 1-1.37-3 4.1 4.1 0 0 1 .69-2.29 4.64 4.64 0 0 1 2.12-1.7A9.9 9.9 0 0 1 49.71 3a7.91 7.91 0 0 1 4.6 1.13 4.81 4.81 0 0 1 1.89 3.52l-4.59.27a2.39 2.39 0 0 0-.78-1.54 2.42 2.42 0 0 0-1.61-.49 1.93 1.93 0 0 0-1.28.36 1.09 1.09 0 0 0-.43.88.89.89 0 0 0 .35.67 4.11 4.11 0 0 0 1.64.58 19.8 19.8 0 0 1 4.57 1.4 4.68 4.68 0 0 1 2 1.74 4.43 4.43 0 0 1 .63 2.33 5 5 0 0 1-.84 2.8 5.32 5.32 0 0 1-2.35 1.95 9.58 9.58 0 0 1-3.8.65q-4 0-5.57-1.54a6.1 6.1 0 0 1-1.75-3.93M63.06 3.22v4.35h2.41v3.19h-2.41v4.06a2.17 2.17 0 0 0 .14 1 .8.8 0 0 0 .75.37 5 5 0 0 0 1.36-.28l.32 3a14.54 14.54 0 0 1-3 .35 5.33 5.33 0 0 1-2.41-.42A2.58 2.58 0 0 1 59 17.55a7.58 7.58 0 0 1-.37-2.77v-4h-1.58V7.57h1.61v-2.1zM66.49 7.57h4.1v1.86a4.48 4.48 0 0 1 1.21-1.66 2.57 2.57 0 0 1 1.56-.47 4.61 4.61 0 0 1 2.12.61L74.12 11a3.46 3.46 0 0 0-1.23-.33 1.52 1.52 0 0 0-1.34.71 7.25 7.25 0 0 0-.68 3.74V19h-4.4zM88.15 14.36h-8.77a2.78 2.78 0 0 0 .57 1.57 2.07 2.07 0 0 0 1.66.75 2.52 2.52 0 0 0 1.22-.33 2.74 2.74 0 0 0 .76-.72l4.31.4a6.11 6.11 0 0 1-2.38 2.47 8.61 8.61 0 0 1-4 .75 8.28 8.28 0 0 1-3.57-.63 5.33 5.33 0 0 1-2.16-2 6.17 6.17 0 0 1-.85-3.28A5.77 5.77 0 0 1 76.63 9a6.57 6.57 0 0 1 4.74-1.7 8.4 8.4 0 0 1 3.87.7 4.94 4.94 0 0 1 2.16 2.15 7.83 7.83 0 0 1 .75 3.66zm-4.46-2.1a2.89 2.89 0 0 0-.69-1.82 2.13 2.13 0 0 0-3.12.29 3 3 0 0 0-.51 1.53zM101.74 14.36H93a2.86 2.86 0 0 0 .57 1.57 2.08 2.08 0 0 0 1.66.75 2.53 2.53 0 0 0 1.23-.33 2.79 2.79 0 0 0 .76-.72l4.31.4a6.12 6.12 0 0 1-2.39 2.47 8.58 8.58 0 0 1-4 .75 8.31 8.31 0 0 1-3.58-.63 5.38 5.38 0 0 1-2.16-2 6.22 6.22 0 0 1-.85-3.28A5.76 5.76 0 0 1 90.22 9 6.55 6.55 0 0 1 95 7.3a8.47 8.47 0 0 1 3.84.7 5 5 0 0 1 2.16 2.2 7.81 7.81 0 0 1 .74 3.66zm-4.46-2.1a2.88 2.88 0 0 0-.68-1.82 2.13 2.13 0 0 0-3.12.29 3 3 0 0 0-.48 1.53zM107.92 3.22v4.35h2.41v3.19h-2.41v4.06a2.12 2.12 0 0 0 .15 1 .79.79 0 0 0 .75.37 5.07 5.07 0 0 0 1.35-.28l.32 3a14.55 14.55 0 0 1-3 .35 5.37 5.37 0 0 1-2.41-.42 2.63 2.63 0 0 1-1.15-1.27 7.68 7.68 0 0 1-.36-2.77v-4h-1.62V7.57h1.62v-2.1zM126.18 14.69l4.16.47a5.89 5.89 0 0 1-1.13 2.26 5.23 5.23 0 0 1-2 1.47 7.75 7.75 0 0 1-3.1.53 11.53 11.53 0 0 1-3-.34A5.43 5.43 0 0 1 119 18a5.63 5.63 0 0 1-1.37-1.79 6.35 6.35 0 0 1-.5-2.71 6.37 6.37 0 0 1 .6-2.93A5.37 5.37 0 0 1 118.94 9a5.68 5.68 0 0 1 1.57-1 8.69 8.69 0 0 1 3.28-.53 7.58 7.58 0 0 1 4.26 1 5.24 5.24 0 0 1 2.06 2.92l-4.11.55a1.88 1.88 0 0 0-.71-1.1 2.23 2.23 0 0 0-1.36-.38 2.2 2.2 0 0 0-1.77.79 3.54 3.54 0 0 0-.67 2.35 3.05 3.05 0 0 0 .67 2.13 2.19 2.19 0 0 0 1.7.74 2.33 2.33 0 0 0 1.44-.47 2.65 2.65 0 0 0 .88-1.36M130.7 13.48a5.68 5.68 0 0 1 1.77-4.3 7.64 7.64 0 0 1 9.94.29 5.77 5.77 0 0 1 1.41 3.94 5.75 5.75 0 0 1-1.75 4.32 6.67 6.67 0 0 1-4.83 1.67 6.76 6.76 0 0 1-4.45-1.4 5.59 5.59 0 0 1-2.09-4.53m4.39 0a3.46 3.46 0 0 0 .61 2.26 2 2 0 0 0 1.56.73 1.93 1.93 0 0 0 1.55-.72 3.55 3.55 0 0 0 .61-2.31 3.34 3.34 0 0 0-.61-2.2 1.9 1.9 0 0 0-1.52-.73 2 2 0 0 0-1.59.75 3.4 3.4 0 0 0-.62 2.23M144.85 7.74h4.08V9.4a5.75 5.75 0 0 1 1.77-1.48 4.92 4.92 0 0 1 2.17-.44A4.14 4.14 0 0 1 155 8a3.54 3.54 0 0 1 1.3 1.44 6.66 6.66 0 0 1 1.88-1.52 4.89 4.89 0 0 1 2.1-.4 3.75 3.75 0 0 1 2.87 1.1 4.78 4.78 0 0 1 1 3.4v7.17h-4.39v-6.5a1.84 1.84 0 0 0-.3-1.15 1.33 1.33 0 0 0-1.1-.59 1.56 1.56 0 0 0-1.25.56 2.77 2.77 0 0 0-.47 1.79v5.89h-4.38v-6.33a3.82 3.82 0 0 0-.09-1 1.35 1.35 0 0 0-.48-.69 1.26 1.26 0 0 0-.8-.27 1.56 1.56 0 0 0-1.24.57 2.84 2.84 0 0 0-.49 1.87v5.82h-4.38zM112.12 17.08a2.06 2.06 0 1 1 2.07 2.11 2.09 2.09 0 0 1-2.07-2.11"/><path d="M28.29 12.61A6.58 6.58 0 1 1 21.71 6a6.58 6.58 0 0 1 6.58 6.58" fill="#00a94f"/><g clip-path="url(#clip-path)"><path fill="url(#radial-gradient)" d="M15.47 6.05H28.3v13.14H15.47z"/></g><path class="cls-2" d="M6.46 29.11a5.31 5.31 0 0 0 1.11.61l-.25.6a5.12 5.12 0 0 1-1.41-.8 3.24 3.24 0 0 1-1.61.41 3.11 3.11 0 0 1-1.6-.43 2.86 2.86 0 0 1-1.11-1.2 3.83 3.83 0 0 1-.39-1.75 3.92 3.92 0 0 1 .39-1.76 2.76 2.76 0 0 1 1.11-1.21 3.2 3.2 0 0 1 1.62-.42 3.15 3.15 0 0 1 1.68.43 2.81 2.81 0 0 1 1.11 1.2 3.9 3.9 0 0 1 .38 1.75A4.07 4.07 0 0 1 7.2 28a3 3 0 0 1-.74 1.11zM4.56 28a3.21 3.21 0 0 1 1.24.62 2.69 2.69 0 0 0 .76-2.09 3.32 3.32 0 0 0-.27-1.39 2.07 2.07 0 0 0-.79-.92 2.14 2.14 0 0 0-1.17-.33 2.14 2.14 0 0 0-1.61.66 2.75 2.75 0 0 0-.64 2 2.77 2.77 0 0 0 .63 2 2.1 2.1 0 0 0 1.61.68 2.22 2.22 0 0 0 .89-.23 2.82 2.82 0 0 0-.86-.38zM11.8 29.81v-.7a1.73 1.73 0 0 1-1.5.8 1.91 1.91 0 0 1-.78-.16 1.28 1.28 0 0 1-.54-.4 1.49 1.49 0 0 1-.25-.6 4 4 0 0 1 0-.75v-2.92h.8v2.62a4.64 4.64 0 0 0 0 .85.84.84 0 0 0 .32.5 1 1 0 0 0 .61.18 1.32 1.32 0 0 0 .68-.19 1 1 0 0 0 .45-.5 2.51 2.51 0 0 0 .13-.92v-2.54h.8v4.74zM17 29.23a3 3 0 0 1-.86.54 2.49 2.49 0 0 1-.89.16 1.73 1.73 0 0 1-1.2-.38 1.26 1.26 0 0 1-.42-1 1.29 1.29 0 0 1 .16-.63 1.31 1.31 0 0 1 .42-.46 2 2 0 0 1 .58-.26 5.78 5.78 0 0 1 .71-.12 7.29 7.29 0 0 0 1.5-.27v-.21a.88.88 0 0 0-.23-.69 1.34 1.34 0 0 0-.91-.27 1.42 1.42 0 0 0-.84.2 1.22 1.22 0 0 0-.4.7l-.79-.11a2 2 0 0 1 .35-.81 1.55 1.55 0 0 1 .71-.48A3.17 3.17 0 0 1 16 25a2.85 2.85 0 0 1 1 .14 1.3 1.3 0 0 1 .56.36 1.27 1.27 0 0 1 .25.55 4.57 4.57 0 0 1 0 .74v1.07a11.62 11.62 0 0 0 .05 1.42 1.83 1.83 0 0 0 .2.57h-.86a1.68 1.68 0 0 1-.2-.62zm0-1.79a5.93 5.93 0 0 1-1.31.3 3 3 0 0 0-.7.16.7.7 0 0 0-.32.26.71.71 0 0 0 .13.92 1 1 0 0 0 .71.21 1.65 1.65 0 0 0 .83-.2 1.24 1.24 0 0 0 .53-.56 1.92 1.92 0 0 0 .13-.8zM19.19 29.81v-6.53H20v6.54zM21.42 24.2v-.92h.8v.92zm0 5.61v-4.73h.8v4.74zM25.37 29.1l.12.71a3 3 0 0 1-.61.07 1.37 1.37 0 0 1-.68-.14.77.77 0 0 1-.34-.36 2.84 2.84 0 0 1-.1-.95V25.7h-.59v-.63h.59V23.9l.8-.48v1.65h.81v.63h-.81v2.77a1.39 1.39 0 0 0 0 .44.33.33 0 0 0 .14.16.53.53 0 0 0 .27.06zM26.3 31.64l-.09-.75a1.78 1.78 0 0 0 .46.07.88.88 0 0 0 .43-.09.73.73 0 0 0 .26-.25 3.9 3.9 0 0 0 .25-.6l.07-.2-1.8-4.75h.87l1 2.74c.13.35.24.71.34 1.1a10.7 10.7 0 0 1 .33-1.08l1-2.76h.8l-1.8 4.82A9.65 9.65 0 0 1 28 31a1.6 1.6 0 0 1-.49.58 1.16 1.16 0 0 1-.66.18 1.6 1.6 0 0 1-.55-.12zM33.46 28l.78-.11a1.67 1.67 0 0 0 .28 1 .89.89 0 0 0 .69.28 1 1 0 0 0 .56-.15.77.77 0 0 0 .33-.41 2.75 2.75 0 0 0 .09-.82v-4.5h.87v4.45a3.28 3.28 0 0 1-.2 1.27 1.42 1.42 0 0 1-.63.69 2.07 2.07 0 0 1-1 .24 1.71 1.71 0 0 1-1.32-.5 2 2 0 0 1-.45-1.44zM38.25 27.45A2.44 2.44 0 0 1 39 25.5a2.2 2.2 0 0 1 1.47-.5 2.13 2.13 0 0 1 1.6.64 2.44 2.44 0 0 1 .62 1.77 3.14 3.14 0 0 1-.27 1.44 2 2 0 0 1-.8.81 2.33 2.33 0 0 1-1.15.29 2.13 2.13 0 0 1-1.61-.64 2.55 2.55 0 0 1-.61-1.86zm.83 0a2 2 0 0 0 .4 1.36 1.32 1.32 0 0 0 2 0 2.06 2.06 0 0 0 .4-1.39 2 2 0 0 0-.4-1.33 1.32 1.32 0 0 0-2 0 2 2 0 0 0-.41 1.36zM44.54 29.81h-.74v-6.53h.8v2.33a1.59 1.59 0 0 1 1.3-.61 2 2 0 0 1 .83.18 1.7 1.7 0 0 1 .64.5 2.38 2.38 0 0 1 .39.77 3.15 3.15 0 0 1 .14 1 2.7 2.7 0 0 1-.6 1.88 1.88 1.88 0 0 1-1.45.67 1.51 1.51 0 0 1-1.32-.7zm0-2.4a2.46 2.46 0 0 0 .23 1.23 1.15 1.15 0 0 0 1.94.16 2.08 2.08 0 0 0 .38-1.36 2.11 2.11 0 0 0-.37-1.37 1.12 1.12 0 0 0-.89-.44 1.16 1.16 0 0 0-.91.46 2 2 0 0 0-.39 1.32zM48.74 28.4l.79-.12a1.11 1.11 0 0 0 .37.73 1.3 1.3 0 0 0 .85.25 1.25 1.25 0 0 0 .82-.23.67.67 0 0 0 .27-.53.48.48 0 0 0-.24-.43 3.48 3.48 0 0 0-.82-.27 7.51 7.51 0 0 1-1.22-.39 1.17 1.17 0 0 1-.69-1.09 1.22 1.22 0 0 1 .15-.59 1.3 1.3 0 0 1 .39-.45 1.66 1.66 0 0 1 .51-.23 2.45 2.45 0 0 1 .69-.1 2.76 2.76 0 0 1 1 .16 1.34 1.34 0 0 1 .62.43 1.71 1.71 0 0 1 .28.73l-.78.11a.86.86 0 0 0-.31-.57 1.14 1.14 0 0 0-.73-.21 1.31 1.31 0 0 0-.79.18.53.53 0 0 0-.24.43.44.44 0 0 0 .1.28.71.71 0 0 0 .31.21l.71.21a9.83 9.83 0 0 1 1.19.37 1.2 1.2 0 0 1 .53.42 1.18 1.18 0 0 1 .19.69 1.35 1.35 0 0 1-.23.76 1.52 1.52 0 0 1-.68.55 2.47 2.47 0 0 1-1 .19 2.23 2.23 0 0 1-1.41-.38 1.78 1.78 0 0 1-.63-1.11zM57 28.29l.83.1a2 2 0 0 1-.73 1.13 2.19 2.19 0 0 1-1.36.4 2.17 2.17 0 0 1-1.65-.64 2.5 2.5 0 0 1-.61-1.8 2.61 2.61 0 0 1 .62-1.85 2.08 2.08 0 0 1 1.6-.66 2 2 0 0 1 1.55.65 2.57 2.57 0 0 1 .6 1.82v.21h-3.48a1.81 1.81 0 0 0 .44 1.2 1.31 1.31 0 0 0 1 .42 1.23 1.23 0 0 0 .75-.23 1.54 1.54 0 0 0 .44-.75zM54.41 27h2.65a1.6 1.6 0 0 0-.3-.9 1.23 1.23 0 0 0-1-.46 1.27 1.27 0 0 0-.93.37 1.46 1.46 0 0 0-.42.99zM62.3 28.29l.83.1a2 2 0 0 1-.73 1.13 2.46 2.46 0 0 1-3-.24 2.5 2.5 0 0 1-.61-1.8 2.61 2.61 0 0 1 .62-1.85A2.09 2.09 0 0 1 61 25a2 2 0 0 1 1.55.65 2.57 2.57 0 0 1 .6 1.82v.21h-3.53a1.82 1.82 0 0 0 .44 1.2 1.32 1.32 0 0 0 1 .42 1.22 1.22 0 0 0 .75-.23 1.54 1.54 0 0 0 .49-.78zM59.67 27h2.65a1.6 1.6 0 0 0-.3-.9 1.23 1.23 0 0 0-1-.46 1.28 1.28 0 0 0-.93.37 1.47 1.47 0 0 0-.42.99zM64.32 29.81v-6.53h.8V27L67 25.08h1l-1.81 1.76 2 3h-1l-1.57-2.42-.57.54v1.88zM72.3 28.29l.83.1a2 2 0 0 1-.73 1.13 2.46 2.46 0 0 1-3-.24 2.5 2.5 0 0 1-.61-1.8 2.61 2.61 0 0 1 .62-1.85A2.08 2.08 0 0 1 71 25a2 2 0 0 1 1.55.65 2.57 2.57 0 0 1 .6 1.82v.21h-3.53a1.82 1.82 0 0 0 .44 1.2 1.32 1.32 0 0 0 1 .42 1.22 1.22 0 0 0 .75-.23 1.54 1.54 0 0 0 .49-.78zM69.66 27h2.65a1.6 1.6 0 0 0-.3-.9 1.23 1.23 0 0 0-1-.46 1.27 1.27 0 0 0-.93.37 1.46 1.46 0 0 0-.42.99zM74.31 29.81v-4.73H75v.72a2 2 0 0 1 .51-.67.9.9 0 0 1 .51-.16 1.56 1.56 0 0 1 .83.26l-.25.77a1.16 1.16 0 0 0-.6-.2.77.77 0 0 0-.47.16.86.86 0 0 0-.3.44 3.13 3.13 0 0 0-.13.94v2.48zM77.21 28.4l.79-.12a1.1 1.1 0 0 0 .37.73 1.3 1.3 0 0 0 .85.25 1.26 1.26 0 0 0 .82-.23.68.68 0 0 0 .27-.53.49.49 0 0 0-.24-.43 3.48 3.48 0 0 0-.82-.27 7.47 7.47 0 0 1-1.25-.38 1.17 1.17 0 0 1-.69-1.09 1.22 1.22 0 0 1 .14-.59 1.31 1.31 0 0 1 .39-.45 1.65 1.65 0 0 1 .51-.23 2.45 2.45 0 0 1 .69-.1 2.75 2.75 0 0 1 1 .16 1.34 1.34 0 0 1 .62.43 1.71 1.71 0 0 1 .28.73l-.79.11a.86.86 0 0 0-.31-.57 1.14 1.14 0 0 0-.73-.21 1.32 1.32 0 0 0-.79.18.53.53 0 0 0-.24.43.44.44 0 0 0 .1.28.71.71 0 0 0 .31.21l.71.21a9.83 9.83 0 0 1 1.19.37 1.2 1.2 0 0 1 .53.42 1.18 1.18 0 0 1 .19.69 1.35 1.35 0 0 1-.23.76 1.52 1.52 0 0 1-.68.55 2.47 2.47 0 0 1-1 .19 2.23 2.23 0 0 1-1.41-.38 1.78 1.78 0 0 1-.58-1.12zM82.49 29.81v-.91h.91v.91a1.63 1.63 0 0 1-.18.81 1.16 1.16 0 0 1-.57.48l-.22-.34a.76.76 0 0 0 .38-.33 1.4 1.4 0 0 0 .13-.62zM92.79 29.11a5.31 5.31 0 0 0 1.11.61l-.25.6a5.13 5.13 0 0 1-1.41-.8 3.24 3.24 0 0 1-1.61.41A3.1 3.1 0 0 1 89 29.5a2.86 2.86 0 0 1-1.11-1.2 3.84 3.84 0 0 1-.39-1.75 3.92 3.92 0 0 1 .39-1.76A2.76 2.76 0 0 1 89 23.58a3.2 3.2 0 0 1 1.62-.42 3.15 3.15 0 0 1 1.63.43 2.81 2.81 0 0 1 1.11 1.2 3.9 3.9 0 0 1 .38 1.75 4.07 4.07 0 0 1-.21 1.46 3 3 0 0 1-.74 1.11zM90.88 28a3.21 3.21 0 0 1 1.24.62 2.69 2.69 0 0 0 .76-2.09 3.31 3.31 0 0 0-.27-1.39 2.07 2.07 0 0 0-.79-.92 2.26 2.26 0 0 0-2.77.33 2.75 2.75 0 0 0-.64 2 2.78 2.78 0 0 0 .63 2 2.1 2.1 0 0 0 1.61.68 2.21 2.21 0 0 0 .87-.17 2.82 2.82 0 0 0-.86-.38zM98.13 29.81v-.7a1.74 1.74 0 0 1-1.5.8 1.92 1.92 0 0 1-.78-.16 1.28 1.28 0 0 1-.54-.4 1.52 1.52 0 0 1-.25-.6A4.12 4.12 0 0 1 95 28v-2.92h.8v2.62a4.74 4.74 0 0 0 0 .85.84.84 0 0 0 .32.5 1 1 0 0 0 .61.18 1.32 1.32 0 0 0 .68-.19 1 1 0 0 0 .45-.5 2.52 2.52 0 0 0 .13-.92v-2.54h.8v4.74zM103.37 29.23a3 3 0 0 1-.86.54 2.5 2.5 0 0 1-.89.16 1.73 1.73 0 0 1-1.2-.38 1.26 1.26 0 0 1-.42-1 1.29 1.29 0 0 1 .16-.63 1.31 1.31 0 0 1 .42-.46 2 2 0 0 1 .58-.26 5.71 5.71 0 0 1 .71-.12 7.33 7.33 0 0 0 1.43-.28v-.21a.89.89 0 0 0-.23-.69 1.34 1.34 0 0 0-.91-.27 1.42 1.42 0 0 0-.84.2 1.22 1.22 0 0 0-.4.7l-.79-.11a2 2 0 0 1 .35-.81 1.55 1.55 0 0 1 .71-.48 3.18 3.18 0 0 1 1.08-.17 2.86 2.86 0 0 1 1 .14 1.29 1.29 0 0 1 .56.36 1.26 1.26 0 0 1 .25.55 4.57 4.57 0 0 1 0 .74v1.07a11.41 11.41 0 0 0 .05 1.42 1.78 1.78 0 0 0 .2.57h-.84a1.7 1.7 0 0 1-.12-.58zm-.07-1.79a5.93 5.93 0 0 1-1.31.3 3 3 0 0 0-.7.16.7.7 0 0 0-.32.26.71.71 0 0 0 .13.92 1 1 0 0 0 .71.21 1.66 1.66 0 0 0 .83-.2 1.25 1.25 0 0 0 .53-.56 1.94 1.94 0 0 0 .13-.8zM105.51 29.81v-6.53h.8v6.54zM107.74 24.2v-.92h.8v.92zm0 5.61v-4.73h.8v4.74zM111.69 29.1l.12.71a3 3 0 0 1-.61.07 1.36 1.36 0 0 1-.68-.14.77.77 0 0 1-.34-.36 2.86 2.86 0 0 1-.1-.95V25.7h-.59v-.63h.59V23.9l.8-.48v1.65h.81v.63h-.81v2.77a1.4 1.4 0 0 0 0 .44.33.33 0 0 0 .14.16.53.53 0 0 0 .27.06zM112.63 31.64l-.09-.75a1.77 1.77 0 0 0 .46.11.88.88 0 0 0 .43-.09.73.73 0 0 0 .26-.25 4 4 0 0 0 .25-.6l.07-.2-1.8-4.75h.87l1 2.74q.19.52.34 1.1a11 11 0 0 1 .33-1.08l1-2.76h.8l-1.8 4.82a9.6 9.6 0 0 1-.45 1.07 1.59 1.59 0 0 1-.49.58 1.16 1.16 0 0 1-.66.18 1.61 1.61 0 0 1-.52-.12zM120.26 29.81v-6.53H125V24h-3.86v2h3.62v.77h-3.62V29h4v.77zM126.41 29.81v-4.73h.72v.67a1.67 1.67 0 0 1 1.44-.77 1.56 1.56 0 0 1 .86.22 1.17 1.17 0 0 1 .47.61 1.7 1.7 0 0 1 1.46-.83 1.44 1.44 0 0 1 1.08.39 1.67 1.67 0 0 1 .38 1.2v3.25H132v-3a2.17 2.17 0 0 0-.08-.69.67.67 0 0 0-.28-.34.88.88 0 0 0-.48-.13 1.12 1.12 0 0 0-.83.33 1.46 1.46 0 0 0-.33 1.06v2.75h-.8v-3.06a1.35 1.35 0 0 0-.2-.8.75.75 0 0 0-.64-.27 1.16 1.16 0 0 0-.63.18 1 1 0 0 0-.42.52 3 3 0 0 0-.13 1v2.46zM134.2 31.63v-6.55h.73v.62a1.8 1.8 0 0 1 .59-.54 1.6 1.6 0 0 1 .79-.18 1.87 1.87 0 0 1 1.07.31 1.93 1.93 0 0 1 .7.88 3.23 3.23 0 0 1 .24 1.25 3.16 3.16 0 0 1-.26 1.31 2 2 0 0 1-1.81 1.2 1.51 1.51 0 0 1-.72-.17 1.65 1.65 0 0 1-.52-.43v2.31zm.73-4.16a2.06 2.06 0 0 0 .37 1.35 1.13 1.13 0 0 0 .9.44 1.16 1.16 0 0 0 .92-.45 2.15 2.15 0 0 0 .38-1.4 2.09 2.09 0 0 0-.37-1.36 1.12 1.12 0 0 0-.89-.45 1.15 1.15 0 0 0-.91.48 2.15 2.15 0 0 0-.4 1.39zM139.44 29.81v-6.53h.8v6.54zM141.36 27.45a2.44 2.44 0 0 1 .73-1.95 2.2 2.2 0 0 1 1.49-.53 2.13 2.13 0 0 1 1.6.64 2.43 2.43 0 0 1 .62 1.77 3.12 3.12 0 0 1-.27 1.44 1.94 1.94 0 0 1-.8.81 2.33 2.33 0 0 1-1.14.29 2.13 2.13 0 0 1-1.61-.64 2.55 2.55 0 0 1-.62-1.83zm.82 0a2 2 0 0 0 .4 1.36 1.32 1.32 0 0 0 2 0 2.06 2.06 0 0 0 .4-1.39 2 2 0 0 0-.4-1.33 1.32 1.32 0 0 0-2 0 2 2 0 0 0-.39 1.36zM146.88 31.64l-.09-.75a1.77 1.77 0 0 0 .46.07.88.88 0 0 0 .43-.09.73.73 0 0 0 .26-.25 4 4 0 0 0 .25-.6l.07-.2-1.8-4.75h.87l1 2.74q.19.52.34 1.1a11 11 0 0 1 .33-1.08l1-2.76h.8l-1.8 4.82a9.6 9.6 0 0 1-.45 1.08 1.59 1.59 0 0 1-.49.58 1.16 1.16 0 0 1-.66.18 1.61 1.61 0 0 1-.52-.09zM154.91 28.29l.83.1a2 2 0 0 1-.73 1.13 2.46 2.46 0 0 1-3-.24 2.5 2.5 0 0 1-.61-1.8 2.61 2.61 0 0 1 .62-1.85 2.08 2.08 0 0 1 1.6-.66 2 2 0 0 1 1.55.65 2.57 2.57 0 0 1 .6 1.82v.21h-3.53a1.82 1.82 0 0 0 .44 1.2 1.32 1.32 0 0 0 1 .42 1.22 1.22 0 0 0 .75-.23 1.54 1.54 0 0 0 .48-.75zM152.27 27h2.65a1.6 1.6 0 0 0-.3-.9 1.23 1.23 0 0 0-1-.46 1.28 1.28 0 0 0-.93.37 1.46 1.46 0 0 0-.42.99zM156.91 29.81v-4.73h.72v.72a2 2 0 0 1 .51-.67.9.9 0 0 1 .51-.16 1.56 1.56 0 0 1 .83.26l-.28.74a1.16 1.16 0 0 0-.59-.17.77.77 0 0 0-.47.16.86.86 0 0 0-.3.44 3.13 3.13 0 0 0-.13.94v2.48zM159.81 28.4l.79-.12a1.1 1.1 0 0 0 .4.72 1.3 1.3 0 0 0 .85.25 1.26 1.26 0 0 0 .82-.23.68.68 0 0 0 .27-.53.49.49 0 0 0-.24-.43 3.48 3.48 0 0 0-.82-.27 7.47 7.47 0 0 1-1.22-.39 1.17 1.17 0 0 1-.69-1.09 1.22 1.22 0 0 1 .14-.59 1.31 1.31 0 0 1 .39-.45 1.65 1.65 0 0 1 .51-.23 2.45 2.45 0 0 1 .69-.1 2.75 2.75 0 0 1 1 .16 1.34 1.34 0 0 1 .62.43 1.71 1.71 0 0 1 .28.73l-.79.11a.86.86 0 0 0-.31-.57 1.14 1.14 0 0 0-.73-.21 1.32 1.32 0 0 0-.79.18.53.53 0 0 0-.24.43.44.44 0 0 0 .1.28.71.71 0 0 0 .31.21l.71.21a9.83 9.83 0 0 1 1.19.37 1.2 1.2 0 0 1 .53.42 1.18 1.18 0 0 1 .19.69 1.35 1.35 0 0 1-.23.76 1.52 1.52 0 0 1-.68.55 2.47 2.47 0 0 1-1 .19 2.23 2.23 0 0 1-1.41-.38 1.78 1.78 0 0 1-.64-1.1z"/></svg>