<svg xmlns="http://www.w3.org/2000/svg" width="178" height="32"><defs><radialGradient id="a" cx="35.407%" cy="17.875%" r="62.585%" fx="35.407%" fy="17.875%" gradientTransform="matrix(1 0 0 .952 0 .009)"><stop offset="0%" stop-color="#FFF"/><stop offset="100%" stop-color="#1C3F94"/></radialGradient></defs><g fill="none"><path d="M8.629.629h5.314v9.314c0 1.943-.172 3.428-.514 4.457-.343 1.029-1.029 1.886-2.115 2.629-1.028.685-2.4 1.085-4 1.085-1.714 0-3.085-.228-4.057-.685A4.867 4.867 0 0 1 1.03 15.37c-.515-.914-.8-2-.915-3.371l5.086-.686c0 .743.057 1.315.229 1.657.114.343.342.686.628.915.172.171.457.228.857.228.572 0 1.029-.228 1.315-.628.285-.457.4-1.2.4-2.229V.63zm21.6 0h4.8V6.57c.457-.514 1.028-.857 1.6-1.142.628-.229 1.257-.4 2-.4 1.485 0 2.742.571 3.771 1.657.971 1.085 1.486 2.628 1.486 4.685 0 1.372-.229 2.572-.686 3.6-.457 1.029-1.086 1.772-1.886 2.343-.8.515-1.657.743-2.628.743-.857 0-1.6-.171-2.286-.514-.514-.286-1.086-.8-1.714-1.6v1.828h-4.457V.63zm4.8 10.914c0 1.086.228 1.828.571 2.343.4.457.914.743 1.543.743.571 0 1.028-.229 1.428-.686.4-.457.572-1.257.572-2.4 0-.972-.172-1.714-.572-2.172a1.704 1.704 0 0 0-1.371-.685c-.629 0-1.2.228-1.6.743-.4.457-.571 1.142-.571 2.114zm9.371.571l5.029-.285c.114.8.342 1.428.685 1.885.572.686 1.315 1.029 2.343 1.029.743 0 1.314-.172 1.772-.514.4-.343.628-.743.628-1.258 0-.457-.171-.857-.571-1.2-.4-.342-1.315-.685-2.686-.971-2.343-.514-4-1.2-4.971-2.057-1.029-.857-1.486-2-1.486-3.314 0-.915.228-1.715.743-2.515.514-.8 1.314-1.428 2.285-1.828C49.2.629 50.63.4 52.4.4c2.171 0 3.886.4 5.029 1.2 1.142.8 1.828 2.114 2.057 3.886l-4.972.285c-.114-.8-.4-1.314-.857-1.657-.4-.343-1.028-.514-1.771-.514-.629 0-1.086.114-1.372.4-.343.286-.457.571-.457.971 0 .286.114.515.4.743.229.229.857.457 1.772.629 2.342.514 4 1.028 4.971 1.543 1.029.514 1.714 1.143 2.171 1.885.458.743.686 1.6.686 2.515 0 1.085-.286 2.114-.914 3.028a5.86 5.86 0 0 1-2.572 2.115c-1.085.457-2.457.685-4.114.685-2.914 0-4.914-.571-6.057-1.657-1.2-1.143-1.829-2.571-2-4.343zM66.857.63V5.37h2.629v3.486h-2.629v4.4c0 .514.057.857.172 1.029.171.285.4.4.8.4.342 0 .857-.115 1.485-.286l.343 3.314c-1.2.229-2.286.4-3.314.4-1.2 0-2.057-.171-2.629-.457-.571-.286-.971-.743-1.257-1.371-.286-.629-.4-1.657-.4-3.029v-4.4h-1.771V5.371h1.771V3.086l4.8-2.457zm3.714 4.742h4.458V7.43c.457-.858.857-1.486 1.314-1.829.457-.343 1.028-.514 1.714-.514.686 0 1.486.228 2.286.685l-1.486 3.372c-.571-.229-1.028-.343-1.314-.343-.629 0-1.086.286-1.429.8-.514.743-.743 2.114-.743 4.057v4.172h-4.8V5.37zm23.6 7.429H84.63c.057.743.285 1.314.628 1.714.457.515 1.086.8 1.829.8.457 0 .914-.114 1.314-.343.286-.171.514-.4.857-.8l4.686.458c-.686 1.257-1.6 2.171-2.572 2.685-1.028.572-2.457.8-4.4.8-1.657 0-2.914-.228-3.885-.685-.972-.458-1.715-1.2-2.343-2.229-.629-1.029-.914-2.229-.914-3.6 0-1.943.628-3.486 1.828-4.743 1.257-1.2 2.972-1.828 5.143-1.828 1.771 0 3.2.285 4.229.8A5.168 5.168 0 0 1 93.37 8.17c.515 1.029.8 2.343.8 4v.629zm-4.857-2.286c-.114-.914-.343-1.6-.743-2-.4-.4-.914-.571-1.6-.571-.742 0-1.371.286-1.828.914-.286.4-.457.914-.572 1.657h4.743zm19.657 2.286H99.43c.057.743.285 1.314.628 1.714.457.515 1.086.8 1.829.8.457 0 .914-.114 1.314-.343.229-.171.514-.4.857-.8l4.686.458c-.743 1.257-1.6 2.171-2.572 2.685-1.028.572-2.457.8-4.342.8-1.658 0-2.972-.228-3.886-.685-.972-.458-1.714-1.2-2.343-2.229-.629-1.029-.914-2.229-.914-3.6 0-1.943.628-3.486 1.885-4.743 1.258-1.2 2.972-1.828 5.143-1.828 1.772 0 3.2.285 4.229.8a5.168 5.168 0 0 1 2.343 2.342c.514 1.029.8 2.343.8 4v.629h-.115zm-4.857-2.286c-.057-.914-.343-1.6-.743-2-.4-.4-.914-.571-1.6-.571-.742 0-1.371.286-1.828.914-.286.4-.457.914-.572 1.657h4.743zM115.657.63V5.37h2.629v3.486h-2.629v4.4c0 .514.057.857.172 1.029.171.285.4.4.8.4.342 0 .857-.115 1.485-.286l.343 3.314c-1.2.229-2.286.4-3.314.4-1.2 0-2.057-.171-2.629-.457-.571-.286-.971-.743-1.257-1.371-.286-.629-.4-1.657-.4-3.029v-4.4h-1.714V5.371h1.771V3.086l4.743-2.457zm19.886 12.514l4.514.514c-.228.972-.686 1.772-1.2 2.457-.571.686-1.314 1.2-2.171 1.6-.857.4-2 .572-3.372.572-1.314 0-2.4-.115-3.314-.343a5.282 5.282 0 0 1-2.229-1.2c-.628-.572-1.142-1.2-1.485-1.943-.343-.743-.515-1.714-.515-2.971 0-1.258.229-2.343.686-3.2.343-.629.743-1.2 1.314-1.658a5.714 5.714 0 0 1 1.715-1.085c.914-.4 2.114-.572 3.543-.572 2 0 3.542.343 4.628 1.086 1.086.743 1.829 1.771 2.229 3.2l-4.457.571a1.97 1.97 0 0 0-.8-1.2c-.343-.285-.858-.4-1.486-.4-.8 0-1.429.286-1.943.858-.457.571-.743 1.428-.743 2.571 0 1.029.229 1.771.743 2.343.457.514 1.086.8 1.829.8.628 0 1.142-.172 1.542-.457.458-.4.743-.857.972-1.543zm4.914-1.314c0-1.886.629-3.486 1.943-4.686 1.257-1.257 3.029-1.829 5.2-1.829 2.457 0 4.343.743 5.657 2.172 1.029 1.143 1.543 2.571 1.543 4.285 0 1.886-.629 3.486-1.886 4.686-1.257 1.2-3.028 1.829-5.257 1.829-2 0-3.6-.515-4.857-1.543-1.6-1.257-2.343-2.914-2.343-4.914zm4.8 0c0 1.085.229 1.942.686 2.457.457.514 1.028.8 1.714.8.686 0 1.257-.286 1.657-.8.457-.515.686-1.372.686-2.515 0-1.085-.229-1.885-.686-2.4-.457-.514-.971-.8-1.657-.8s-1.257.286-1.714.8c-.514.515-.686 1.372-.686 2.458zM155.83 5.6h4.457v1.829c.628-.743 1.257-1.315 1.943-1.6.628-.343 1.428-.458 2.342-.458.972 0 1.772.172 2.343.515.572.343 1.029.857 1.429 1.543.743-.8 1.428-1.372 2.057-1.658.629-.285 1.371-.457 2.286-.457 1.314 0 2.4.4 3.143 1.2.742.8 1.142 2 1.142 3.715v7.828h-4.8v-7.086c0-.571-.114-.971-.342-1.257-.343-.4-.743-.628-1.2-.628-.572 0-1.029.228-1.372.628-.343.4-.514 1.029-.514 1.943v6.4H164V11.2c0-.571-.057-.914-.114-1.086-.115-.285-.286-.571-.515-.743a1.404 1.404 0 0 0-.857-.285c-.571 0-.971.228-1.371.628-.343.4-.514 1.086-.514 2.057v6.343h-4.743V5.6h-.057zm-35.6 10.171c0-1.257 1.028-2.285 2.228-2.285 1.257 0 2.229 1.028 2.229 2.285 0 1.258-1.029 2.286-2.229 2.286-1.2 0-2.228-1.028-2.228-2.286z" fill="#1C3F94"/><circle cx="21.886" cy="10.857" r="7.143" fill="#00A94F"/><path fill="url(#a)" d="M20.514 3.829s-.057.057 0 0c-.057.057-.057.057 0 0 0 .057 0 .057 0 0zm-.685.228s-.058 0 0 0c-.058 0-.058 0 0 0-.058 0-.058 0 0 0zM20.686 4c0-.057 0-.057 0 0 0-.057 0-.057 0 0zm3.6 2.8c-.057 0-.057 0 0 0zm-3.2-2.857c-.057 0-.057 0 0 0 .057.114.228 0 .285 0h.172c.228-.057.4-.114.686-.114h.8c-.172 0-.286-.058-.458-.058h-.114c-.343 0-1.086-.057-1.257.058h-.114V3.77h-.172.115c0 .058 0 .115.057.172zm-.172.114h-.171.171zm-.457-.114c-.057 0-.057 0 0 0zM15.6 8.057v.057c0-.057.057-.171.114-.228.057-.172-.057-.343.115-.457V7.37c-.058.115-.115.229-.172.4-.057.058-.057.172-.057.286zm.286.457c.057 0 .057 0 0 0 0-.057 0-.057 0 0zm-.229 1.143c.286.057.286-.228.4-.4C16.057 9.2 16 9.2 16 9.2h-.114l-.057-.057v-.057h-.058c-.114 0-.057-.057-.114-.115H15.6l.057-.228c0-.057 0 0-.057 0v-.057h.057v-.057c0-.115.114-.115.057-.229v.057h-.057v-.114c0 .057-.057.171 0 .228 0 .115-.057.172-.171.172h-.057v-.114h-.058V8.57h.058v-.114h.057c0-.114.057-.171.057-.286h-.057c-.057.058-.057.115-.172.115v.057c0-.114 0-.172.057-.229v.057c.172-.057.115-.285.172-.457l.171-.343c0 .058-.057.115-.057.172 0 .057 0 .057-.057.114-.171.343-.286.686-.457 1.029V9.2c.057 0 .057-.114.057-.171.171 0 .057.114.114.228 0 .057.172.286.229.343h.114v.057zm.172-.4H16v.057h-.114-.057v-.057zm-.343-.228c-.057 0-.057-.058-.057-.058v-.114c.057.057.114.114.057.172.057 0 .057 0 0 0zm9.828-3.2s.057 0 0 0zm.857 10.8l.115-.115c-.057 0-.057.057-.115.115zm1.372-1.372c.914-1.2 1.486-2.743 1.486-4.343a7.196 7.196 0 0 0-2.915-5.771h-.057L26 5.086h-.057c-.057 0-.114-.115-.172-.172-.057-.057-.171-.114-.228-.171V4.8c-.057-.057-.172-.057-.172-.114s-.057-.057-.057-.115c-.114-.057-.285 0-.343-.114 0 0 0-.057-.057-.057-.057-.057-.114-.057-.171-.057-.057 0-.114-.057-.172-.114h-.057c-.057 0-.057 0-.114-.058-.171-.057-.343-.114-.571-.171.057.057.057.114.057.171.057 0 .114.058.114.058 0 .057 0 .057-.057.057 0 .057.057.057.114.057v.114l.229.229c-.057.057-.115 0-.172.057-.114 0-.514.057-.628 0-.057 0-.457-.057-.572 0-.057 0-.114.114-.171.114h-.172l-.057.057c-.114.057-.228 0-.343 0H22c-.114-.057-.286-.114-.343-.171h-.286c-.057 0-.057-.057-.114-.057V4.57c-.114-.057-.228-.114-.343-.114-.114 0-.228.114-.343 0 0-.057.058-.057.115-.114-.057-.114-.686-.172-.857-.114V4.17c-.058 0-.115.058-.172 0 0 0 0-.057 0 0a1.077 1.077 0 0 1-.457.115h-.114c-1.143.457-2.172 1.257-2.915 2.171 0 0 .058 0 .058-.057l.057-.057h.057c.057 0 .114 0 .114-.057s.057-.115.114-.172l.058-.057h.057v.057l-.057.057-.058.058v.057l-.057.057V6.4l.057.057v.057h.058l.057.057c.057.058.114-.057.114-.057.057-.057.114-.057.114 0l.057.057c.058 0 .058-.057.058-.114 0 0 0-.057.057-.057s.057.057.057.057H17.429v-.114c-.058-.057-.172 0-.229-.057V6.17c0-.057.057-.057.057-.114.114-.057.172-.114.286-.171.057 0 .057-.057.114-.057s.057-.058.114-.058c.058 0 .058-.057.115-.057v-.057c-.057 0-.057 0-.115.057-.057 0-.057.057-.114.057s-.057 0-.114.058c-.057 0-.057 0-.114.057-.058.057-.115.114-.172.114-.057 0-.057 0-.114.057l-.057.057h-.057v.057s-.058 0-.058.058c-.057 0-.057 0-.057.057l-.057.057c-.057.057-.057.057-.114.057h-.057v-.057l.057-.057s0-.057.057-.057c0-.058.057-.115.114-.115h.057s.058 0 .058-.057c0 0-.058-.057 0-.057l.057-.057.057-.057c0-.057-.057 0-.057.057 0 0 0 .057-.057.057h-.115v-.057-.057H17.086s.057 0 .057-.057c0 0 .057 0 .057-.058 0-.057.057.058.057 0v-.057c0-.057.057 0 .057 0h.057v-.057s0 .057.058 0h.342s.058 0 .058-.057h.228v.057l.057-.057h.343s0 .057-.057.057h-.057c-.057.057-.114.057-.114.114.057.058.057 0 .114 0l.057-.057c.057 0 .114-.057.114-.057h.057v.057h.058c-.058 0-.058 0-.115.057 0 0-.057 0 0 0v.058c0 .057-.057.057-.114.057v.057h.114c.057 0 .057.057 0 .057v.171l-.057.058c-.057 0-.057.057-.114.057s-.057 0-.057-.057V6.17H18.114c-.057 0-.057 0-.057.058v.114s0 .057-.057.057-.057 0-.057.057v.057h.114s0-.057.057-.057l.057.057.058.057c.057 0 .057-.057 0-.057 0 0 .057 0 .057-.057h.114s0-.057.057-.057v.057s0 .057.057.057.057-.114.115-.114l.057-.057.057-.057v.057s-.057 0-.057.057c-.057 0 0 .057-.057 0 0 0 0 .057-.058 0l.058.057h.114v.057h.114s.057 0 0 0l-.057.057s-.057 0-.057.058h.057s.057 0 .057-.058c0 0 .057 0 .057-.057H19.2s-.057 0-.057.057h.114s.057 0 .057-.057v-.057h.115c.057 0 .057.057.057.057v.115l.057.057c.057 0 .057-.057.057-.057 0-.058 0-.058.057-.115.057-.114.114-.171.172-.228l.114-.115c.057 0 .057-.057.114 0 .057 0 0 .058 0 .115S20 6.343 20 6.4s0 .057-.057.114c0 .057-.057.057-.057.115v.228c0 .057-.057.057-.057.057H19.6c-.057 0-.114.057-.114.057-.057.058-.115.058-.115.115s-.057.057 0 .114v.114c0 .057-.057.057-.057.115v.114c0 .057.057.057.115.057.057 0 0-.057 0-.057 0-.057-.058-.057-.058-.114 0-.058.058-.058.058-.115v-.057V7.2c0-.057.057-.057.057-.057l.114-.114c.114-.058.171.057.286.057.057 0 .057-.057.114-.057s.057-.058.057-.115 0-.057.057-.057.115.057.115.057v.115s-.058.057 0 .057h.114v-.057-.172V6.8l-.057-.057h-.057v-.057l.057-.057V6.57v-.057l.057-.057s0-.057.057-.057c0 0 0-.057.057-.057s0 .057 0 .114l-.057.057s0 .057.057.057.057-.057.057-.114.057 0 .057 0c.058 0 .058 0 .058-.057l.057.057h.057c.057 0 0 .057 0 .057v.057s.057.058.057 0v-.057-.057V6.4s-.057 0-.057-.057l-.057-.057c0-.057 0-.057.057-.057h.114s0 .057.057.057h.057v-.057-.058H21.143l.057-.057v.057h.057s.057 0 .057-.057v-.057c0-.057.057-.114.115-.171 0 0 .057 0 .057.057s0 .057-.057.057h.114v.057c.114-.057.171 0 .286.057 0 .057 0 .115.057.172 0 .057-.057.057-.115.114h.115v-.686c.057 0 .057 0 .114.057 0 .058 0-.057.057 0h.286v.058c.057 0 .171 0 .228-.058-.057-.057-.057-.057-.057-.114.057 0 .115 0 .172.057v.115h-.057.114l.057.057c.057 0 .057.057.057.057l.057.057c0 .057 0 .057-.057.057V6.4c0 .057.057.057.057.057s.057 0 .057.057v.057l.058.058h.114l.057.057c.057 0 .114 0 .171.057l.058-.057h.114c.114 0 .171.114.228.171 0-.057-.114-.114-.114-.114H23.83 23.6v-.057h-.057-.057v-.057h-.057-.058-.057-.057-.057-.057V6.57v-.057-.057l-.057-.057v-.057-.057-.057-.058-.057h.057c0-.057-.057-.057-.057-.114 0 0 .114.057.171.057h.229c0-.114-.057-.114-.115-.171v-.057c.058 0 .115 0 .172-.058.057 0 .057 0 .114.058.057 0 .057-.058.114-.058.058 0 .115.058.172.058v.057h.114c0 .057-.057.057-.057.114.114 0 .114-.114.171-.171.058 0 .115-.058.229-.058.057.058.229.115.286.172.057 0 .057-.057.057-.114.057 0 .171-.115.286-.058 0-.114-.058-.114-.115-.114a.123.123 0 0 0 .115-.114H25.6c0-.057-.057-.057-.057-.114.114 0 .114 0 .228.057 0 0 0 .057.058.057h.114c.057 0 .057.057.114.057v.057c-.057 0-.171-.057-.171 0-.057 0-.057.057-.115.057.058.057.058.057.058.172.114 0 .228.057.285.114v.114c.057.115.115.229.229.286h-.057c0 .057-.057.114 0 .171-.057 0-.057-.057-.057-.057 0 .057.057.057.057.115 0 .057-.057.057 0 .057 0 .057.114.114.114.171V6.8c.057.057.114.114.229.171 0 .058 0 .058-.058.058.058.057.229.114.115.228 0 .114.114.343.171.4v.114a1.246 1.246 0 0 1-.286-.228c-.057 0-.057-.114-.057-.114-.057-.058-.171-.058-.228-.172-.057-.114-.057-.286-.115-.4a.123.123 0 0 0-.114-.114v-.057c-.057-.057-.114 0-.114-.172 0 0-.057 0-.057.057 0 .058.114.172.171.229v.057c-.057 0-.114-.114-.171-.171 0 .171.057.228.057.343H26v.057s0 .057-.057.057h-.057v.114s0 .057-.057.057h-.058c0-.057 0-.057.058-.114-.115 0-.172.057-.229.114h-.057v.057h-.057c-.115 0-.115.058-.172.115 0 .171.057.514-.057.628.114 0 .172 0 .229-.057v.057c0-.057.057-.057.057-.114.171 0 .228.171.286.286.057.057.171.171.171.228v.115c.114.342-.114.628-.171.857-.058 0-.058 0-.115-.057 0 .057 0 .057-.057.114s-.228.171-.114.286c-.057.057-.057.057-.114.057-.058 0-.058.057-.058.114v.057c.115 0 .229.114.343.172.057.057.057.114.057.171 0 .114-.057.114-.057.171-.114 0-.114.058-.228.058v-.172c-.057 0-.057-.057-.115-.057 0-.114-.057-.057 0-.171-.057 0-.114 0-.171.057-.057 0-.057-.172-.057-.172a.519.519 0 0 0-.4.172h-.057c0-.057.057-.172 0-.229l-.115.114c-.057.058-.057.115-.114.172-.057 0-.114.057-.171.057l.057.057h.171c.057 0 .057 0 .057.057.058 0 .115-.057.172-.057h.114c-.057.057-.114.114-.171.114h-.057c-.058.058-.058.172-.115.229 0 .057.115.057.172 0v.171c.114 0 .114.115.171.115 0 0-.057.057-.114.057 0 0 .057.057.114.057 0 .114-.057.114-.057.171h.171v.058h-.057s0 .057.057.057c0 .057-.057.057-.057.057l.057.057c0 .057-.057.057-.114.114v.115l-.057.057v.057h-.057V12l-.172.229c-.114.114-.285.114-.457.171-.114.057-.171.114-.343.114v.057h-.057v-.057c-.228 0-.343.115-.457.229v.114c0 .057.057.057.114.057 0 .057.058.057.058.115.057.057.114 0 .171.057.057 0 .114.114.114.171 0 .286-.114.4-.285.457-.058 0-.058 0-.115.057-.057 0-.057.058-.114.115-.057 0-.057 0-.114.057v-.114c0-.115-.172-.115-.229-.172l-.057-.114h-.229v-.114c-.057 0-.114 0-.114.057 0 .171-.057.285-.057.457h.114c.057.057.057.057.057.114.172.057.229.057.343.172 0 .057.057.171 0 .228 0 .114.115.114.172.172v.057c-.172 0-.457-.172-.515-.286-.057-.114 0-.286-.171-.343h-.114c0-.057 0-.228.057-.286v-.228h-.114c0-.172-.058-.343-.115-.457-.057.057-.228.228-.4.114 0 0-.114-.286-.114-.4h-.057s-.057 0-.057-.057-.057-.172-.057-.229c0 0-.058 0-.115-.057-.114 0-.114.057-.171.057-.114.057-.286 0-.4.057 0 .058 0 .058.057.058-.057.057-.229.114-.286.171-.114.057-.228.171-.343.229h-.114l-.057.057h-.171v.114c0 .114 0 .171-.115.229v.228h-.057c0 .057-.057.057-.114.114-.057.058-.114.058-.172.115-.228 0-.228-.172-.285-.4 0-.057-.057-.057-.115-.115-.057-.057-.057-.114-.057-.228-.057-.114-.114-.172-.171-.343 0-.057-.057-.343 0-.4v-.057c-.057.057-.114.114-.229.114-.057-.057-.114-.114-.171-.228h.171s-.114 0-.114-.058v-.057c-.114-.114-.229-.171-.286-.285-.343 0-.685-.115-.857-.229-.057-.057-.057-.114-.114-.171-.057 0-.114 0-.172-.058l-.285-.285c-.115-.172.057-.343-.286-.343 0 .057.057.114.057.114v.172c0 .057.057.114.114.171 0 .057-.057.114 0 .171 0 0 0-.057.058-.114h.057v.114c.057.172.343.115.457.058 0 .057.057.114.057.171 0 .057.057.057.114.057.057.057.057.172.115.172-.058.114-.115.114-.229.171 0 .057 0 .114-.057.114a.433.433 0 0 1-.229.115h-.171c-.057 0-.057.114-.114.114-.058 0-.4.057-.458.057 0 0-.057-.057-.114-.057h-.171-.057c0-.114-.058-.172-.058-.343v-.343c-.057-.114-.114-.228-.114-.343 0-.057.057-.114 0-.114 0-.057-.057-.114-.057-.114v-.229c-.057-.114-.057-.286-.057-.457-.057 0-.057-.171-.057-.229-.057.058 0 .343 0 .4v.343c0 .115.057.229.057.343 0 .114-.057.229 0 .286 0 .057.057.114.114.114V12s.114.057.114.114c.058.057.058.172.115.229 0 .057.057.114 0 .114.057.057.114.114.114.172.114 0 .457.114.514.057h.115a.436.436 0 0 1-.115.285c0 .058-.057.058-.114.115 0 0-.114.171-.114.228-.115 0-.172.115-.229.172-.057 0-.114 0-.171.057-.057 0-.172.171-.229.171-.057.057 0 .115-.057.172 0 .114.057.114.114.171-.057.114.172.457.229.572 0 .057 0 .171.057.228 0 .114-.114.114-.229.172a7.081 7.081 0 0 0 6 3.314 7.03 7.03 0 0 0 4.286-1.429h-.114s0-.057.057-.114l-.057-.057c0-.057 0-.057.057-.057-.057 0-.171.114-.171.171V16.8c-.172-.057-.229 0-.343.057-.115 0-.229.057-.343.057l-.343.172c-.114 0-.229.057-.286.057-.057 0-.057.057-.114.057-.057.057-.343.114-.4 0 0-.057.057-.057.057-.057 0-.114 0-.4-.057-.457 0-.057.057 0 .114 0h.115c-.058 0-.115-.057-.115-.057 0-.058 0-.115.057-.115.058-.057 0 0 .058 0 .057-.057.114-.114.228-.171.286-.114.743-.114.8-.457h.057c.057 0 .057-.115.115-.115a.576.576 0 0 0 .171-.057v-.057c.057-.057.057-.114.114-.114h.115c0 .057 0 .057-.058.057.058 0 .172-.114.229-.057v-.057c0-.057.114-.229.171-.229.058-.057.115-.057.115-.057.057-.057.057-.114.114-.171h.057c.114 0 .172-.058.229-.058h.057c-.057.115-.114.229-.229.286.057.057.172 0 .286.057.229 0 .229-.4.343-.571.057-.057.114-.114.114-.172v.286h.057v.343h.115c0 .057.057.171.057.229.114-.229.057-.229.057-.172zM19.429 4.686s.057-.057 0 0c.057-.057.114-.115.171-.115.114-.057.171-.057.286-.114l.057-.057c.057 0 .171-.057.228 0 .058 0 .115.057.172.057 0 .057 0 0-.057.057 0 0 0 .057-.057.057h-.058-.057s-.057 0 0 0l-.057.058c-.057 0-.057.057-.114.114l-.057.057h-.057c-.058 0 0-.057 0-.057h-.058c-.057 0-.057.057-.114.057-.171-.114-.171-.114-.228-.114zm.971.628h-.057-.057c-.057 0-.115.057-.172.057-.057 0-.114 0-.114.058-.057 0-.057.057-.114.057s-.057.057-.115.057l-.114.114V5.83L19.6 5.77v-.057l.057-.057.114-.114.058-.057s.057 0 .057-.057l.057-.058h.114c.057 0 .114 0 .229-.057h.114c.057-.057 0-.057 0 0zm.514-.685s-.057 0-.057.057c-.057.057-.114.057-.171.057h-.115v-.057l.058-.057h.114v.057c0-.057.171-.057.171-.057.057 0 0 0 0 0zm.572.457c0 .057-.057.057 0 0-.057.057-.057.057 0 0-.057.057-.057.057-.115.057h-.057s-.057 0-.057-.057v-.057-.058-.057-.057s0-.057.057-.057v-.114c.057 0 .057.057.115 0 .057.057 0 .171 0 .171h.057v.229zm.171.114s-.057.057-.114.057h-.057V5.2v-.114-.057c0 .057.057.057.057.114V5.2h.114zm1.372.286s0-.057 0 0c0-.057 0-.057 0 0 .057-.057.057-.057 0 0zm.228.857s0-.057 0 0c0-.057 0 0 0 0zm.057-.4h-.057v-.057h.057c-.057 0 0 .057 0 .057zm-.057-.4s-.057-.057-.114-.057-.057-.057-.057-.115c.057 0 .057 0 .114.058V5.37c.057 0 .171.058.171.058s0 .057.058.057c-.058 0-.115 0-.172.057zm.229.057c-.057 0-.057 0 0 0-.057-.057-.057-.057 0 0-.057-.057-.057-.057 0 0zm.114.057h-.057c-.057 0-.057-.057-.057-.114h.114v.114zm.057-.228c-.057 0-.114-.058-.171-.058.114 0 .171 0 .228.058h-.057zm1.429.114c-.057 0 0 0 0 0zm1.371 1.028c-.057-.057-.057-.057 0 0-.057-.057-.057-.057 0 0-.057-.057-.057-.057 0 0zM15.83 13.714c-.058 0-.058 0 0 0zm0-.057c-.058 0 0 0 0 0zm1.028 2c-.114 0-.171-.057-.228-.114-.058 0-.058-.114-.058-.172a.123.123 0 0 0-.114-.114v-.171c-.057-.057-.114-.115-.114-.229.114-.057.228-.057.286-.171v-.057h.057c0 .057.057.114.057.114l.114.114v.172c0 .114 0 .4.057.457-.057.114-.057.171-.057.171zm3.429-1.943c-.057.057-.172.115-.229.057-.057 0-.057 0-.057-.057 0-.114.057-.171.114-.285.115.057.172.171.229.228-.057 0-.057.057-.057.057zM26.97 7.6v.057c-.057 0-.057 0 0-.057zm-.171.743c.057.057 0 .114 0 .171v-.171zm-.057.286c0 .057 0 .057 0 0zm-.057 0c.057.057 0 .057.057.114 0 .057-.114.114-.057.228h-.115c-.057 0-.057 0-.114.058v.114c-.057 0-.057-.057-.057-.057v-.172h.057c0-.057-.057-.114-.057-.228.114 0 .229 0 .286-.057zM26.057 8S26 8 26 7.943c-.057-.057-.171-.286-.171-.343h.057c0 .057.057.057.114.114 0 .057 0 .115.057.115l.057.057c.115.114.172.228.286.285h-.114v.058c.057.057.171.114.228.228v.057c-.057 0-.057 0-.057-.057v.057c-.057-.114-.171-.285-.228-.4-.115 0-.115-.114-.172-.114zm0 2.229h.114c0 .057 0 .171.058.171 0 .057 0 .057-.058.114h-.114c0-.057.057-.114 0-.171-.057 0-.057 0-.057.057h-.057c.057-.057.114-.114.114-.171zm-.114 3.085c0-.057 0-.057 0 0l-.057-.057c0 .057 0 .057.057.172h-.057v-.058c-.057 0-.057 0-.057.058h-.058c0-.058.058-.058.058-.172a.314.314 0 0 0-.286.172.446.446 0 0 1 .228-.229v.057h.058v-.114h.057c.057 0 .057-.057.057-.057v.114H26s0 .057-.057.114c.057 0 .057-.057 0 0zm.057.743s0 .057 0 0l-.057.057s0-.057.057-.057zm-.686-1.314c0-.057 0-.057 0 0 .057-.057.115-.057.115 0h.057v.114c-.115-.057-.115-.114-.172-.114zm.515.114l.057-.057c0 .057.057.057.057.114.057 0 .057 0 .057-.057v.057h-.114v-.057c-.057.057-.057 0-.057 0zm0 .172c-.058.057-.115.057-.115 0 0-.058 0-.058.057-.115 0 .057 0 .115.058.115zM25.6 12.8v-.057h.114c0 .057-.057 0-.114.057zm.057.343c-.057-.114 0-.114 0-.172.057 0 0 .115 0 .172zm0-.286v.057c0 .057-.057.057-.114.115v-.172h.114zm.343.172c0-.058 0-.058 0 0 .057 0 0 0 0 0zm-.171-.4c.057 0 .114.057.114.114v.057c-.114 0-.057 0-.114-.057 0 0-.058 0-.058-.057l.058-.057c-.058.057-.058.057 0 0 0 0 0 .057 0 0zM25.6 10.4h.114v.057L25.6 10.4c-.057 0-.057 0 0 0zm-.286 1.086c.057 0 .057 0 0 0 .057.114.057.228 0 .285l-.057-.057c0-.114.057-.171.057-.228zm-.057.914v-.171c.057 0 .172 0 .229-.058 0 .115 0 .286-.115.286V12.63h.229l.057-.058v.058h-.114v.114c-.057 0-.057-.057-.172-.057v.057c-.057 0-.057-.057-.114-.057s-.114.057-.114 0c-.057 0-.114-.115-.114-.172.171-.114.228-.114.228-.114zm-1.371 0c0-.057 0-.114.057-.114.114 0 .171-.057.286 0 0 .057-.058.114-.058.114h-.285zm-.229 2.171h.114v.058c-.057 0-.114 0-.114-.058zm-.286-.057c.115 0 .115.057.172.057v.058c-.114 0-.114-.058-.172-.115zm-1.257-.343H22c0-.057.057-.057.114 0zm.743.458c0-.058-.057-.115-.057-.115-.057-.057-.114-.057-.171-.114-.058-.057-.058-.114-.058-.171 0-.058-.114-.058-.171-.058L22.229 14v-.057c-.058 0-.115-.057-.115-.057v-.057c.115 0 .286 0 .4.057.057 0 .057.057.057.114h.115l.171.171h.114c.115 0 .172.115.229.115v.057c0 .114.057 0 .114.057v.057c.057 0 .115.057.172.057 0 .115-.057.115-.057.229-.286.114-.458.057-.572-.114zm1.657.285s0 .057 0 0c-.171.057-.4 0-.571.057-.114 0-.286.058-.457 0-.057 0-.115-.057-.172-.057.057-.057.229-.114.4-.114.172.057.172 0 .343 0 .172-.057.286.057.4-.057h.114c-.057 0-.171 0-.228.057.057.114.114.114.171.114zm.172.057h-.115.115c0-.057 0-.057 0 0zm.114-.057c0 .057 0 .057 0 0h-.057v-.057l.057.057zm-.114-.343c-.057.058-.115 0-.172-.057-.057 0-.114.057-.171.057-.057 0-.229-.057-.286 0H24c0-.057.057-.114.057-.171h-.114v-.057c0-.057-.057 0-.057-.057v-.057c0-.058.228-.172.343-.115v-.057c0-.114.228-.171.285-.228.057-.058.115-.115.115-.172.057-.057.114 0 .171-.057.057-.057.057-.114.114-.171.172 0 .172.114.343.114 0 .057-.057.057-.114.057h-.057l.057.057s-.057 0-.057.057c-.057.057-.057.172 0 .172 0 .057.057.057.114.114-.057 0-.171.057-.171.114s0 .115-.058.115h-.057v.114c-.057.114-.171.171-.228.228zm.228.343c-.057 0-.057 0 0 0 0-.057.115-.057.172-.114 0 .114-.115.114-.172.114zm.343-.057c.057-.057.172-.057.229-.114-.057.114-.172.057-.229.114zm0-.171c0-.057 0-.057 0 0 .057-.057 0-.057 0 0 0-.057 0-.057 0 0zm.172-.229c-.058-.057-.058-.114-.058-.171h-.057v.285H25.2V14.4h-.057c0-.171.171-.229.171-.343.115 0 .115-.057.172-.114h.171a.314.314 0 0 0 .286-.172c-.057.172-.4.229-.572.286 0 .057 0 .057.058.114a.436.436 0 0 0 .285-.114h.057v.057c-.114 0-.171.115-.285.115 0 .057.057.171.114.171-.057 0-.114.057-.171.057zm.4-.343c0 .057 0 .057 0 0zm-.058.572l-.057.057c0-.057 0-.057.057-.057zm-.171-.515s.057 0 .114-.057c0 .057 0 .057-.057.057H25.6s0 .058 0 0zm.343.515a1.778 1.778 0 0 0-.343.228c0-.114.229-.171.343-.228zm.057-.057s-.057.057-.114.057c0 0 .057 0 .057-.057H26zm.057-.4h-.114v-.058c.057 0 .114 0 .114.058zm0-.4c0-.058.057-.058.114-.172v.057a.123.123 0 0 0 .115-.114c0 .057 0 .057-.057.114v.057h.057c0 .058-.057.058-.115.058 0 .057 0 .057.058.114-.115 0-.115-.114-.172-.114zm.172-.286v0zm0-3.314l.171-.172c0 .057-.057.114-.114.172 0 .057 0 0-.057 0zm.057 4.628s0-.057 0 0l.057-.057c0 .057 0 .057-.057.057zm.114-.743c-.057 0-.114 0-.114.057h-.057c0-.057.057-.057.171-.057zm0-.114h-.057c0-.057 0-.057.057-.057h.057L26.4 14zm.057-3.829v-.114c-.114-.057-.228.057-.286.114h-.057c0-.114.057-.171.115-.228h.171c0-.057 0-.229.057-.286v.057h.057c.057-.057.057-.057.057-.114.115-.114-.057-.286-.057-.4 0 0 .057-.057.057-.114.058.057.115.171.172.171v.286c0 .057.057.114.057.171v.115s-.229.114-.286.114c0 0 0 .057.057.057 0 .057-.057.114-.114.171zm.686 4.115c-.057-.057 0-.057 0-.057h.057c-.057 0-.057 0-.057.057zm.343-.229c0 .057 0 0 0 0 0 .114-.115.114-.229.172-.057 0-.114-.115-.171-.172-.115 0-.172.057-.286 0-.057 0-.114-.057-.114 0 0 0 0 .057-.057.057-.058 0-.058-.057-.115-.057.057 0 .115-.057.172-.057h-.115v-.057h-.057c.057 0 .286-.114.343-.114.057 0 0 0 0 .057h.057c.057 0 .172-.172.229-.229h.286c.057 0 .228-.057.285 0v.057c.057.057.115.057.172.057v.058c0 .114.114.057.171.171-.057 0-.171.057-.228.057V14c-.229-.057-.286 0-.343.057zm-8.457-6.971c-.058 0-.058 0 0 0zm-3.315 3.028c0-.057 0-.057 0 0zm.229-1.828s0-.057.057-.057h.114l.115-.115.057-.057h.171v.057s.114 0 .114.057v.058h-.057c0 .057-.057.114-.057.171 0 0 0 .057.057 0l.057-.057h.058c0-.057 0-.172.057-.114h.228s0 .057-.057.057l-.057.057-.057.057c-.057.057 0 .114 0 .171v.058c0 .057.057.057.057.057V8.97h-.057l-.057-.057s-.057 0-.057-.057L16.57 8.8l-.057-.057a.123.123 0 0 0-.114-.114c-.057 0-.114 0-.171-.058l-.058-.057-.057-.057v.114h-.057H16l-.057-.057.057-.057s.057 0 .057-.057c-.114 0-.114-.057-.114-.114zm1.257.857v-.057-.115-.114s0-.057.057-.057v-.057s-.057-.057 0-.057l.057-.057.057-.058h.229c.057 0 .057-.057.114-.057s.057 0 .057.057H17.943s0 .058-.057.058c0 0 0 .057-.057.057l-.058.057h-.057V8.8c0 .057-.057 0-.057 0-.057 0-.057-.057-.114-.057s0 .057 0 .057h-.057-.057v.057s.057 0 .057.057v.057s0 .058.057.058v.057h.057v.228s0 .057-.057.057l-.057.058v.4h-.229-.057V9.77l-.057-.057v-.057V9.6v-.057-.057-.057-.058c0-.057.057-.057.057-.057v-.057h.114l-.114-.114zm.914 0h-.057s-.057 0-.057-.057v-.057s.057 0 .057-.058c.057-.057.057-.114.057-.114.057 0 .115 0 .115-.057.057 0 .057-.057.114-.057 0 0 .057 0 .057.057v.057s-.057 0-.057.057v.115h-.057s-.057 0-.057.057c0 0 0 .057-.058.057h-.057c.115.057.057.057 0 0 .057.057.057.057 0 0zm.972-2.457c.057-.057.057-.115.114-.115.057-.057.114-.057.114-.114.115-.057.172-.171.286-.171h.057v.057l-.114.114c-.057 0-.057.057-.114.114l-.115.115c-.057.057-.114.057-.114.114s-.057.057-.057.114-.057.057-.057.115c-.057 0-.057.057-.057.114v.114c0 .057-.058.057-.058.114-.057.058-.057.058-.057.115s-.057.057-.057.114-.057.057-.057.114l-.114.115c-.057.057-.172.114-.229.171l-.057.057c-.057.057-.114.114-.171.114 0 0-.058 0-.058-.057l.058-.057c.057-.057.057-.114.114-.114 0 0 .057 0 .057-.057v-.057c0-.058.057-.058.114-.115s.115-.057.115-.114c.057-.057.057-.114.114-.171V7.37c0-.057.057-.057.057-.114s.057-.057.057-.114.057-.057.057-.114c.115-.172.115-.286.172-.343 0 .057 0 .057 0 0zm-.915 1.543s-.057 0-.057.057c0 0-.057 0-.057-.057 0-.058.057-.058.114-.058.058 0 .058-.057.058-.057l.057-.057s.057-.057.114 0c.057 0 0 .057 0 .057s-.057 0-.114.057c0 0 0 .058-.057.058h-.058zm.4-.343v-.057-.058h.115v.058c0 .057 0 .057-.057.057v.057s0 .057-.058.057l-.057.057h-.057c-.057 0 0-.057 0-.057v-.057-.057c0-.057.057-.057.114 0-.057 0-.057 0 0 0-.057.057-.057 0 0 0zM21.43 5.77h.228s0-.057.057-.057c0 0 .057 0 .057-.057.058 0 .058-.057.115-.057h.057v.171h-.057-.057-.058-.057-.057s-.057 0-.057.058l-.057.057h-.057c-.057 0-.057-.057-.057-.057V5.77v-.057c-.058 0-.058 0 0 .057zm-3.772.743s-.057 0 0 0c-.057.057-.057.057-.114.057h-.057v-.057s0-.057.057-.057h.114c.057-.057 0-.057 0 .057 0-.057 0-.057 0 0zm.114.057c0-.057 0-.057 0 0v-.057s0-.057.058-.057h.114v.114c-.114-.057-.114-.057-.172 0 .058 0 .058 0 0 0z"/><g fill="#1C3F94"><path d="M42.8 29.6v-8h1.086l4.229 6.286V21.6h1.028v8h-1.086l-4.228-6.286V29.6zM50.629 26.686c0-1.086.286-1.886.914-2.4.514-.457 1.086-.629 1.829-.629.8 0 1.428.286 1.943.8.514.515.742 1.257.742 2.172 0 .743-.114 1.314-.342 1.771a2.64 2.64 0 0 1-.972.972c-.4.228-.914.342-1.428.342-.8 0-1.486-.285-1.943-.8-.457-.457-.743-1.257-.743-2.228zm1.028 0c0 .743.172 1.314.515 1.657.343.343.743.571 1.2.571.514 0 .914-.171 1.2-.571.343-.4.514-.914.514-1.714 0-.743-.171-1.257-.514-1.657-.343-.343-.743-.572-1.2-.572-.515 0-.915.172-1.2.572-.286.4-.515.971-.515 1.714zM57.772 29.6v-1.143h1.143V29.6zM67.6 29.6h-.971v-6.286c-.229.229-.572.458-.914.686-.343.229-.743.4-1.029.514v-.971c.571-.286 1.029-.571 1.429-.914.4-.343.685-.743.857-1.086h.628V29.6zm5.886-2.286l.971-.114c0 .629.115 1.029.343 1.257.229.229.515.343.857.343.286 0 .515-.057.686-.171.172-.115.343-.286.4-.515.057-.228.114-.571.114-1.028v-5.543h1.086v5.486c0 .685-.057 1.2-.228 1.543-.172.342-.4.628-.743.857a2.724 2.724 0 0 1-1.257.285c-.686 0-1.258-.228-1.6-.628-.458-.343-.629-.972-.629-1.772zm5.886-.628c0-1.086.285-1.886.914-2.4.514-.457 1.086-.629 1.829-.629.8 0 1.428.286 1.942.8.515.515.743 1.257.743 2.172 0 .743-.114 1.314-.343 1.771a2.64 2.64 0 0 1-.971.972 3.098 3.098 0 0 1-1.429.342c-.8 0-1.485-.285-1.942-.8-.458-.457-.743-1.257-.743-2.228zm1.028 0c0 .743.172 1.314.515 1.657.342.343.742.571 1.2.571.514 0 .914-.171 1.2-.571.342-.4.514-.914.514-1.714 0-.743-.172-1.257-.514-1.657-.343-.343-.743-.572-1.2-.572-.515 0-.915.172-1.2.572-.286.4-.515.971-.515 1.714zm6.686 2.914h-.914v-8h.971v2.857c.4-.514.972-.8 1.6-.8.343 0 .686.057 1.029.229.343.171.571.343.8.628.228.286.343.572.457.972.114.343.171.743.171 1.2 0 .971-.228 1.771-.743 2.286-.514.514-1.085.8-1.771.8-.686 0-1.2-.286-1.6-.858v.686zm0-2.914c0 .686.114 1.2.286 1.486.285.514.743.742 1.257.742.457 0 .8-.171 1.143-.571.285-.4.457-.914.457-1.657s-.172-1.314-.457-1.657a1.407 1.407 0 0 0-1.086-.515c-.457 0-.8.172-1.143.572-.286.343-.457.857-.457 1.6zm8.686.343l1.028-.115c.057.4.172.743.343.972.172.228.457.457.8.628.343.172.8.229 1.257.229.4 0 .743-.057 1.086-.171.343-.115.514-.286.686-.515.171-.228.228-.457.228-.685 0-.229-.057-.458-.228-.686-.172-.229-.4-.343-.743-.457-.229-.057-.686-.229-1.429-.4-.743-.172-1.257-.343-1.543-.515-.4-.228-.685-.457-.857-.742a1.926 1.926 0 0 1-.285-.972c0-.4.114-.8.342-1.143a2.101 2.101 0 0 1 1.029-.8 4.047 4.047 0 0 1 1.486-.285c.571 0 1.143.114 1.6.285.457.172.8.457 1.028.857.229.4.4.8.4 1.258l-1.028.057c-.057-.515-.229-.915-.572-1.143-.343-.286-.8-.4-1.371-.4-.629 0-1.086.114-1.429.343-.343.228-.457.514-.457.857 0 .286.114.514.286.686.228.171.743.4 1.6.571.857.171 1.428.343 1.771.514.457.229.8.515 1.029.8.228.343.343.686.343 1.143 0 .4-.115.8-.343 1.2-.229.4-.572.686-1.029.857-.457.172-.971.343-1.543.343-.742 0-1.314-.114-1.828-.343-.514-.228-.857-.514-1.143-.971-.343-.229-.514-.743-.514-1.257zm7.943-4.286V21.6h.971v1.143h-.971zm0 6.857v-5.828h.971V29.6h-.971zm4.857-.857l.114.857c-.286.057-.514.114-.743.114-.343 0-.628-.057-.857-.171-.171-.114-.343-.286-.4-.457-.057-.172-.114-.572-.114-1.143v-3.371h-.743v-.743h.743V22.4l.971-.571v2.057h.972v.743h-.972V28c0 .286 0 .457.057.514.057.058.115.172.172.172.057.057.171.057.343.057h.457zm5.143-1.029l1.028.115c-.171.571-.457 1.028-.914 1.371-.457.343-.972.514-1.657.514-.857 0-1.543-.285-2-.8-.515-.514-.743-1.257-.743-2.228 0-.972.228-1.714.743-2.286a2.627 2.627 0 0 1 1.943-.8c.8 0 1.428.286 1.885.8.515.514.743 1.257.743 2.229v.285H110.4c.057.629.229 1.143.515 1.486.342.343.742.514 1.2.514.342 0 .685-.114.914-.285.343-.172.514-.457.686-.915zm-3.258-1.542h3.258c-.058-.515-.172-.858-.4-1.086-.286-.4-.743-.572-1.2-.572-.458 0-.858.172-1.143.458-.286.285-.457.685-.515 1.2zm9.086-3.429V21.6h.972v1.143h-.972zm0 6.857v-5.828h.972V29.6h-.972zm2.686 0v-5.828h.914v.8c.4-.629 1.029-.972 1.829-.972.343 0 .685.057.971.172.286.114.514.285.686.514.171.228.228.457.286.743.057.171.057.514.057.971v3.543H126V26c0-.4-.057-.686-.114-.914-.057-.172-.229-.343-.4-.457-.171-.115-.4-.172-.686-.172-.4 0-.8.115-1.085.4-.286.286-.458.743-.458 1.543v3.2h-1.028zm9.886 0v-8h1.6l1.885 5.657c.172.515.286.915.4 1.2.115-.285.229-.743.4-1.257l1.943-5.6h1.429v8h-1.029v-6.686L136.4 29.6h-.971l-2.343-6.8v6.8h-.971zm13.257-.686a4.15 4.15 0 0 1-1.029.629 3.327 3.327 0 0 1-1.086.171c-.628 0-1.142-.171-1.485-.457-.343-.285-.515-.685-.515-1.2 0-.285.058-.571.172-.8.114-.228.286-.4.514-.571l.686-.343c.171-.057.457-.114.857-.171.8-.115 1.371-.229 1.771-.343V25.6c0-.4-.114-.686-.285-.857-.229-.229-.629-.343-1.143-.343-.457 0-.8.057-1.029.229-.228.171-.4.457-.514.857l-.971-.114c.114-.4.228-.743.457-.972.228-.228.514-.457.857-.571.4-.115.8-.229 1.314-.229s.914.057 1.2.172c.286.114.514.285.686.457.171.171.228.4.286.685.057.172.057.458.057.915v1.314c0 .914 0 1.486.057 1.714.057.229.114.457.228.686h-1.028c.057-.114-.057-.4-.057-.629zm-.115-2.228c-.342.171-.914.286-1.6.4-.4.057-.685.114-.857.171-.171.057-.285.172-.4.343-.114.114-.114.286-.114.457 0 .286.114.457.286.629.171.171.514.286.857.286.4 0 .743-.058 1.028-.229.286-.171.515-.4.629-.686.114-.228.171-.571.171-.971v-.4zM148 29.6v-8h.972v8zM154.515 28.914a4.15 4.15 0 0 1-1.029.629 3.327 3.327 0 0 1-1.086.171c-.628 0-1.143-.171-1.485-.457-.343-.285-.515-.685-.515-1.2 0-.285.057-.571.172-.8.114-.228.285-.4.514-.571l.686-.343c.171-.057.457-.114.857-.171.8-.115 1.371-.229 1.771-.343V25.6c0-.4-.114-.686-.285-.857-.229-.229-.629-.343-1.143-.343-.457 0-.8.057-1.029.229-.228.171-.4.457-.514.857l-.972-.114c.115-.4.229-.743.458-.972.228-.228.514-.457.857-.571.4-.115.8-.229 1.314-.229s.914.057 1.2.172c.286.114.514.285.686.457.171.171.228.4.285.685.058.172.058.458.058.915v1.314c0 .914 0 1.486.057 1.714.057.229.114.457.228.686h-1.028c.057-.114 0-.4-.057-.629zm-.058-2.228c-.342.171-.914.286-1.6.4-.4.057-.685.114-.857.171-.171.057-.285.172-.4.343-.114.114-.114.286-.114.457 0 .286.114.457.286.629.171.171.514.286.857.286.4 0 .743-.058 1.028-.229.286-.171.515-.4.629-.686.114-.228.171-.571.171-.971v-.4zm2.686 5.143l-.114-.915c.228.058.4.115.571.115.229 0 .4-.057.515-.115.114-.057.228-.171.342-.285.058-.115.172-.343.286-.743 0-.057.057-.114.114-.229l-2.228-5.828h1.086l1.2 3.371c.171.4.285.857.4 1.372.114-.458.228-.915.4-1.315l1.257-3.371h.971l-2.228 5.886c-.229.628-.4 1.085-.572 1.314-.171.343-.4.571-.628.686-.229.114-.515.228-.8.228-.115-.057-.343-.057-.572-.171zm5.486-3.943l.971-.172c.057.4.229.686.457.915.229.228.572.285 1.029.285.457 0 .8-.114 1.029-.285.228-.172.342-.4.342-.629a.6.6 0 0 0-.285-.514c-.115-.114-.457-.172-1.029-.343a9.623 9.623 0 0 1-1.486-.457 1.239 1.239 0 0 1-.628-.572c-.172-.228-.229-.514-.229-.8 0-.285.057-.514.172-.742.114-.229.285-.4.457-.572.171-.114.343-.228.628-.286.286-.057.572-.114.858-.114.457 0 .857.057 1.2.172.342.114.571.285.742.514.172.228.286.514.343.914l-.971.114c-.057-.285-.172-.514-.4-.685-.229-.172-.514-.229-.914-.229-.458 0-.8.057-.972.229-.171.171-.286.343-.286.514 0 .114.058.229.115.343.057.114.228.171.4.286.114.057.4.114.857.228.686.172 1.2.343 1.486.457.285.115.514.286.628.515.114.228.229.514.229.857 0 .343-.115.628-.286.914-.171.286-.457.514-.8.686-.343.171-.743.228-1.2.228-.743 0-1.314-.171-1.714-.457-.4-.228-.629-.686-.743-1.314zm6.228-5.143V21.6h.972v1.143h-.972zm0 6.857v-5.828h.972V29.6h-.972zm6.458-.686a4.15 4.15 0 0 1-1.029.629 3.327 3.327 0 0 1-1.086.171c-.628 0-1.143-.171-1.485-.457-.343-.285-.515-.685-.515-1.2 0-.285.057-.571.172-.8.114-.228.285-.4.514-.571l.686-.343c.171-.057.457-.114.857-.171.8-.115 1.371-.229 1.771-.343V25.6c0-.4-.114-.686-.285-.857-.229-.229-.629-.343-1.143-.343-.457 0-.8.057-1.029.229-.228.171-.4.457-.514.857l-.972-.114c.115-.4.229-.743.458-.972.228-.228.514-.457.857-.571.4-.115.8-.229 1.314-.229s.914.057 1.2.172c.286.114.514.285.686.457.171.171.228.4.285.685.058.172.058.458.058.915v1.314c0 .914 0 1.486.057 1.714.057.229.114.457.228.686h-1.028c.057-.114 0-.4-.057-.629zm-.058-2.228c-.342.171-.914.286-1.6.4-.4.057-.685.114-.857.171-.171.057-.285.172-.4.343-.114.114-.114.286-.114.457 0 .286.114.457.286.629.171.171.514.286.857.286.4 0 .743-.058 1.028-.229.286-.171.515-.4.629-.686.114-.228.171-.571.171-.971v-.4z"/></g></g></svg>