<svg id="Layer_1" data-name="Layer 1" xmlns="http://www.w3.org/2000/svg" width="165" height="33"><defs><style>.cls-2{fill:#1c3f94}</style><clipPath id="clip-path"><path d="M25.19 17.64zm0 0l.11-.09a.24.24 0 0 0-.11.09m-9.64-6zm0 0zm2.24-.8zm0 0zm.13-.28h-.12c-.04 0 0 .08-.07.11h.32a.06.06 0 0 0 0-.06s-.07 0-.1.06m-.7-.33a.21.21 0 0 0-.08 0h-.11v.11a.15.15 0 0 0 0 .06v.08a.12.12 0 0 0 0 .09.13.13 0 0 1 0 .07v.07l-.05.07V11.04l.06.07h.24v-.05a.13.13 0 0 1 0-.06.1.1 0 0 0 0-.06.31.31 0 0 1 0-.05h.05a.14.14 0 0 0 0-.05.56.56 0 0 0 0-.05v-.05h-.06a.5.5 0 0 1 0-.05h.12v-.06c0-.06.07 0 .1 0h.06v-.06-.05c0-.05 0 0 0 0h-.25a.16.16 0 0 0-.07 0zm.66-.45l-.07.05-.07.06s-.07 0-.08.07h.08V10c0-.07.06 0 .08 0s0 0 0-.06h-.07m-2.17.44h.06zm.38-.49h-.05a.71.71 0 0 0-.11.11v.07a.14.14 0 0 1 0 .07h-.05v-.05-.06c0-.01 0 0 0 0l.05.06H16c.06 0 .08.07.11.11v.07H16.33a.2.2 0 0 0 0-.08v-.09a.1.1 0 0 0 0-.07.39.39 0 0 1 0-.07v-.07-.16l.05-.05v-.06c0-.06 0 0 0 0h-.14c-.06 0 0 .1 0 .13a.06.06 0 0 0-.05 0h-.07s.07-.09.06-.15-.06 0-.09-.05zm2.1-.22a.13.13 0 0 1 0 .07h-.06v.07a.06.06 0 0 0 .05 0h.06a.17.17 0 0 0 0-.07m-2.72 0v.32c0-.06.07-.16.09-.23s0-.3.1-.4a3 3 0 0 0-.14.34m.25 1.23a.16.16 0 0 1 0-.07h.17a.2.2 0 0 1 0 .07h-.13m-.34-.28l-.07-.07v-.1c0 .06.08.08.08.18m.14-1.56l-.08.14a.15.15 0 0 1 0 .1 6.49 6.49 0 0 0-.4.94v.5s.06-.1.08-.15.06.1.1.22a1.5 1.5 0 0 0 .19.31h.11v.11c.27 0 .25-.26.38-.4a.17.17 0 0 0-.07-.06h-.15v-.05s-.06 0-.09-.09 0 0-.06 0a1.18 1.18 0 0 1 .06-.23.11.11 0 0 1 0-.06h.05s.09-.1 0-.2 0 0 0 .07a.34.34 0 0 0 0-.09.29.29 0 0 0 0 .22.2.2 0 0 1-.14.17v-.32-.06c0-.06 0 0 0 0a.67.67 0 0 1 0-.11h.07v-.24c0-.08 0 0-.07 0s-.05.12-.15.12 0 0 0 .05a.33.33 0 0 1 0-.21v.08c.15-.05.08-.28.13-.45a2.19 2.19 0 0 0 .14-.32zm7.89-.5zm-6-.41h-.16v-.05m.2 0v.05a.13.13 0 0 0 0-.06v-.07M19.12 8.06a.58.58 0 0 0-.28.16l-.13.1a.81.81 0 0 0-.11.13c0 .05 0 .11-.07.16l-.05.08-.06.09a.35.35 0 0 0-.05.08v.08a.36.36 0 0 1-.09.14.66.66 0 0 1-.13.12c-.05 0-.11 0-.13.09a.14.14 0 0 1 0 .07h-.07c-.05 0-.08.08-.12.11s0 0 0 .06 0 0 .05 0 .12-.07.17-.1a1.34 1.34 0 0 0 .21-.17l.08-.08.07-.08.05-.1a.4.4 0 0 1 .11 0 .19.19 0 0 0 .06-.1v-.11a.16.16 0 0 1 .06-.09.26.26 0 0 0 .08-.1.82.82 0 0 1 0-.11.38.38 0 0 1 .11-.1l.1-.08.09-.09a.76.76 0 0 0 .12-.09zm3.93-.48zm-1.86 0h-.39V7.7H21.27a.37.37 0 0 1 0-.06zm-1.75-1zm.79-.44h-.16a.18.18 0 0 0 .16 0m3.39 10h.05-.09zm.16 0h.06-.06m.11 0c0-.06.14 0 .2-.08 0 .08-.13 0-.2.09m-.36-.1h.09-.21.18a1 1 0 0 1-.23 0 1.23 1.23 0 0 0-.27 0 1 1 0 0 1-.4 0 .64.64 0 0 0-.16 0 .44.44 0 0 1 .38-.08.48.48 0 0 0 .29 0 .47.47 0 0 1 .17 0h.07a.22.22 0 0 0 .12 0m1.63 0l-.06.06zm-.94 0c.06 0 .18 0 .24-.07 0 .07-.16 0-.23.08zm.62-.15a1 1 0 0 0-.31.21c0-.13.2-.16.29-.22M16.33 16.64s0-.09-.05-.14-.08-.08-.09-.12v-.14a1 1 0 0 1-.1-.22c.11 0 .21-.06.25-.16v.12s.07.07.09.13a.36.36 0 0 1 0 .16 1 1 0 0 0 0 .41.35.35 0 0 1 0 .1.3.3 0 0 1-.22-.08m8.49-.87h.3-.09zm-2 0h.3-.1m-.25-.08c.09 0 .09 0 .17.07-.11 0-.1 0-.16-.09m3.43-.3a.15.15 0 0 1 0 .06v-.06m-1.07 0h.11H25zm-.33 0h.08v.06h-.06m-3.31-.06h.11a.18.18 0 0 1-.11 0m3.86 0l.15-.07h.07-.28zm-.26-.1zm.41-.13a.2.2 0 0 1 0 .06h-.05v-.06m-3.25.63a.9.9 0 0 0-.06-.1s-.11 0-.15-.09 0-.09-.06-.14-.11-.05-.16-.08a.79.79 0 0 1-.16-.13h-.12a.86.86 0 0 1 .36 0s0 .07.07.09h.1l.15.16h.13c.08 0 .14.1.21.13a.1.1 0 0 1 0 .06.06.06 0 0 1 .05 0 .41.41 0 0 1 0 .07l.16.07v.2a.59.59 0 0 1-.5-.21m2.15-.19h-.07c0-.18.14-.2.16-.34s.08-.07.13-.09h.16a.38.38 0 0 0 .24-.24c0 .18-.36.19-.52.27a.12.12 0 0 0 0 .09.44.44 0 0 0 .27-.1h.05s-.15.08-.25.1 0 .14.12.14-.06.06-.11.08a.72.72 0 0 1-.08-.14v.25c0 .1-.05 0-.08 0a.54.54 0 0 1 0-.15m2.34-.54h.16c0 .1.1.07.14.14l-.21.07a.15.15 0 0 1 0-.05.36.36 0 0 0-.27.07s-.14 0-.22.1-.11-.12-.14-.16a1.27 1.27 0 0 1-.24 0h-.12c-.04 0 0 0 0 0a.21.21 0 0 1-.08-.05.36.36 0 0 0 .13-.06h-.15-.07c.05 0 .28-.12.33-.09s0 0 0 .07h.07c.05 0 .18-.14.2-.19h.26a.58.58 0 0 1 .25 0m-1.3 0c0 .07 0 .07-.07.1h.05-.1c-.04 0 0 .07 0 .09 0-.05 0-.15-.1-.17s.06-.08.08-.13 0 0 0 .07a.32.32 0 0 0 .12-.09M25.33 14.65a.11.11 0 0 1 0 .06.16.16 0 0 1 0-.06m-1.84.5s.2-.14.28-.19.08-.11.11-.14.11 0 .15-.07 0-.11.08-.16.14.08.3.08-.07 0-.1.06h-.06a.17.17 0 0 0 0 .18c0 .05.06 0 .1.08a.45.45 0 0 0-.18.11V15.33a.47.47 0 0 1-.18.13h-.38a.24.24 0 0 0-.18 0h-.23l.08-.15h-.13c-.04 0 0 0 0 0s-.06 0-.07-.07a.06.06 0 0 1 0-.06c0-.07.23-.16.32-.08zM19.54 15h-.06c-.06 0 0-.15.08-.26s.14.14.21.21 0 0 0 .06a.13.13 0 0 1-.13.07.13.13 0 0 1-.1 0m5.36-.58l.06-.07a.33.33 0 0 1 0 .1.18.18 0 0 1 0 .13v.14a.07.07 0 0 0-.07 0h-.07v-.13a.43.43 0 0 0-.28.13c.06-.11.13-.13.22-.21h.08M24.65 14.47v.16c0-.09 0-.1.07-.17m.05.09a.19.19 0 0 1 0-.09s0 .06.09.07h-.09m-.2-.16h.15a.13.13 0 0 1 0 .07c0 .05-.06.05-.1.09s0-.1 0-.15m.28 0h.05a.13.13 0 0 1 0 .1h.07-.13v-.06h-.06m-.17-.14h.09-.1a.14.14 0 0 1 0-.06m-.3 0a.13.13 0 0 1 .09 0c-.1 0-.1 0-.16-.08m.45 0s.05 0 .08.07a.19.19 0 0 1 0 .08c-.11 0-.05 0-.09-.07zm-1.76-.24a.21.21 0 0 1 0-.11.68.68 0 0 1 .24 0c0 .07 0 .09-.07.13H22.93m1.47.08c-.08 0-.09-.1-.11-.18h.07a.49.49 0 0 0 0-.18 1.72 1.72 0 0 0 .2-.05c0 .09 0 .24-.1.28a.21.21 0 0 0 0 .09h.32c.08 0 0 0 0 0a.14.14 0 0 1-.09 0 .11.11 0 0 0 0 .06c-.07 0-.06-.05-.15-.06s0 0 0 .06-.06 0-.08-.07h-.1m-.07-.81c0-.12.05-.16.08-.24a.6.6 0 0 1 0 .25h-.05m.3-1.26a.19.19 0 0 1 .09 0h-.09m.46-.13h.09v.28h-.07v-.17c-.06 0 0 0-.07.05a.28.28 0 0 1 .09-.16m.15 0a1.17 1.17 0 0 0 .13-.11.3.3 0 0 1-.1.16h-.06m.27-.51s.06-.06.08-.11-.06-.24-.07-.37a.16.16 0 0 0 0-.08.48.48 0 0 0 .15.18v.27c0 .09.06.12.06.14v.12a.85.85 0 0 1-.26.1.37.37 0 0 1-.08.14v-.12c0-.03-.2.07-.25.12a.4.4 0 0 1 .12-.2.25.25 0 0 1 .14 0v-.27a.16.16 0 0 1 0 .07zm.12-.95s0 .07.08.08-.1.12 0 .19a.1.1 0 0 1-.08 0 .12.12 0 0 0-.09 0v.08a.13.13 0 0 1-.08-.07v-.13h.07c0-.08-.06-.1-.07-.19h.15a.1.1 0 0 0 .08 0M25.84 10.07v.14a.53.53 0 0 1 0-.15m-.64-.2s0-.12-.07-.16h-.07a.88.88 0 0 1-.18-.31.78.78 0 0 0 .08.09v.12h.08a2.22 2.22 0 0 0 .27.28h-.08l.2.2h-.07a.06.06 0 0 0 0 .06l-.22-.38m.74-.52v0m-.5-.84zm-2.9-.19a.12.12 0 0 1 0-.05.16.16 0 0 1 0 .05m0-.37h.05a.33.33 0 0 1 .11.08h-.07m.21-.33a.13.13 0 0 1 .09 0 .1.1 0 0 0-.08 0l-.06-.08M22.34 7.4zm.36-.05a.27.27 0 0 1 .19 0v.05a.54.54 0 0 1-.18-.05m-.26-.08h.16v.06s-.09.08-.13.09a.59.59 0 0 0-.1-.06s0-.07-.07-.1 0 0 .09 0zm-2.8 0a.56.56 0 0 0 .18 0h.07v.05H19.49l-.08.05-.09.06-.1.09a.11.11 0 0 1 0 .07l-.05-.08a.06.06 0 0 1 0-.06l.07-.06.11-.08H19.47l.08-.05H19.7zm1.25 0a.13.13 0 0 1 0-.06V7l.07.09v.07l-.09.07m0-.49v.17a.44.44 0 0 1 0 .2h-.14a.1.1 0 0 1 0-.06v-.07a.17.17 0 0 1 0-.06v-.06a.13.13 0 0 0 0-.08h.07m-.76 0a.72.72 0 0 0 0-.07h.29-.06a.28.28 0 0 1-.16.06h-.1M19 6.7l.11-.07c.08 0 .17-.08.24-.12a.5.5 0 0 1 .21 0h.13H19.48l-.11.08h-.14v-.06c0-.06 0 0 0 0H19M23 6s0 .11.07.14l.12.05v.07c0 .07.07 0 .09.08s0 .06 0 .1a1.88 1.88 0 0 0 .23.21h-.16a2.52 2.52 0 0 1-.6 0 2 2 0 0 0-.51 0c-.05 0-.1.09-.16.11h-.17a.45.45 0 0 1-.3 0h-.13a.48.48 0 0 1-.29-.18h-.29a.37.37 0 0 0-.11-.06.28.28 0 0 1 0-.09 1.56 1.56 0 0 0-.34-.12.31.31 0 0 0-.14 0h-.17c0-.05.07-.07.11-.09s-.62-.13-.81-.13a.27.27 0 0 1-.14 0l-.4.11h-.1a6.57 6.57 0 0 0-2.67 2h.11c.05 0 .09 0 .11-.06a.56.56 0 0 1 .07-.14.14.14 0 0 1 .07 0 .1.1 0 0 1 .07 0 .36.36 0 0 1 0 .07h-.05c-.05 0-.06 0-.07.05s0 0-.07.06a.05.05 0 0 1 0 .06v.05h.07v.06c0 .06.09 0 .11-.07s.09-.06.13 0 0 0 .05 0 .05-.06.06-.09 0-.07.06-.06h.31a.11.11 0 0 0 0-.09c0-.06-.14 0-.19-.06a.09.09 0 0 1 0-.09.21.21 0 0 1 .13.11c.08-.06.17-.1.26-.15l.1-.07.1-.05a.19.19 0 0 0 .08-.06v-.06c0-.01-.07 0-.1 0l-.09.07h-.2c-.06 0-.1.1-.17.13L17 8h-.09a.08.08 0 0 1-.07 0 .36.36 0 0 1 0 .07H16.72l-.06.05a.35.35 0 0 1-.13.08h-.07c-.01 0 0-.06 0-.08v-.13a.23.23 0 0 1 .1-.1h.07v-.06a.12.12 0 0 1 .05-.06v-.06c0-.06-.06 0-.06 0v.05h-.1H17.35A.58.58 0 0 0 18 7.4h.1l.08-.06h.19-.11s-.08 0-.08.05h.09v.06a.15.15 0 0 0 0 .07v.08a.1.1 0 0 1 0 .07h-.07a.27.27 0 0 1-.09 0h-.05c.01 0 0 0 0 0h-.08s-.06 0 0 .06 0 0 0 .06v.07a.07.07 0 0 0 .08 0v-.07c0-.01-.06.21-.06.21a.06.06 0 0 0 .07 0v-.08V8h.12a.14.14 0 0 1 0 .07s.07-.08.12-.11h.12c.06 0 0 0 0 .06h-.07v.06H18.66h-.06.41a.18.18 0 0 1 .11 0 .08.08 0 0 1 .05.07.29.29 0 0 0 0 .1h.06c.06 0 0 0 0-.07a.32.32 0 0 1 0-.1 1.34 1.34 0 0 1 .17-.22.6.6 0 0 1 .09-.09.08.08 0 0 1 .1 0 .08.08 0 0 1 0 .1l-.07.1v.1l.13-.07a.1.1 0 0 0 0 .09.1.1 0 0 1 0 .08.17.17 0 0 1-.07.06.18.18 0 0 1-.11 0 .21.21 0 0 0-.12 0l-.13.08a.45.45 0 0 0-.12.1.15.15 0 0 0 0 .11.17.17 0 0 1 0 .09l-.1.1a.1.1 0 0 0 0 .11.16.16 0 0 0 .11.07v-.06c0-.06-.11-.07-.11-.11v-.11a.17.17 0 0 0 0-.06l.06-.07a.48.48 0 0 1 .11-.09.14.14 0 0 1 .12 0 .15.15 0 0 0 .12 0 .3.3 0 0 0 .1-.07.23.23 0 0 0 .06-.09s0-.07.06-.07a.12.12 0 0 1 .1.07.1.1 0 0 1 0 .1v.07a.07.07 0 0 0 .06 0 .08.08 0 0 0 .07 0v-.05a.21.21 0 0 1 0-.14.07.07 0 0 0 0-.07.14.14 0 0 0-.07 0h-.08c-.02 0 0 0 0-.06v-.06a.09.09 0 0 0 0-.07v-.06l.06-.06a.14.14 0 0 0 0-.07s0-.07.05 0 0 .07 0 .09a.1.1 0 0 0 0 .08V8c0 .01 0-.06.06-.08s0 0 .08 0h.07v.06a.05.05 0 0 0 0 .07h.08c.01 0 0 0 0 0a.12.12 0 0 1 0-.07.06.06 0 0 1 0-.07h.24v.06c0 .06 0 0 .06 0h.06a.53.53 0 0 1 .1-.15h.13a.31.31 0 0 1 0 .06.29.29 0 0 1 .26 0 .35.35 0 0 0 0 .17c0 .05-.07.06-.1.1s.05 0 .09 0h.09c.04 0 0 0 0 0a.86.86 0 0 0 .28 0 .1.1 0 0 0 0 .07.78.78 0 0 0 .21 0s-.05 0-.06-.11h.17a.16.16 0 0 0 0 .06h.1l.07.06.08.07v.13a.1.1 0 0 0 0 .06.14.14 0 0 0 0 .09.1.1 0 0 0 0 .05.21.21 0 0 0 .08.08l.07.06h.22a.44.44 0 0 1 .19.14c0-.05-.08-.08-.12-.12a.23.23 0 0 1 .1 0h.06a.49.49 0 0 0-.18 0h-.28a.08.08 0 0 0 0 .06.22.22 0 0 1 0-.06.15.15 0 0 1 0-.07 1 1 0 0 0 0-.09h.34a.15.15 0 0 0-.09-.14.37.37 0 0 0 .14 0H22.59a.09.09 0 0 1 .08 0 .1.1 0 0 0 .1 0 .09.09 0 0 1 .06 0 .09.09 0 0 1-.06.08c.08 0 .09-.1.15-.14h.19c.08.07.2.09.28.15s0-.05 0-.1.17-.09.24 0c0-.09-.07-.08-.13-.13a.25.25 0 0 0 .12-.09 2 2 0 0 1 .4 0h.11v-.1c0-.1.13 0 .2 0v.06h.1l.09.07h-.25c-.08 0 .05.05.05.13a.3.3 0 0 1 .25.11v.09a.66.66 0 0 0 .19.28h-.06v.16a.12.12 0 0 1-.05-.05v.16c0 .02.09.08.11.15s.11.11.19.13 0 0 0 .06.21.11.12.19a.9.9 0 0 0 .14.35v.08a3.53 3.53 0 0 1-.28-.21s0-.09-.08-.11-.15-.08-.19-.15 0-.28-.1-.38a.69.69 0 0 1-.09-.13v-.9c0-.07-.12 0-.12-.17a.44.44 0 0 0 .14.2v.05a.24.24 0 0 1-.15-.14c0 .14.06.19.07.31h.07v.05H25v.08h-.07v-.09a.21.21 0 0 0-.19.12h-.07v.07c-.1 0-.1.06-.17.08s0 .47-.07.56h.23a.54.54 0 0 0 0-.11c.14 0 .21.15.27.25s.14.16.18.23 0 .07 0 .1c.08.33-.11.57-.18.78h-.1v.1c0 .05-.2.16-.1.27s-.05 0-.09.07 0 .07-.07.1a.59.59 0 0 1 .29.16s0 .1.07.15-.06.08-.07.16-.1 0-.19.06a1 1 0 0 1 0-.18l-.1-.05c-.1-.05 0-.07 0-.15a.46.46 0 0 0-.14 0v-.18a.57.57 0 0 0-.36.13.25.25 0 0 0 0-.21l-.09.08s0 .12-.08.14a1.36 1.36 0 0 1-.16.06l.06.07h.21a.59.59 0 0 0 .17-.07h.11a.39.39 0 0 1-.13.12H24s0 .16-.09.21.11 0 .16 0a.67.67 0 0 1 0 .15c.08 0 .1.08.16.11a.19.19 0 0 1-.09 0h.08c.03 0 0 .11-.06.18h.17l-.08.05c0 .07-.06 0-.08.09v.18a.44.44 0 0 1 0 .06V13l-.16.21a1.77 1.77 0 0 1-.41.14 1 1 0 0 1-.3.11v.07h-.08a.1.1 0 0 1 0-.07.56.56 0 0 0-.43.22.16.16 0 0 0 0 .08c0 .06.06 0 .11.07l.06.08s.11 0 .15.06.09.13.13.16a.47.47 0 0 1-.28.44h-.11s-.07.08-.1.1h-.09a.17.17 0 0 1 0-.1c0-.12-.14-.09-.2-.14l-.07-.12a.13.13 0 0 0-.09 0h-.11v-.09a.19.19 0 0 0-.12 0v.4a.15.15 0 0 1 .1 0s0 .06.07.12a1 1 0 0 1 .32.13.25.25 0 0 1 0 .2c0 .09.09.12.13.16a.11.11 0 0 1 0 .06.93.93 0 0 1-.47-.27c-.08-.12 0-.25-.18-.3h-.24a1.25 1.25 0 0 1 0-.26.8.8 0 0 0 0-.21h-.09a1.64 1.64 0 0 0-.08-.42c-.07 0-.22.19-.35.08a1.25 1.25 0 0 1-.1-.34h-.08c0-.05-.08-.16-.06-.23h-.08c-.09 0-.09.06-.14.08s-.26 0-.37.07 0 .06 0 .08-.2.1-.27.13-.19.16-.29.21h-.08l-.06.05h-.16v.1c0 .03 0 .17-.09.21a2 2 0 0 1 0 .2h-.06a.77.77 0 0 1-.08.1s-.11 0-.15.08c-.23 0-.21-.18-.27-.35a1.24 1.24 0 0 0-.08-.11c0-.07 0-.13-.07-.2a2.76 2.76 0 0 1-.15-.3.94.94 0 0 1 0-.38.35.35 0 0 1-.23.08 1.62 1.62 0 0 1-.18-.19.37.37 0 0 1 .16 0h-.1c-.01 0 0 0 0 0a1.55 1.55 0 0 1-.27-.28 1.5 1.5 0 0 1-.81-.22l-.1-.15h-.16a1.1 1.1 0 0 1-.26-.26c-.1-.16 0-.31-.26-.32v.13a1 1 0 0 1 0 .13 1.34 1.34 0 0 1 .08.14v.18a.31.31 0 0 0 0-.08h.07v.11c0 .02.31.11.4.06a1.09 1.09 0 0 0 .06.15c0 .06.07 0 .12.07s0 .14.11.17-.13.11-.2.17 0 .08 0 .11a.56.56 0 0 1-.24.11h-.17s-.07.08-.11.1a2.09 2.09 0 0 1-.44 0H16a.14.14 0 0 1-.1 0 1 1 0 0 0-.07-.29v-.33c0-.11-.09-.21-.11-.32s0-.1 0-.13a1.05 1.05 0 0 0-.06-.13v-.23a1.64 1.64 0 0 1-.08-.4v-.21a.86.86 0 0 0 0 .36v.3a1.73 1.73 0 0 1 0 .32 2.29 2.29 0 0 0 0 .26s.07.1.09.12v.3l.1.1a2.23 2.23 0 0 1 .08.22s.07.09 0 .12a.72.72 0 0 1 .12.18 2.4 2.4 0 0 0 .48.06.19.19 0 0 1 .1 0 .61.61 0 0 1-.1.27s-.08 0-.11.08l-.1.2c-.11 0-.13.13-.21.18h-.15a1.3 1.3 0 0 0-.21.18s0 .1-.06.13.06.11.08.17.15.4.21.53 0 .14.05.19-.13.12-.21.14a6.58 6.58 0 0 0 9.48 1.71h-.09c-.02 0 0-.06 0-.08s0 0-.06 0a.07.07 0 0 1 0-.07.5.5 0 0 0-.18.13.26.26 0 0 1 0-.07c-.16 0-.2 0-.33.07l-.29.07-.3.18h-.28s-.05.06-.08.07a.46.46 0 0 1-.37 0s.05 0 .08-.05 0-.36-.07-.4h.19l-.12-.07a.3.3 0 0 1 0-.13s.13-.11.2-.15c.26-.12.68-.13.75-.43h.07c.07 0 .05-.08.09-.11s.13 0 .16 0 0 0 0-.05a.26.26 0 0 1 .13-.1.23.23 0 0 1 .11 0v.07s.13-.11.21-.06a1 1 0 0 1 .13-.23s.09 0 .12-.06.07-.12.13-.13.06 0 .08 0a.31.31 0 0 0 .24-.07 1.2 1.2 0 0 1-.19.28h.24c.07 0 .22-.34.29-.5s.08-.1.11-.16v.25h.06a1.32 1.32 0 0 1 0 .3h.05a.37.37 0 0 1 0 .23v.07A6.58 6.58 0 0 0 25 7.1l-.05-.05H25a.76.76 0 0 1-.15-.15l-.21-.13v.06a.49.49 0 0 1-.18-.11s0-.07-.07-.09-.25 0-.32-.08 0-.06 0-.08a1.12 1.12 0 0 0-.16-.06 1.6 1.6 0 0 1-.18-.11h-.11L23 6m-2.9 0h-.06m-.24 0zm.76-.09a.27.27 0 0 1-.11 0v-.05h-.15.09a.15.15 0 0 0 0 .11V6c.09.07.21 0 .29-.06h.16a2.79 2.79 0 0 1 .62-.12h.76l-.4-.05h-.73a1.13 1.13 0 0 0-.55.08" fill="none"/></clipPath><radialGradient id="radial-gradient" cx="-215.55" cy="394.91" r="1" gradientTransform="matrix(7.98 0 0 -7.98 1740.21 3158.67)" gradientUnits="userSpaceOnUse"><stop offset="0" stop-color="#fffffe"/><stop offset="1" stop-color="#060e9f"/></radialGradient></defs><path class="cls-2" d="M9 3h4.89v8.56a13.25 13.25 0 0 1-.49 4.11A4.65 4.65 0 0 1 11.52 18a6.43 6.43 0 0 1-3.7 1 8.6 8.6 0 0 1-3.7-.64 4.7 4.7 0 0 1-2-1.88 7.22 7.22 0 0 1-.84-3.08l4.65-.63a5.4 5.4 0 0 0 .19 1.55 1.68 1.68 0 0 0 .59.82 1.32 1.32 0 0 0 .79.21 1.3 1.3 0 0 0 1.19-.6A4 4 0 0 0 9 12.71zM28.94 3h4.42v5.44a4.33 4.33 0 0 1 1.49-1 4.8 4.8 0 0 1 1.85-.35 4.46 4.46 0 0 1 3.45 1.51 6.16 6.16 0 0 1 1.37 4.31 8.14 8.14 0 0 1-.63 3.3 4.65 4.65 0 0 1-1.74 2.13 4.65 4.65 0 0 1-4.55.2 5.55 5.55 0 0 1-1.6-1.48v1.69h-4.1zm4.39 10a3.38 3.38 0 0 0 .55 2.14 1.79 1.79 0 0 0 1.41.66 1.63 1.63 0 0 0 1.31-.65 3.46 3.46 0 0 0 .53-2.15 3 3 0 0 0-.53-2 1.54 1.54 0 0 0-1.26-.64 1.84 1.84 0 0 0-1.47.66 3 3 0 0 0-.56 2M41.95 13.53l4.64-.29a3.52 3.52 0 0 0 .6 1.76 2.58 2.58 0 0 0 2.15 1 2.36 2.36 0 0 0 1.6-.49 1.46 1.46 0 0 0 .57-1.14A1.44 1.44 0 0 0 51 13.2a6.34 6.34 0 0 0-2.49-.91 10.61 10.61 0 0 1-4.57-1.91 3.83 3.83 0 0 1-1.37-3A4.09 4.09 0 0 1 43.23 5a4.63 4.63 0 0 1 2.12-1.7 9.85 9.85 0 0 1 3.89-.62 7.92 7.92 0 0 1 4.6 1.13 4.82 4.82 0 0 1 1.89 3.57l-4.59.27a2.39 2.39 0 0 0-.78-1.54 2.43 2.43 0 0 0-1.61-.49 1.94 1.94 0 0 0-1.28.38 1.09 1.09 0 0 0-.43.88.89.89 0 0 0 .34.67 4.07 4.07 0 0 0 1.62.6 19.67 19.67 0 0 1 4.57 1.4 4.66 4.66 0 0 1 2 1.74 4.42 4.42 0 0 1 .63 2.33 5 5 0 0 1-.84 2.8 5.31 5.31 0 0 1-2.35 1.95 9.54 9.54 0 0 1-3.8.65q-4 0-5.57-1.54a6.09 6.09 0 0 1-1.75-3.93M62.59 3v4.33H65v3.19h-2.41v4.06a2.19 2.19 0 0 0 .14 1 .8.8 0 0 0 .76.37 5.06 5.06 0 0 0 1.36-.28l.32 3a14.48 14.48 0 0 1-3 .35 5.33 5.33 0 0 1-2.41-.42 2.58 2.58 0 0 1-1.15-1.27 7.59 7.59 0 0 1-.37-2.77v-4h-1.65V7.33h1.61v-2.1zM66 7.33h4.1V9.2a4.47 4.47 0 0 1 1.21-1.67 2.56 2.56 0 0 1 1.56-.47 4.62 4.62 0 0 1 2.13.61l-1.35 3.12a3.45 3.45 0 0 0-1.23-.33 1.51 1.51 0 0 0-1.33.71 7.23 7.23 0 0 0-.68 3.74v3.83H66zM87.68 14.13h-8.77a2.77 2.77 0 0 0 .57 1.57 2.08 2.08 0 0 0 1.66.75 2.52 2.52 0 0 0 1.22-.33 2.78 2.78 0 0 0 .76-.72l4.31.4a6.1 6.1 0 0 1-2.38 2.47A8.59 8.59 0 0 1 81 19a8.31 8.31 0 0 1-3.57-.63 5.33 5.33 0 0 1-2.16-2 6.18 6.18 0 0 1-.85-3.28 5.78 5.78 0 0 1 1.71-4.34 6.59 6.59 0 0 1 4.75-1.65 8.4 8.4 0 0 1 3.87.75A4.94 4.94 0 0 1 86.94 10a7.83 7.83 0 0 1 .75 3.66zM83.23 12a2.88 2.88 0 0 0-.68-1.82 2.13 2.13 0 0 0-3.12.28 3 3 0 0 0-.51 1.54zM101.27 14.13h-8.78a2.87 2.87 0 0 0 .57 1.57 2.08 2.08 0 0 0 1.66.75 2.53 2.53 0 0 0 1.23-.33 2.8 2.8 0 0 0 .76-.72l4.31.4a6.11 6.11 0 0 1-2.39 2.47 8.57 8.57 0 0 1-4 .75 8.35 8.35 0 0 1-3.63-.65 5.38 5.38 0 0 1-2.16-2 6.22 6.22 0 0 1-.84-3.31 5.76 5.76 0 0 1 1.72-4.34 6.56 6.56 0 0 1 4.74-1.65 8.45 8.45 0 0 1 3.88.75 5 5 0 0 1 2.18 2.18 7.8 7.8 0 0 1 .74 3.66zM96.81 12a2.88 2.88 0 0 0-.68-1.82 2 2 0 0 0-1.45-.55 2 2 0 0 0-1.67.83A3.08 3.08 0 0 0 92.5 12zM107.45 3v4.33h2.41v3.19h-2.41v4.06a2.12 2.12 0 0 0 .15 1 .79.79 0 0 0 .75.37 5.06 5.06 0 0 0 1.35-.28l.32 3a14.5 14.5 0 0 1-3 .35 5.37 5.37 0 0 1-2.41-.42 2.65 2.65 0 0 1-1.15-1.27 7.73 7.73 0 0 1-.36-2.77v-4h-1.62V7.33h1.62v-2.1zM125.71 14.45l4.16.47a5.91 5.91 0 0 1-1.13 2.26 5.22 5.22 0 0 1-2 1.47 7.72 7.72 0 0 1-3.1.53 11.49 11.49 0 0 1-3-.34 5.42 5.42 0 0 1-2.07-1.09 5.63 5.63 0 0 1-1.4-1.75 6.34 6.34 0 0 1-.5-2.71 6.35 6.35 0 0 1 .61-2.93 5.31 5.31 0 0 1 1.2-1.54 5.59 5.59 0 0 1 1.57-1 8.66 8.66 0 0 1 3.28-.53 7.57 7.57 0 0 1 4.26 1 5.25 5.25 0 0 1 2.06 2.92l-4.11.55a1.89 1.89 0 0 0-.71-1.1 2.48 2.48 0 0 0-3.13.41 3.55 3.55 0 0 0-.67 2.35 3.06 3.06 0 0 0 .67 2.13 2.19 2.19 0 0 0 1.7.74 2.32 2.32 0 0 0 1.44-.44 2.63 2.63 0 0 0 .88-1.36M130.23 13.25A5.68 5.68 0 0 1 132 8.94a7.64 7.64 0 0 1 9.94.29 5.78 5.78 0 0 1 1.41 3.94 5.75 5.75 0 0 1-1.75 4.32 6.67 6.67 0 0 1-4.83 1.67 6.75 6.75 0 0 1-4.45-1.39 5.59 5.59 0 0 1-2.09-4.53m4.39 0a3.46 3.46 0 0 0 .61 2.26 2 2 0 0 0 1.56.73 1.94 1.94 0 0 0 1.55-.72 3.55 3.55 0 0 0 .61-2.31 3.34 3.34 0 0 0-.61-2.2 1.9 1.9 0 0 0-1.52-.73 2 2 0 0 0-1.59.75 3.39 3.39 0 0 0-.62 2.23M144.39 7.5h4.08v1.67a5.76 5.76 0 0 1 1.77-1.48 4.89 4.89 0 0 1 2.17-.44 4.13 4.13 0 0 1 2.16.48 3.54 3.54 0 0 1 1.3 1.44 6.66 6.66 0 0 1 1.88-1.52 4.86 4.86 0 0 1 2.1-.4 3.75 3.75 0 0 1 2.87 1.1 4.79 4.79 0 0 1 1 3.41v7.17h-4.39v-6.5a1.85 1.85 0 0 0-.3-1.15 1.33 1.33 0 0 0-1.1-.59 1.55 1.55 0 0 0-1.25.56 2.77 2.77 0 0 0-.47 1.79v5.89h-4.39v-6.3a3.84 3.84 0 0 0-.09-1 1.36 1.36 0 0 0-.48-.69 1.26 1.26 0 0 0-.8-.27 1.55 1.55 0 0 0-1.23.57 2.83 2.83 0 0 0-.49 1.87v5.82h-4.38zM111.65 16.85a2.06 2.06 0 1 1 2.06 2.15 2.09 2.09 0 0 1-2.06-2.11"/><path d="M27.83 12.38a6.58 6.58 0 1 1-6.59-6.58 6.58 6.58 0 0 1 6.58 6.58" fill="#00a94f"/><g clip-path="url(#clip-path)"><path fill="url(#radial-gradient)" d="M15 5.82h12.83v13.14H15z"/></g><path class="cls-2" d="M5.17 29.58v-7.73h1.05l4.06 6.07v-6.07h1v7.73h-1l-4.13-6.07v6.08zM12.72 26.78a2.89 2.89 0 0 1 .87-2.3 2.61 2.61 0 0 1 1.76-.62 2.51 2.51 0 0 1 1.89.76A2.88 2.88 0 0 1 18 26.7a3.71 3.71 0 0 1-.32 1.7 2.29 2.29 0 0 1-.94 1 2.75 2.75 0 0 1-1.35.34 2.52 2.52 0 0 1-1.9-.75 3 3 0 0 1-.77-2.21zm1 0a2.38 2.38 0 0 0 .47 1.61 1.57 1.57 0 0 0 2.36 0 2.45 2.45 0 0 0 .45-1.64 2.32 2.32 0 0 0-.47-1.57 1.57 1.57 0 0 0-2.36 0 2.37 2.37 0 0 0-.48 1.6zM19.56 29.58V28.5h1.08v1.08zM29 29.58h-.95v-6a4.91 4.91 0 0 1-.9.65 6.45 6.45 0 0 1-1 .49v-.92a5.77 5.77 0 0 0 1.39-.91 3.6 3.6 0 0 0 .84-1H29zM34.76 27.39l.92-.13a2 2 0 0 0 .32 1.21 1 1 0 0 0 .82.33 1.21 1.21 0 0 0 .66-.18.91.91 0 0 0 .39-.48 3.19 3.19 0 0 0 .11-1v-5.29h1v5.27a3.82 3.82 0 0 1-.24 1.5 1.67 1.67 0 0 1-.74.81 2.45 2.45 0 0 1-1.2.28 2 2 0 0 1-1.56-.59 2.42 2.42 0 0 1-.48-1.73zM40.41 26.78a2.89 2.89 0 0 1 .87-2.3 2.61 2.61 0 0 1 1.72-.63 2.52 2.52 0 0 1 1.89.76 2.88 2.88 0 0 1 .73 2.09 3.71 3.71 0 0 1-.32 1.7 2.3 2.3 0 0 1-.94 1 2.75 2.75 0 0 1-1.35.34 2.52 2.52 0 0 1-1.9-.75 3 3 0 0 1-.7-2.21zm1 0a2.38 2.38 0 0 0 .47 1.61 1.57 1.57 0 0 0 2.36 0 2.45 2.45 0 0 0 .47-1.64 2.32 2.32 0 0 0-.47-1.57 1.57 1.57 0 0 0-2.36 0 2.37 2.37 0 0 0-.49 1.6zM47.86 29.58H47v-7.73h.95v2.76a1.88 1.88 0 0 1 1.54-.75 2.36 2.36 0 0 1 1 .21 2 2 0 0 1 .76.59 2.82 2.82 0 0 1 .47.91 3.72 3.72 0 0 1 .17 1.14 3.2 3.2 0 0 1-.71 2.23 2.23 2.23 0 0 1-1.71.79 1.78 1.78 0 0 1-1.56-.83zm0-2.84a2.9 2.9 0 0 0 .27 1.46 1.36 1.36 0 0 0 2.29.19 2.46 2.46 0 0 0 .45-1.61 2.49 2.49 0 0 0-.44-1.62 1.32 1.32 0 0 0-1.05-.52 1.36 1.36 0 0 0-1.08.54 2.37 2.37 0 0 0-.45 1.56zM56.19 27.1l1-.08a2.13 2.13 0 0 0 .32 1 1.74 1.74 0 0 0 .78.6 2.94 2.94 0 0 0 1.19.23 2.84 2.84 0 0 0 1-.17 1.44 1.44 0 0 0 .67-.48 1.1 1.1 0 0 0 .22-.66 1 1 0 0 0-.21-.64 1.57 1.57 0 0 0-.7-.46 13.81 13.81 0 0 0-1.38-.44 7 7 0 0 1-1.49-.48 2.1 2.1 0 0 1-.83-.72 1.77 1.77 0 0 1-.27-1 2 2 0 0 1 .33-1.09 2.05 2.05 0 0 1 1-.77 3.69 3.69 0 0 1 1.42-.26 3.88 3.88 0 0 1 1.52.28 2.18 2.18 0 0 1 1 .81 2.34 2.34 0 0 1 .36 1.23l-1 .07A1.59 1.59 0 0 0 60.6 23a2.09 2.09 0 0 0-1.35-.37 2.17 2.17 0 0 0-1.35.37 1 1 0 0 0-.42.82.88.88 0 0 0 .3.69 4.06 4.06 0 0 0 1.54.55 10.29 10.29 0 0 1 1.71.49 2.36 2.36 0 0 1 1 .79 1.92 1.92 0 0 1 .32 1.1 2.1 2.1 0 0 1-.35 1.12 2.32 2.32 0 0 1-1 .85 3.54 3.54 0 0 1-1.49.3 4.45 4.45 0 0 1-1.76-.31 2.47 2.47 0 0 1-1.11-.92 2.61 2.61 0 0 1-.45-1.38zM63.85 22.94v-1.09h.95v1.09zm0 6.64V24h.95v5.6zM68.52 28.73l.14.84a3.5 3.5 0 0 1-.72.08 1.62 1.62 0 0 1-.8-.16.91.91 0 0 1-.4-.43 3.36 3.36 0 0 1-.12-1.12v-3.22h-.7V24h.7v-1.41l.95-.57v2h1v.74h-1V28a1.67 1.67 0 0 0 0 .52.4.4 0 0 0 .16.18.63.63 0 0 0 .32.07zM73.51 27.78l1 .12a2.39 2.39 0 0 1-.86 1.34 2.91 2.91 0 0 1-3.58-.24 3 3 0 0 1-.72-2.12 3.09 3.09 0 0 1 .73-2.19 2.46 2.46 0 0 1 1.92-.84 2.4 2.4 0 0 1 1.84.76 3 3 0 0 1 .71 2.15v.25h-4.22a2.15 2.15 0 0 0 .52 1.41 1.55 1.55 0 0 0 1.17.49 1.46 1.46 0 0 0 .89-.27 1.83 1.83 0 0 0 .6-.86zm-3.12-1.53h3.13a1.89 1.89 0 0 0-.36-1.06 1.46 1.46 0 0 0-1.16-.56 1.51 1.51 0 0 0-1.1.44 1.74 1.74 0 0 0-.51 1.17zM79.11 22.94v-1.09h.95v1.09zm0 6.64V24h.95v5.6zM81.71 29.58V24h.86v.8a2 2 0 0 1 1.78-.92 2.34 2.34 0 0 1 .93.18 1.46 1.46 0 0 1 .64.48 1.82 1.82 0 0 1 .3.7 5.43 5.43 0 0 1 .05.92v3.44h-.95v-3.43a2.58 2.58 0 0 0-.11-.87.92.92 0 0 0-.39-.46 1.25 1.25 0 0 0-.66-.17 1.54 1.54 0 0 0-1 .38 1.9 1.9 0 0 0-.44 1.46v3.06zM93.22 28.73l.14.84a3.51 3.51 0 0 1-.72.08 1.62 1.62 0 0 1-.8-.16.91.91 0 0 1-.4-.43 3.4 3.4 0 0 1-.12-1.12v-3.22h-.7V24h.7v-1.41l.94-.57v2h1v.74h-1V28a1.66 1.66 0 0 0 0 .52.4.4 0 0 0 .16.18.64.64 0 0 0 .33.07zM94.36 29.58v-7.73h.95v2.77a2.12 2.12 0 0 1 1.69-.77 2.26 2.26 0 0 1 1.08.25 1.44 1.44 0 0 1 .66.68 3.14 3.14 0 0 1 .2 1.25v3.55H98V26a1.46 1.46 0 0 0-.31-1 1.14 1.14 0 0 0-.87-.32 1.53 1.53 0 0 0-.79.22 1.24 1.24 0 0 0-.53.59 2.73 2.73 0 0 0-.16 1v3.06zM104.42 27.78l1 .12a2.39 2.39 0 0 1-.86 1.34A2.92 2.92 0 0 1 101 29a3 3 0 0 1-.72-2.12 3.09 3.09 0 0 1 .73-2.19 2.46 2.46 0 0 1 1.89-.78 2.4 2.4 0 0 1 1.84.76 3 3 0 0 1 .71 2.15v.25h-4.18a2.15 2.15 0 0 0 .52 1.41 1.55 1.55 0 0 0 1.17.49 1.45 1.45 0 0 0 .89-.27 1.83 1.83 0 0 0 .57-.92zm-3.12-1.53h3.13a1.9 1.9 0 0 0-.36-1.06 1.46 1.46 0 0 0-1.18-.55 1.51 1.51 0 0 0-1.1.44 1.74 1.74 0 0 0-.49 1.16zM110.14 29.58v-7.73h2.92a7.12 7.12 0 0 1 1.18.07 2.34 2.34 0 0 1 1 .36 1.91 1.91 0 0 1 .62.75 2.52 2.52 0 0 1-.39 2.72 3 3 0 0 1-2.27.68h-2v3.14zm1-4.06h2a2.12 2.12 0 0 0 1.41-.37 1.31 1.31 0 0 0 .42-1 1.4 1.4 0 0 0-.25-.83 1.15 1.15 0 0 0-.65-.46 4.36 4.36 0 0 0-1-.07h-2zM117.44 29.58v-7.73h.95v2.77a2.12 2.12 0 0 1 1.68-.77 2.26 2.26 0 0 1 1.08.25 1.44 1.44 0 0 1 .66.68A3.14 3.14 0 0 1 122 26v3.55h-.95V26a1.46 1.46 0 0 0-.31-1 1.14 1.14 0 0 0-.87-.32 1.53 1.53 0 0 0-.79.22 1.24 1.24 0 0 0-.53.59 2.73 2.73 0 0 0-.16 1v3.06zM123.66 22.94v-1.09h.95v1.09zm0 6.64V24h.95v5.6zM126.24 29.58v-7.73h.95v7.73zM128.87 22.94v-1.09h.95v1.09zm0 6.64V24h.95v5.6zM131.47 31.73V24h.87v.73a2.13 2.13 0 0 1 .69-.64 1.9 1.9 0 0 1 .93-.21 2.22 2.22 0 0 1 1.27.37 2.27 2.27 0 0 1 .83 1 3.81 3.81 0 0 1 .28 1.47 3.75 3.75 0 0 1-.31 1.55 2.35 2.35 0 0 1-2.13 1.42 1.79 1.79 0 0 1-.85-.2 1.93 1.93 0 0 1-.62-.51v2.73zm.86-4.92a2.44 2.44 0 0 0 .44 1.6 1.34 1.34 0 0 0 1.06.52 1.37 1.37 0 0 0 1.08-.54 2.54 2.54 0 0 0 .45-1.66 2.47 2.47 0 0 0-.44-1.6 1.33 1.33 0 0 0-1.05-.53 1.37 1.37 0 0 0-1.07.57 2.53 2.53 0 0 0-.47 1.64zM137.69 31.73V24h.87v.73a2.13 2.13 0 0 1 .69-.64 1.9 1.9 0 0 1 .93-.21 2.22 2.22 0 0 1 1.27.37 2.27 2.27 0 0 1 .83 1 3.81 3.81 0 0 1 .28 1.47 3.75 3.75 0 0 1-.31 1.55 2.35 2.35 0 0 1-2.13 1.42 1.79 1.79 0 0 1-.85-.2 1.93 1.93 0 0 1-.62-.51v2.73zm.86-4.92a2.44 2.44 0 0 0 .44 1.6 1.34 1.34 0 0 0 1.06.52 1.37 1.37 0 0 0 1.08-.54 2.54 2.54 0 0 0 .45-1.66 2.47 2.47 0 0 0-.44-1.6 1.33 1.33 0 0 0-1.05-.53 1.37 1.37 0 0 0-1.07.57 2.53 2.53 0 0 0-.47 1.64zM143.91 22.94v-1.09h.95v1.09zm0 6.64V24h.95v5.6zM146.51 29.58V24h.86v.8a2 2 0 0 1 1.78-.92 2.34 2.34 0 0 1 .93.18 1.46 1.46 0 0 1 .64.48 1.82 1.82 0 0 1 .3.7 5.43 5.43 0 0 1 .05.92v3.44h-.95v-3.43a2.58 2.58 0 0 0-.11-.87.92.92 0 0 0-.39-.46 1.25 1.25 0 0 0-.66-.17 1.54 1.54 0 0 0-1 .38 1.9 1.9 0 0 0-.44 1.46v3.06zM156.56 27.78l1 .12a2.39 2.39 0 0 1-.86 1.34 2.92 2.92 0 0 1-3.55-.28 3 3 0 0 1-.72-2.12 3.09 3.09 0 0 1 .73-2.19 2.46 2.46 0 0 1 1.89-.78 2.4 2.4 0 0 1 1.84.76 3 3 0 0 1 .71 2.15v.25h-4.18a2.15 2.15 0 0 0 .52 1.41 1.55 1.55 0 0 0 1.17.49 1.45 1.45 0 0 0 .89-.27 1.83 1.83 0 0 0 .56-.88zm-3.12-1.53h3.13a1.9 1.9 0 0 0-.36-1.06 1.46 1.46 0 0 0-1.18-.55 1.51 1.51 0 0 0-1.1.44 1.74 1.74 0 0 0-.49 1.16zM158.56 27.91l.94-.15a1.32 1.32 0 0 0 .44.87 1.54 1.54 0 0 0 1 .3 1.48 1.48 0 0 0 1-.27.8.8 0 0 0 .32-.63.58.58 0 0 0-.28-.51 4.14 4.14 0 0 0-1-.32 8.88 8.88 0 0 1-1.45-.46 1.38 1.38 0 0 1-.82-1.28 1.44 1.44 0 0 1 .17-.69 1.53 1.53 0 0 1 .47-.53A2 2 0 0 1 160 24a2.86 2.86 0 0 1 .82-.11 3.23 3.23 0 0 1 1.16.19 1.58 1.58 0 0 1 .74.51 2 2 0 0 1 .33.87l-.93.13a1 1 0 0 0-.37-.67 1.34 1.34 0 0 0-.86-.24 1.56 1.56 0 0 0-.93.22.63.63 0 0 0-.28.51.52.52 0 0 0 .12.33.84.84 0 0 0 .36.25l.84.24a11.8 11.8 0 0 1 1.41.44 1.42 1.42 0 0 1 .63.5 1.39 1.39 0 0 1 .23.81 1.6 1.6 0 0 1-.28.89 1.79 1.79 0 0 1-.8.65 2.92 2.92 0 0 1-1.18.23 2.63 2.63 0 0 1-1.67-.45 2.1 2.1 0 0 1-.78-1.39z"/></svg>