<svg width="20" height="20" xmlns="http://www.w3.org/2000/svg"><g fill-rule="evenodd"><path fill="none" d="M-2-2h24v24H-2z"/><path d="M19.375 20H.625A.625.625 0 0 1 0 19.375V.625C0 .28.28 0 .625 0h18.75c.345 0 .625.28.625.625v18.75c0 .345-.28.625-.625.625zm-3.75-13.75a1.875 1.875 0 0 0 0-3.75h-2.5a1.875 1.875 0 0 0 0 3.75h2.5zm-8.75 0a1.875 1.875 0 1 0 0-3.75h-2.5a1.875 1.875 0 1 0 0 3.75h2.5zm8.75 5.833a1.875 1.875 0 0 0 0-3.75h-2.5a1.875 1.875 0 0 0 0 3.75h2.5zm0 5.417a1.875 1.875 0 0 0 0-3.75h-2.5a1.875 1.875 0 0 0 0 3.75h2.5zm-9.375 0a2.5 2.5 0 0 0 2.5-2.5v-4.167a2.5 2.5 0 0 0-2.5-2.5H5a2.5 2.5 0 0 0-2.5 2.5V15A2.5 2.5 0 0 0 5 17.5h1.25z"/></g></svg>