<?xml version="1.0" encoding="utf-8"?>
<!-- Generator: Adobe Illustrator 16.0.0, SVG Export Plug-In . SVG Version: 6.00 Build 0)  -->
<!DOCTYPE svg PUBLIC "-//W3C//DTD SVG 1.1//EN" "http://www.w3.org/Graphics/SVG/1.1/DTD/svg11.dtd">
<svg version="1.1" id="Layer_1" xmlns="http://www.w3.org/2000/svg" xmlns:xlink="http://www.w3.org/1999/xlink" x="0px" y="0px"
	 width="31.181px" height="28.347px" viewBox="0 0 31.181 28.347" enable-background="new 0 0 31.181 28.347" xml:space="preserve">
<g>
	<path d="M29.473,26.979H1.708c-0.359,0-0.69-0.192-0.868-0.504c-0.178-0.311-0.176-0.693,0.006-1.003L14.729,1.86
		c0.179-0.306,0.507-0.493,0.862-0.493l0,0c0.354,0,0.682,0.188,0.862,0.493l13.883,23.613c0.182,0.31,0.184,0.692,0.006,1.003
		C30.163,26.787,29.832,26.979,29.473,26.979z M3.456,24.979h24.27L15.591,4.34L3.456,24.979z"/>
</g>
<g>
	<path d="M15.591,19.007c-0.552,0-1-0.447-1-1V9.771c0-0.552,0.448-1,1-1s1,0.448,1,1v8.236
		C16.59,18.56,16.143,19.007,15.591,19.007z"/>
</g>
<g>
	<path d="M15.591,22.432c-0.552,0-1-0.422-1-0.975v-0.052c0-0.553,0.448-1,1-1s1,0.447,1,1
		S16.143,22.432,15.591,22.432z"/>
</g>
</svg>
