<svg xmlns="http://www.w3.org/2000/svg" xmlns:xlink="http://www.w3.org/1999/xlink" viewBox="0 0 131 32"><defs><path id="a" d="M10.823 22.545H0V.181h10.823v22.364z"/><path id="c" d="M12.253.147v7.555H.173V.147h12.08z"/></defs><g fill="none" fill-rule="evenodd"><path fill="#017C8A" d="M94.219 10.09a5.041 5.041 0 0 0 4.992-5.045c0-2.77-2.23-5.019-4.992-5.044V0H80.783v26.91H94.22c4.638 0 8.398-3.766 8.398-8.41s-3.76-8.41-8.398-8.41"/><path fill="#19345E" d="M51.45 15.693c-.77-.152-2.526-.306-2.526-1.376 0-.795 1.11-1.07 1.756-1.07.955 0 2.156.306 3.018.764l1.879-3.547c-1.632-.734-3.418-1.01-5.205-1.01-3.449 0-6.96 1.713-6.96 5.567 0 2.813 1.755 3.669 3.511 4.127 1.756.46 3.511.52 3.511 1.744 0 .856-1.047 1.192-1.755 1.192-1.318 0-3.108-.718-4.26-1.472a8.645 8.645 0 0 1-2.195 3.74l-.013.026a12.318 12.318 0 0 0 6.375 1.804c3.665 0 7.453-1.713 7.453-5.841 0-2.905-1.971-4.128-4.589-4.648"/><path fill="#19345E" d="M35.358 21.923a3.407 3.407 0 0 1-3.4-3.413 3.406 3.406 0 0 1 3.4-3.412 3.407 3.407 0 0 1 3.401 3.412 3.407 3.407 0 0 1-3.401 3.413m-.06-11.812c-1.212 0-2.362.259-3.401.723V5.091h-4.97v13.423l.001.007c0 .093.002.186.005.278l.003.062c.183 4.475 3.856 8.048 8.361 8.048 4.622 0 8.37-3.76 8.37-8.399 0-4.638-3.748-8.399-8.37-8.399"/><path fill="#19345E" d="M19.286 21.217a3.4 3.4 0 0 1 0-6.797 3.4 3.4 0 1 1 0 6.797m0-11.762c-4.622 0-8.37 3.744-8.37 8.364 0 4.618 3.748 8.363 8.37 8.363 4.622 0 8.37-3.745 8.37-8.363 0-4.62-3.748-8.364-8.37-8.364"/><g transform="translate(0 9.455)"><path fill="#19345E" d="M5.741.181v14.451a3.409 3.409 0 0 1-3.239 2.915L0 22.185c.77.234 1.588.36 2.435.36 4.412 0 8.024-3.416 8.36-7.754l.005-.066a7.497 7.497 0 0 0 .023-.59V.181H5.741z"/></g><path fill="#017C8A" d="M66.748 0h-9.981v26.91h9.98c7.35 0 13.309-6.025 13.309-13.456C80.056 6.024 74.097 0 66.748 0"/><path fill="#19345E" d="M109.557 23.166c-.26.505-.82.857-1.474.857-.9 0-1.63-.661-1.63-1.478 0-.815.73-1.477 1.63-1.477.655 0 1.217.353 1.475.86a4.218 4.218 0 0 1 1.064-2.196 4.249 4.249 0 0 0-2.54-.823c-2.215 0-4.01 1.628-4.01 3.636 0 2.009 1.795 3.637 4.01 3.637.962 0 1.843-.307 2.533-.818a4.222 4.222 0 0 1-1.058-2.198m4.704.856a1.478 1.478 0 1 1-.002-2.955 1.478 1.478 0 0 1 .002 2.955m0-5.113a3.637 3.637 0 1 0 0 7.273 3.637 3.637 0 0 0 0-7.273m-10.917 5.818c0 .796-.646 1.455-1.455 1.455a1.457 1.457 0 0 1-1.456-1.455 1.45 1.45 0 0 1 1.456-1.454c.809 0 1.455.646 1.455 1.454"/><g transform="translate(118.628 18.182)"><path fill="#19345E" d="M8.682.147c-.964 0-1.835.37-2.475.974A3.613 3.613 0 0 0 3.73.147C1.805.147.25 1.627.173 3.475v4.227h2.393V3.544A1.155 1.155 0 0 1 3.734 2.45c.648 0 1.174.51 1.174 1.138v4.114H7.515V3.588h.001c0-.628.525-1.138 1.173-1.138s1.173.51 1.173 1.138v4.114h2.39V3.61c0-1.913-1.599-3.463-3.57-3.463"/></g></g></svg>