<?xml version="1.0" encoding="utf-8"?>
<!-- Generated by IcoMoon.io -->
<!DOCTYPE svg PUBLIC "-//W3C//DTD SVG 1.1//EN" "http://www.w3.org/Graphics/SVG/1.1/DTD/svg11.dtd">
<svg version="1.1" xmlns="http://www.w3.org/2000/svg" xmlns:xlink="http://www.w3.org/1999/xlink" width="16" height="16" viewBox="0 0 1024 1024">
<g id="icomoon-ignore">
</g>
<path d="M903.182 503.034c-35.91-35.274-83.769-54.7-134.759-54.7h-151.218c14.918-60.458 34.272-173.090-1.396-255.271-17.718-40.822-50.305-64.234-89.405-64.234-42.25 0-83.953 28.618-97.004 66.567-12.622 36.697-95.149 295.538-111.872 348.017h-135.994c-65.15 0-118.153 53.018-118.153 118.186v243.094c0 65.148 53.003 118.151 118.153 118.151h303.896c0.62 0 1.233-0.021 1.844-0.057 1.484 0.034 2.97 0.057 4.462 0.057h276.687c105.247 0 190.872-85.609 190.872-190.837v-194.87c0-50.932-19.928-98.557-56.113-134.103zM127.381 904.691v-243.094c0-29.878 24.293-54.186 54.153-54.186h120.061c-0.432 5.215-0.661 10.457-0.661 15.726v208.868c0 48.648 18.305 93.096 48.375 126.837h-167.775c-29.86 0.001-54.153-24.291-54.153-54.151zM895.295 832.006c0 69.938-56.914 126.837-126.872 126.837h-276.686c-69.919 0-126.803-56.898-126.803-126.837v-208.869c0-16.774 3.317-33.214 9.86-48.861 0.61-1.459 1.105-2.945 1.487-4.445 8.298-26.047 100.663-315.889 113.64-353.621 3.796-11.037 20.206-23.382 36.484-23.382 4.832 0 19.535 0 30.696 25.715 16.165 37.246 19.359 91.896 9.238 158.042-8.005 52.311-21.614 93.125-21.743 93.51-3.299 9.767-1.69 20.524 4.321 28.898s15.688 13.34 25.996 13.34h193.51c34.111 0 66.042 12.912 89.909 36.357 23.836 23.414 36.963 54.825 36.963 88.446v194.87z"></path>
</svg>
