<?xml version="1.0" encoding="utf-8"?>
<!-- Generator: Adobe Illustrator 19.1.0, SVG Export Plug-In . SVG Version: 6.00 Build 0)  -->
<svg version="1.1" id="Layer_1" xmlns="http://www.w3.org/2000/svg" xmlns:xlink="http://www.w3.org/1999/xlink" x="0px" y="0px"
	 viewBox="0 0 250 250" style="enable-background:new 0 0 250 250;" xml:space="preserve">
<g>
	<path d="M125,2.5c67.6,0,122.5,55.1,122.5,122.8c0,67.2-55.2,122.3-122.6,122.2c-67.8-0.1-122.5-55.1-122.4-123
		C2.6,57.3,57.7,2.5,125,2.5z M28.5,124.6c0.1,56.4,47.1,99.2,100.9,96.7c53.7-2.5,94.9-48.9,91.8-101.8
		c-3.1-51.9-47.5-94.4-103-90.7C67.6,32.3,28.4,74.9,28.5,124.6z"/>
	<path d="M133.8,121.2c2.9,0,5.4,0,7.8,0c15,0,30,0,45,0c3,0,5.9,0.2,8.4,2.2c3.2,2.6,4.7,6.7,3.6,10.4c-1.2,4.2-4.7,7.1-9,7.4
		c-0.9,0.1-1.8,0.1-2.6,0.1c-20.4,0-40.8,0-61.2,0c-8.3,0-12-3.7-12-11.9c0-24.4,0-48.8,0-73.2c0-5.7,2.5-9.4,7.2-10.8
		c5.9-1.8,12.1,2.3,12.7,8.4c0.1,1.3,0.2,2.5,0.2,3.8c0,20.2,0,40.3,0,60.5C133.8,119,133.8,120,133.8,121.2z"/>
</g>
</svg>
