<svg xmlns="http://www.w3.org/2000/svg" viewBox="0 0 16 16"><path d="M3.4 15.8c-.1 0-.2 0-.3-.1-.2-.1-.3-.4-.2-.6l1.2-5L.2 6.2C0 6 0 5.8 0 5.6c.1-.2.3-.3.5-.3h4.9L7.5.6c.1-.2.3-.3.5-.3s.4.1.5.3l2.2 4.7h4.7c.2 0 .3.1.4.2.2.1.2.2.2.4 0 .1-.1.2-.1.2L12.3 10l1.1 5.1c0 .2 0 .4-.1.5-.1.1-.3.2-.5.2-.1 0-.2 0-.2-.1l-4.5-2.6-4.4 2.6c-.1.1-.2.1-.3.1-.1 0 0 0 0 0zm4.7-3.9c.1 0 .2 0 .3.1l3.7 2.2-1-4.2c0-.2 0-.4.1-.5l2.9-3.1h-3.8c-.1-.1-.3-.2-.4-.4L8.1 2.1 6.4 6c-.1.2-.3.3-.5.3h-4L5 9.5c.2.1.2.3.2.5l-.9 4.1L7.8 12c.1-.1.2-.1.3-.1.1 0 0 0 0 0z"/></svg>
