<svg xmlns="http://www.w3.org/2000/svg" viewBox="0 0 512 512"><path d="M505.1 177.5c-2.8-6.4-9.1-10.6-16.1-10.6l-148.4-.3-67.9-147.3C269.8 13 263.6 9 256.7 9h-.1c-6.9.1-13.2 4.2-15.9 10.5l-64.8 147.1-155.4.3c-7.1 0-13.5 4.3-16.2 10.8-2.7 6.5-1.2 14.1 3.7 19.1l121.7 122.8-36.8 158.9c-1.6 6.9 1.1 14 6.8 18.2 3.1 2.2 6.7 3.4 10.3 3.4 3.1 0 6.2-.8 9-2.5L256.8 415 398 497.6c6 3.5 13.5 3.1 19.2-.9 5.6-4.1 8.3-11.1 6.8-17.9l-35.1-161.2 112.7-121.1c5-5.2 6.2-12.6 3.5-19zm-148 122.8c-3.9 4.2-5.5 10.1-4.3 15.7l28.5 131.1-115.7-67.7c-2.5-1.5-5.4-2.3-8.2-2.4V70.3l55.9 121.1c2.9 6.2 9.1 10.2 15.9 10.3l119.4.3-91.5 98.3z"/></svg>
