<svg xmlns="http://www.w3.org/2000/svg" width="1024" height="1024" viewBox="0 0 1024 1024"><path d="M527.03 1022.79c-58.416 0-115.102-11.446-168.484-34.022-51.547-21.8-97.835-52.998-137.578-92.732-39.744-39.734-70.952-86.017-92.755-137.557C105.63 705.1 94.18 648.414 94.18 590c0-58.416 11.45-115.102 34.032-168.48 21.804-51.54 53.01-97.82 92.755-137.557 39.744-39.734 86.03-70.934 137.578-92.73 53.383-22.574 110.068-34.02 168.485-34.02 58.4 0 115.077 11.445 168.45 34.02 51.54 21.798 97.82 52.998 137.56 92.73 39.74 39.736 70.945 86.018 92.748 137.557 22.58 53.38 34.03 110.064 34.03 168.48 0 58.414-11.45 115.1-34.03 168.478-21.803 51.54-53.008 97.82-92.747 137.557-39.737 39.733-86.02 70.935-137.56 92.732-53.37 22.577-110.047 34.022-168.45 34.022zm0-801.58c-98.52 0-191.145 38.36-260.81 108.014C196.55 398.878 158.18 491.49 158.18 590c0 98.51 38.37 191.122 108.038 260.776C335.885 920.43 428.51 958.79 527.03 958.79c98.492 0 191.1-38.36 260.757-108.013C857.453 781.12 895.82 688.507 895.82 590c0-98.508-38.367-191.12-108.033-260.778-69.658-69.652-162.263-108.01-260.756-108.01z"/><path d="M373.87 335.966c28.614 0 51.88 23.305 51.88 51.88 0 28.654-23.266 51.845-51.88 51.845-28.75 0-51.902-23.19-51.902-51.843 0-28.577 23.152-51.88 51.9-51.88M329.074 479.08h89.552v287.795h-89.552V479.08zM474.747 479.08h85.75v39.35h1.26c11.92-22.654 41.11-46.533 84.625-46.533 90.506 0 107.24 59.6 107.24 137.117v157.86h-89.398V626.932c0-33.352-.61-76.332-46.457-76.332-46.57 0-53.64 36.37-53.64 73.926v142.35h-89.38V479.08z"/></svg>