<svg width="16" height="16" xmlns="http://www.w3.org/2000/svg"><path d="M7.727 11.797V13h.91v-1.21a4.58 4.58 0 0 0 .612-.107c.36-.088.68-.228.962-.418.281-.19.509-.435.681-.734.173-.3.26-.66.26-1.084 0-.197-.03-.394-.09-.592a1.898 1.898 0 0 0-.275-.554 2.033 2.033 0 0 0-.46-.46 2.202 2.202 0 0 0-.645-.317 25.769 25.769 0 0 0-.491-.132 245.428 245.428 0 0 1-1.686-.45 1.608 1.608 0 0 1-.65-.343c-.166-.152-.248-.361-.248-.629 0-.19.044-.349.132-.476a.974.974 0 0 1 .333-.3c.133-.075.281-.128.443-.16.163-.031.321-.047.476-.047.458 0 .835.1 1.131.301.296.201.497 1.03.497 1.03h1.32c0-.394-.077-.74-.232-1.04a2.252 2.252 0 0 0-.629-.756 2.75 2.75 0 0 0-.92-.46 3.716 3.716 0 0 0-.522-.112V3h-.909v.922c-.23.019-.46.059-.687.12a2.766 2.766 0 0 0-.888.406c-.26.183-.47.414-.629.692-.158.279-.238.608-.238.989 0 .197.027.39.08.58.052.191.142.37.27.54.126.169.297.322.512.46.215.137.484.248.808.333.522.14.96.255 1.316.343.356.088.668.182.936.28.155.057.297.153.428.29.13.138.195.351.195.64 0 .141-.028.28-.084.418a.936.936 0 0 1-.275.364 1.497 1.497 0 0 1-.497.26c-.204.066-.451.1-.74.1-.268 0-.516-.03-.745-.09a1.758 1.758 0 0 1-.608-.285 1.336 1.336 0 0 1-.412-.503 1.69 1.69 0 0 1-.148-.74H5c.007.466.095.87.264 1.21.17.343.395.623.677.841.281.218.613.38.993.486.254.07.518.118.793.141zM8 16A8 8 0 1 1 8 0a8 8 0 0 1 0 16z" fill="#CCC" fill-rule="evenodd"/></svg>