<?xml version="1.0" encoding="utf-8"?>
<!-- Generator: Adobe Illustrator 19.1.0, SVG Export Plug-In . SVG Version: 6.00 Build 0)  -->
<svg version="1.1" id="Layer_1" xmlns="http://www.w3.org/2000/svg" xmlns:xlink="http://www.w3.org/1999/xlink" x="0px" y="0px"
	 viewBox="0 0 250 250" style="enable-background:new 0 0 250 250;" xml:space="preserve">
<g>
	<path d="M110.3,37c0-6.4-0.1-12.6,0-18.8c0.2-9.1,6.4-15.6,14.7-15.6c8.2,0,14.6,6.6,14.8,15.6c0.2,6,0.1,12.1,0.2,18.1
		c0,0.2,0.2,0.3,0.8,1.1c7,0,14.6,0.4,22.1-0.1c12.3-0.8,18.4,6.6,18.8,14.7c0.4,9.2-7,14.9-19,14.9c-18.1,0-36.3-0.1-54.4,0.1
		C98.8,67,90.8,73.1,88,81.7c-2.9,8.7-0.5,18.4,7.1,23.5c3.8,2.6,8.8,4.2,13.4,4.5c10.7,0.7,21.4,0.1,32.2,0.2
		c24.8,0.2,45.4,16.4,50.7,39.7c5.4,24-5.4,47-28.1,57.6c-7.1,3.3-15.2,4.3-23.4,6.5c0,5.5,0.1,11.7,0,17.9
		c-0.2,9.5-6.2,15.8-15.1,15.7c-8.6-0.1-14.3-6.1-14.5-15.6c-0.1-6.2,0-12.4,0-19.5c-8.3,0-16.1,0.1-23.8,0
		c-3.3-0.1-6.7-0.1-9.8-1.1c-5.8-1.8-9.6-7.9-9.5-14.1c0.1-6.2,4.1-11.7,10.3-13.4c2.6-0.7,5.4-0.9,8.1-0.9
		c18.5-0.1,37.1,0.2,55.6-0.1c15.5-0.3,25.3-13.9,20.8-28.1c-2.6-8.1-10.3-14.2-19.3-14.5c-10.9-0.4-21.8,0-32.8-0.2
		c-25.2-0.5-44.9-15.3-50.8-37.9c-8.2-31.5,13.5-61.8,46.2-64.4C106.7,37.3,108.2,37.2,110.3,37z"/>
</g>
</svg>
