<svg viewbox="0 0 22 22" xmlns="http://www.w3.org/2000/svg"><g><path fill="none" d="M-2-3h24v24H-2z"/><path d="M20 12.436c0 .362-.28.655-.625.655s-.625-.293-.625-.655V9.818c0-1.808.28-3.273.625-3.273S20 8.01 20 9.818v2.618zM.374 4.533L9.697.068a.707.707 0 0 1 .605 0l9.323 4.465c.5.239.5.921 0 1.16l-9.323 4.465a.698.698 0 0 1-.605 0L.374 5.693a.637.637 0 0 1 0-1.16zm3.21 4.538l6.162 2.793a.844.844 0 0 0 .67 0l5.998-2.793c.498-.22 1.086.1 1.086.591v7.016c0 .73-3.358 1.322-7.5 1.322-4.143 0-7.5-.592-7.5-1.322V9.662c0-.492.587-.812 1.085-.59z"/></g></svg>