<svg xmlns="http://www.w3.org/2000/svg" viewBox="0 0 100 100"><path d="M10.4 4.2c0-2.5 2.1-4.2 4.2-4.2h70.8c2.1 0 4.2 1.7 4.2 4.2v91.7c0 2.5-2.1 4.2-4.2 4.2H14.6c-2.1 0-4.2-1.7-4.2-4.2V4.2zM17.1 40v53.3h65.8V40H17.1zm22.5-18c3.3 0 6.3-2.5 6.3-5.8S43 10 39.6 10s-6.3 2.5-6.3 5.8c0 3.4 3 6.2 6.3 6.2zM20.4 10v12l12.1-12H20.4zm6.7 43.3c0-1.7 1.2-3.3 3.3-3.3H70c1.7 0 3.3 1.7 3.3 3.3 0 1.7-1.7 3.3-3.3 3.3H30.4c-2.1.1-3.3-1.6-3.3-3.3zm0 13.4c0-1.7 1.7-3.3 3.3-3.3H70c1.7 0 3.3 1.7 3.3 3.3 0 1.7-1.7 3.3-3.3 3.3H30.4c-2.1 0-3.3-1.7-3.3-3.3zm0 13.3c0-1.7 1.7-3.3 3.3-3.3H70c1.7 0 3.3 1.7 3.3 3.3 0 1.7-1.7 3.3-3.3 3.3H30.4c-2.1 0-3.3-1.6-3.3-3.3z"/></svg>