<svg xmlns="http://www.w3.org/2000/svg" viewBox="0 0 16 16"><path d="M14.7 5.7V2c0-.7-.6-1.3-1.3-1.3S12 1.3 12 2v3.7c.4-.2.9-.3 1.3-.3.5-.1 1 .1 1.4.3zm0 4.6V14c0 .7-.6 1.3-1.3 1.3S12 14.7 12 14v-3.7c.4.2.9.3 1.3.3.5.1 1-.1 1.4-.3zM4 8.3V2C4 1.3 3.4.7 2.7.7c-.8 0-1.4.6-1.4 1.3v6.3c.4-.2.9-.3 1.4-.3.4 0 .9.1 1.3.3zM4 13v1c0 .7-.6 1.3-1.3 1.3-.7 0-1.3-.6-1.3-1.3v-1c.4.2.9.3 1.3.3s.9-.1 1.3-.3zM9.3 3V2C9.3 1.3 8.7.7 8 .7S6.7 1.3 6.7 2v1c.4-.2.8-.3 1.3-.3s.9.1 1.3.3zm0 4.7V14c0 .7-.6 1.3-1.3 1.3s-1.3-.6-1.3-1.3V7.7c.4.2.8.3 1.3.3s.9-.1 1.3-.3zm-6.6 5c-1.1 0-2-.9-2-2s.9-2 2-2 2 .9 2 2-.9 2-2 2zM8 7.3c-1.1 0-2-.9-2-2s.9-2 2-2 2 .9 2 2-.9 2-2 2zm5.3 2.7c-1.1 0-2-.9-2-2s.9-2 2-2 2 .9 2 2-.8 2-2 2z"/></svg>
