<svg version="1.1" xmlns="http://www.w3.org/2000/svg" xmlns:xlink="http://www.w3.org/1999/xlink">
    <title>job-mail-icon</title>
    <g id="Page-1" stroke="none" stroke-width="1" fill="none" fill-rule="evenodd">
        <g id="job-mail-icon">
            <g id="Illustration" transform="translate(6.000000, 5.000000)">
                <g id="ic-envelope" transform="translate(0.000000, 14.000000)" stroke="#1D9EDE" stroke-linecap="round" stroke-linejoin="round" stroke-width="2">
                    <polygon id="Stroke-1" fill="#EDF6FB" points="0 43 63 43 63 0 0 0"></polygon>
                    <polyline id="Stroke-3" points="0 0 31.4973191 22.6944444 63 0"></polyline>
                </g>
                <circle id="Oval" stroke="#1D9EDE" stroke-width="2" fill="#FFFFFF" cx="64" cy="15" r="15"></circle>
                <g id="ic-heart" transform="translate(57.000000, 10.000000)" fill="#1D9EDE" stroke="#1D9EDE" stroke-linecap="round" stroke-linejoin="round" stroke-width="2">
                    <path d="M8.70609091,0.512360235 C8.33572727,0.742620953 8.00927273,1.02291214 7.72227273,1.35504213 C7.43463636,1.68596656 7.19409091,2.06812702 7,2.5015235 C6.79636364,2.06812702 6.55263636,1.68596656 6.27009091,1.35504213 C5.98818182,1.02291214 5.66745455,0.742620953 5.30981818,0.512360235 C5.026,0.345391076 4.73645455,0.219410736 4.44054545,0.131405331 C4.144,0.0446054793 3.83918182,0 3.52990909,0 C3.39436364,0 3.25245455,0.00964442796 3.10736364,0.0283305071 C2.96036364,0.0470165863 2.814,0.0735387632 2.66954545,0.110910922 C2.45445455,0.166969159 2.24445455,0.242316252 2.04209091,0.339363309 C1.83718182,0.436410365 1.64309091,0.556965715 1.45790909,0.705248794 C1.274,0.852326321 1.106,1.01929548 0.955818182,1.20193683 C0.803090909,1.38578374 0.670090909,1.58891951 0.554272727,1.81074135 C0.526909091,1.84751073 0.525636364,1.85594961 0.525636364,1.86559403 C0.514181818,1.87463568 0.505909091,1.88367734 0.495727273,1.89392454 C0.330272727,2.22002676 0.206181818,2.55577341 0.122818182,2.91442557 C0.0407272727,3.27488607 0,3.65644375 0,4.0621125 C0,4.29237322 0.0299090909,4.50515341 0.0884545455,4.7257697 C0.143818182,4.94578321 0.237363636,5.17966059 0.365272727,5.42981294 C0.481090909,5.67936251 0.622363636,5.92650098 0.787818182,6.17424222 C0.952,6.4237918 1.141,6.66791638 1.35609091,6.9084243 C1.76463636,7.38702904 2.20372727,7.8469477 2.67463636,8.28878305 C3.14681818,8.73122119 3.64509091,9.11036776 4.17136364,9.51603651 C4.64609091,9.89277198 5.08454545,10.192352 5.48354545,10.4726432 C5.88127273,10.7547427 6.24145455,10.9331646 6.56218182,11.1254504 C6.69772727,11.2092364 6.80336364,11.2707196 6.87590909,11.312914 C6.94909091,11.3533 6.98981818,11.375 7,11.375 C7.00890909,11.375 7.05090909,11.3533 7.12409091,11.312914 C7.19727273,11.2707196 7.30163636,11.2122503 7.43718182,11.1405198 C7.75790909,10.9385896 8.11745455,10.767401 8.51772727,10.4822876 C8.91545455,10.1965715 9.35263636,9.91748582 9.82990909,9.55943644 C10.3644545,9.13568438 10.8678182,8.71675454 11.3387273,8.27491919 C11.8109091,7.83368661 12.2461818,7.37738461 12.6439091,6.9084243 C12.8577273,6.66791638 13.0467273,6.42680568 13.2134545,6.18328387 C13.3782727,5.93855652 13.5201818,5.6926236 13.636,5.44367681 C13.7613636,5.19533279 13.8542727,4.95783875 13.9140909,4.73240024 C13.9713636,4.50635896 14,4.29237322 14,4.08984023 C13.9910909,3.65644375 13.9465455,3.27488607 13.8695455,2.91442557 C13.7925455,2.55577341 13.6741818,2.2242462 13.5201818,1.92104949 L13.4603636,1.81074135 C13.3324545,1.58891951 13.1956364,1.39060596 13.0454545,1.20917016 C12.894,1.03014546 12.7272727,0.866190186 12.5420909,0.71911266 C12.3569091,0.57082958 12.1640909,0.447260347 11.9655455,0.345391076 C11.7650909,0.244124583 11.5538182,0.166969159 11.3310909,0.110910922 C11.1847273,0.0735387632 11.0396364,0.0470165863 10.8939091,0.0283305071 C10.7481818,0.00964442796 10.6081818,0 10.4713636,0 C10.1595455,0 9.85854545,0.0446054793 9.56772727,0.131405331 C9.27563636,0.219410736 8.98990909,0.345391076 8.70609091,0.512360235 Z" id="Page-1"></path>
                </g>
                <path d="M47,67.5 C47,69.4331667 40.2844118,71 32,71 C23.7155882,71 17,69.4331667 17,67.5 C17,65.5668333 23.7155882,64 32,64 C40.2844118,64 47,65.5668333 47,67.5" id="Shadow" fill="#E1E1E1"></path>
            </g>
        </g>
    </g>
</svg>
