<?xml version="1.0" encoding="utf-8"?>
<!-- Generator: Adobe Illustrator 16.0.0, SVG Export Plug-In . SVG Version: 6.00 Build 0)  -->
<!DOCTYPE svg PUBLIC "-//W3C//DTD SVG 1.1//EN" "http://www.w3.org/Graphics/SVG/1.1/DTD/svg11.dtd">
<svg version="1.1" id="sk-logo-pos" xmlns="http://www.w3.org/2000/svg" xmlns:xlink="http://www.w3.org/1999/xlink" x="0px"
	 y="0px" viewBox="0 0 251.5 63" enable-background="new 0 0 251.5 63" xml:space="preserve">
<circle fill="#FFFFFF" cx="31.309" cy="31.508" r="31.308"/>
<path fill="#0D3880" d="M32.043,12.139c0-1.081,0.873-1.958,1.952-1.958c1.084,0,1.959,0.876,1.959,1.958
	c0,1.078-0.875,1.954-1.959,1.954C32.916,14.093,32.043,13.217,32.043,12.139z"/>
<path fill="#0D3880" d="M38.127,18.715c0-1.193,0.967-2.159,2.155-2.159c1.194,0,2.159,0.965,2.159,2.159
	c0,1.19-0.965,2.156-2.159,2.156C39.095,20.871,38.127,19.905,38.127,18.715z"/>
<path fill="#0D3880" d="M32.043,18.715c0-1.082,0.873-1.955,1.952-1.955c1.084,0,1.959,0.874,1.959,1.955
	c0,1.078-0.875,1.957-1.959,1.957C32.916,20.672,32.043,19.793,32.043,18.715z"/>
<path fill="#0D3880" d="M44.607,25.312c0-1.34,1.083-2.423,2.424-2.423c1.34,0,2.419,1.082,2.419,2.423
	c0,1.338-1.08,2.422-2.419,2.422C45.689,27.734,44.607,26.651,44.607,25.312z"/>
<path fill="#0D3880" d="M38.127,25.292c0-1.192,0.967-2.157,2.155-2.157c1.194,0,2.159,0.965,2.159,2.157
	c0,1.19-0.965,2.155-2.159,2.155C39.095,27.447,38.127,26.483,38.127,25.292z"/>
<path fill="#0D3880" d="M32.043,25.292c0-1.081,0.873-1.956,1.952-1.956c1.084,0,1.959,0.875,1.959,1.956s-0.875,1.956-1.959,1.956
	C32.916,27.249,32.043,26.374,32.043,25.292z"/>
<path fill="#0D3880" d="M26.227,25.292c0-0.945,0.765-1.71,1.712-1.71c0.949,0,1.713,0.765,1.713,1.71s-0.765,1.712-1.713,1.712
	C26.993,27.004,26.227,26.238,26.227,25.292z"/>
<path fill="#0D3880" d="M21.379,25.292c0-0.811,0.656-1.469,1.467-1.469c0.809,0,1.465,0.659,1.465,1.469
	c0,0.81-0.657,1.467-1.465,1.467C22.036,26.76,21.379,26.103,21.379,25.292z"/>
<path fill="#0D3880" d="M16.756,25.292c0-0.677,0.546-1.223,1.223-1.223c0.678,0,1.223,0.546,1.223,1.223
	c0,0.677-0.545,1.224-1.223,1.224C17.303,26.517,16.756,25.97,16.756,25.292z"/>
<path fill="#0D3880" d="M12.844,25.292c0-0.542,0.44-0.978,0.981-0.978c0.537,0,0.978,0.437,0.978,0.978
	c0,0.542-0.441,0.978-0.978,0.978C13.284,26.27,12.844,25.835,12.844,25.292z"/>
<path fill="#0D3880" d="M9.141,25.292c0-0.407,0.327-0.734,0.734-0.734c0.406,0,0.733,0.328,0.733,0.734
	c0,0.405-0.327,0.733-0.733,0.733C9.468,26.026,9.141,25.698,9.141,25.292z"/>
<path fill="#0D3880" d="M6.011,25.292c0-0.271,0.221-0.488,0.492-0.488c0.268,0,0.485,0.217,0.485,0.488
	c0,0.27-0.217,0.49-0.485,0.49C6.232,25.783,6.011,25.562,6.011,25.292z"/>
<path fill="#0D3880" d="M44.607,31.888c0-1.334,1.083-2.423,2.424-2.423c1.34,0,2.419,1.09,2.419,2.423
	c0,1.34-1.08,2.422-2.419,2.422C45.689,34.309,44.607,33.229,44.607,31.888z"/>
<path fill="#0D3880" d="M38.127,31.868c0-1.191,0.967-2.155,2.155-2.155c1.194,0,2.159,0.964,2.159,2.155
	c0,1.192-0.965,2.159-2.159,2.159C39.095,34.027,38.127,33.061,38.127,31.868z"/>
<path fill="#0D3880" d="M32.043,31.868c0-1.082,0.873-1.955,1.952-1.955c1.084,0,1.959,0.873,1.959,1.955
	c0,1.08-0.875,1.957-1.959,1.957C32.916,33.825,32.043,32.948,32.043,31.868z"/>
<path fill="#0D3880" d="M26.227,31.868c0-0.946,0.765-1.71,1.712-1.71c0.949,0,1.713,0.764,1.713,1.71s-0.765,1.712-1.713,1.712
	C26.993,33.58,26.227,32.814,26.227,31.868z"/>
<path fill="#0D3880" d="M21.379,31.868c0-0.811,0.656-1.467,1.467-1.467c0.809,0,1.465,0.656,1.465,1.467
	c0,0.81-0.657,1.468-1.465,1.468C22.036,33.336,21.379,32.678,21.379,31.868z"/>
<path fill="#0D3880" d="M16.756,31.868c0-0.677,0.546-1.222,1.223-1.222c0.678,0,1.223,0.544,1.223,1.222
	c0,0.677-0.545,1.225-1.223,1.225C17.303,33.093,16.756,32.546,16.756,31.868z"/>
<path fill="#0D3880" d="M12.844,31.868c0-0.542,0.44-0.979,0.981-0.979c0.537,0,0.978,0.437,0.978,0.979
	c0,0.541-0.441,0.978-0.978,0.978C13.284,32.846,12.844,32.409,12.844,31.868z"/>
<path fill="#0D3880" d="M9.141,31.868c0-0.404,0.327-0.732,0.734-0.732c0.406,0,0.733,0.328,0.733,0.732
	c0,0.406-0.327,0.731-0.733,0.731C9.468,32.602,9.141,32.274,9.141,31.868z"/>
<path fill="#0D3880" d="M6.011,31.868c0-0.271,0.221-0.49,0.492-0.49c0.268,0,0.485,0.219,0.485,0.49
	c0,0.271-0.217,0.491-0.485,0.491C6.232,32.359,6.011,32.139,6.011,31.868z"/>
<path fill="#0D3880" d="M51.252,31.933c0-1.467,1.191-2.655,2.654-2.655c1.465,0,2.652,1.187,2.652,2.655
	c0,1.463-1.187,2.652-2.652,2.652C52.443,34.585,51.252,33.396,51.252,31.933z"/>
<path fill="#0D3880" d="M44.607,38.465c0-1.338,1.083-2.423,2.424-2.423c1.34,0,2.419,1.085,2.419,2.423
	c0,1.339-1.08,2.423-2.419,2.423C45.689,40.889,44.607,39.804,44.607,38.465z"/>
<path fill="#0D3880" d="M38.127,38.447c0-1.193,0.967-2.158,2.155-2.158c1.194,0,2.159,0.965,2.159,2.158
	c0,1.19-0.965,2.156-2.159,2.156C39.095,40.604,38.127,39.638,38.127,38.447z"/>
<path fill="#0D3880" d="M32.043,38.447c0-1.081,0.873-1.957,1.952-1.957c1.084,0,1.959,0.876,1.959,1.957
	c0,1.08-0.875,1.955-1.959,1.955C32.916,40.402,32.043,39.526,32.043,38.447z"/>
<path fill="#0D3880" d="M26.227,38.447c0-0.945,0.765-1.714,1.712-1.714c0.949,0,1.713,0.769,1.713,1.714
	c0,0.947-0.765,1.709-1.713,1.709C26.993,40.156,26.227,39.395,26.227,38.447z"/>
<path fill="#0D3880" d="M21.379,38.447c0-0.812,0.656-1.467,1.467-1.467c0.809,0,1.465,0.654,1.465,1.467
	c0,0.811-0.657,1.466-1.465,1.466C22.036,39.912,21.379,39.258,21.379,38.447z"/>
<path fill="#0D3880" d="M16.756,38.447c0-0.68,0.546-1.223,1.223-1.223c0.678,0,1.223,0.543,1.223,1.223
	c0,0.674-0.545,1.221-1.223,1.221C17.303,39.668,16.756,39.121,16.756,38.447z"/>
<path fill="#0D3880" d="M12.844,38.447c0-0.539,0.44-0.979,0.981-0.979c0.537,0,0.978,0.44,0.978,0.979
	c0,0.541-0.441,0.979-0.978,0.979C13.284,39.426,12.844,38.987,12.844,38.447z"/>
<path fill="#0D3880" d="M9.141,38.447c0-0.406,0.327-0.736,0.734-0.736c0.406,0,0.733,0.33,0.733,0.736
	c0,0.404-0.327,0.734-0.733,0.734C9.468,39.18,9.141,38.852,9.141,38.447z"/>
<path fill="#0D3880" d="M6.011,38.447c0-0.271,0.221-0.492,0.492-0.492c0.268,0,0.485,0.222,0.485,0.492
	c0,0.268-0.217,0.484-0.485,0.484C6.232,38.932,6.011,38.715,6.011,38.447z"/>
<path fill="#0D3880" d="M38.127,45.024c0-1.192,0.967-2.159,2.155-2.159c1.194,0,2.159,0.967,2.159,2.159s-0.965,2.157-2.159,2.157
	C39.095,47.182,38.127,46.217,38.127,45.024z"/>
<path fill="#0D3880" d="M32.043,45.024c0-1.08,0.873-1.961,1.952-1.961c1.084,0,1.959,0.88,1.959,1.961
	c0,1.078-0.875,1.956-1.959,1.956C32.916,46.98,32.043,46.104,32.043,45.024z"/>
<path fill="#0D3880" d="M32.043,51.6c0-1.078,0.873-1.953,1.952-1.953c1.084,0,1.959,0.875,1.959,1.953
	c0,1.08-0.875,1.958-1.959,1.958C32.916,53.558,32.043,52.68,32.043,51.6z"/>
<g>
	<path fill="#FFFFFF" d="M81.016,42.611c-3.55,0-6.71-0.391-9.613-3.246l3.681-3.685c1.819,1.861,4.289,2.12,6.02,2.12
		c1.947,0,3.982-0.65,3.982-2.338c0-1.124-0.561-1.903-2.381-2.076L79.07,33.04c-3.986-0.391-6.498-2.167-6.498-6.324
		c0-4.718,4.115-7.185,8.706-7.185c3.551,0,6.451,0.647,8.619,2.64l-3.465,3.508c-1.303-1.172-3.248-1.518-5.24-1.518
		c-2.252,0-3.206,1.04-3.206,2.167c0,1.124,0.65,1.773,2.338,1.948l3.552,0.346c4.459,0.436,6.713,2.772,6.713,6.626
		C90.588,40.227,86.344,42.611,81.016,42.611z"/>
	<path fill="#FFFFFF" d="M99.734,32.824c0,2.941,1.734,5.021,4.938,5.021c2.473,0,3.68-0.735,5.107-2.12l3.424,3.337
		c-2.295,2.338-4.502,3.55-8.574,3.55c-5.324,0-10.438-2.429-10.438-11.562c0-7.362,3.984-11.518,9.832-11.518
		c6.279,0,9.83,4.501,9.83,10.912v2.382H99.734z M107.789,26.541c-0.605-1.34-1.861-2.337-3.766-2.337
		c-1.906,0-3.162,0.998-3.77,2.337c-0.389,0.827-0.475,1.434-0.52,2.425h8.578C108.266,27.975,108.18,27.368,107.789,26.541z"/>
	<path fill="#FFFFFF" d="M123.479,32.824c0,2.941,1.73,5.021,4.938,5.021c2.467,0,3.68-0.735,5.109-2.12l3.424,3.337
		c-2.297,2.338-4.506,3.55-8.578,3.55c-5.326,0-10.436-2.429-10.436-11.562c0-7.362,3.984-11.518,9.832-11.518
		c6.279,0,9.83,4.501,9.83,10.912v2.382H123.479z M131.537,26.541c-0.609-1.34-1.865-2.337-3.77-2.337s-3.16,0.998-3.766,2.337
		c-0.391,0.827-0.48,1.434-0.523,2.425h8.576C132.014,27.975,131.922,27.368,131.537,26.541z"/>
	<path fill="#FFFFFF" d="M156.363,42.35l-5.543-9.396l-2.385,2.682v6.714h-5.627V11.518h5.627v17.495l7.494-9.227h6.797
		l-8.055,9.098l8.662,13.466H156.363z"/>
	<path fill="#FFFFFF" d="M188.023,42.35v-1.951c-1.518,1.519-2.945,2.168-5.543,2.168c-2.557,0-4.461-0.692-5.76-1.994
		c-1.215-1.255-1.865-3.073-1.865-5.063c0-3.595,2.469-6.542,7.797-6.542h5.24v-1.125c0-2.467-1.213-3.549-4.203-3.549
		c-2.033,0-3.115,0.561-4.33,1.944l-3.549-3.503c2.209-2.426,4.33-3.204,8.1-3.204c6.361,0,9.611,2.682,9.611,7.967V42.35H188.023z
		 M187.893,32.824h-4.287c-2.254,0-3.336,0.908-3.336,2.595c0,1.56,1.082,2.559,3.42,2.559c1.389,0,2.385-0.177,3.338-1.083
		c0.646-0.564,0.865-1.432,0.865-2.858V32.824z"/>
	<path fill="#FFFFFF" d="M207.004,42.611c-3.553,0-6.713-0.391-9.615-3.246l3.682-3.685c1.818,1.861,4.289,2.12,6.02,2.12
		c1.947,0,3.982-0.65,3.982-2.338c0-1.124-0.562-1.903-2.379-2.076l-3.641-0.347c-3.982-0.391-6.492-2.167-6.492-6.324
		c0-4.718,4.113-7.185,8.703-7.185c3.547,0,6.451,0.647,8.615,2.64l-3.461,3.508c-1.305-1.172-3.248-1.518-5.242-1.518
		c-2.254,0-3.203,1.04-3.203,2.167c0,1.124,0.648,1.773,2.336,1.948l3.553,0.346c4.459,0.436,6.711,2.772,6.711,6.626
		C216.572,40.227,212.33,42.611,207.004,42.611z"/>
	<path fill="#FFFFFF" d="M220.598,15.932v-4.586h5.758v4.586H220.598z M220.684,42.35v-21.91h5.631v21.91H220.684z"/>
	<path fill="#FFFFFF" d="M244.781,42.35v-1.951c-1.514,1.519-2.949,2.168-5.543,2.168c-2.555,0-4.459-0.692-5.76-1.994
		c-1.215-1.255-1.861-3.073-1.861-5.063c0-3.595,2.467-6.542,7.795-6.542h5.242v-1.125c0-2.467-1.217-3.549-4.203-3.549
		c-2.037,0-3.117,0.561-4.332,1.944l-3.553-3.503c2.213-2.426,4.332-3.204,8.102-3.204c6.363,0,9.611,2.682,9.611,7.967V42.35
		H244.781z M244.654,32.824h-4.291c-2.252,0-3.336,0.908-3.336,2.595c0,1.56,1.084,2.559,3.424,2.559
		c1.381,0,2.381-0.177,3.332-1.083c0.65-0.564,0.871-1.432,0.871-2.858V32.824z"/>
</g>
</svg>
