<svg xmlns="http://www.w3.org/2000/svg" viewBox="0 0 20 20" style="background:#fff"><g fill="none"><path fill="#0038A8" d="M.185 0h20v7.419h-20z"/><path fill="#CE1126" d="M.185 7.419h20v7.5h-20z"/><path fill="#FFF" d="M13.035 7.419L.185 14.838V0"/><g fill="#FCD116" transform="translate(.02 .824)"><circle cx="4.781" cy="6.595" r="1.484"/><path d="M1.649 6.594l.194.194 2.938-.194L1.843 6.4z"/><path d="M1.978 6.962l.158.159 2.645-.527zM1.978 6.226l.158-.158 2.646.526z"/><g><path d="M2.567 4.38v.274l2.214 1.94-1.94-2.215zM2.539 4.872v.224L4.78 6.594zM3.06 4.352h.223l1.499 2.243z"/></g><g><path d="M4.781 3.462l-.194.194.194 2.938.194-2.938z"/><path d="M4.413 3.791l-.159.158.527 2.645zM5.149 3.791l.158.158-.526 2.646z"/><g><path d="M6.996 4.38H6.72l-1.94 2.214 2.215-1.94zM6.503 4.352h-.224L4.78 6.593zM7.023 4.872v.224L4.78 6.595z"/></g></g><g><path d="M7.914 6.594L7.72 6.4l-2.938.194 2.938.194zM7.585 6.226l-.158-.159-2.645.527zM7.585 6.962l-.158.158-2.646-.526z"/><g><path d="M6.996 8.809v-.275l-2.214-1.94 1.94 2.215zM7.024 8.316v-.224L4.783 6.594zM6.504 8.836H6.28L4.781 6.593z"/></g><g><path d="M4.782 9.726l.194-.194-.194-2.938-.194 2.938z"/><path d="M5.15 9.397l.159-.158-.527-2.645zM4.414 9.397l-.158-.158.526-2.646z"/><g><path d="M2.567 8.808h.275l1.94-2.214-2.215 1.94zM3.06 8.836h.224l1.498-2.242zM2.54 8.316v-.224l2.243-1.499z"/></g></g></g><g><path d="M11.531 6.594l-.558.194-.012.59-.357-.47-.565.171.338-.485zM11.531 6.594l-.558-.194-.012-.59-.357.47-.565-.171.338.485zM.907 12.73l.11-.58-.504-.306.585-.074.135-.575.25.536zM.907 12.73l.447-.386.517.284-.229-.544.43-.404-.588.05z"/><g><path d="M.907.46l.447.386.517-.284-.228.544.43.404-.589-.05z"/><path d="M.907.46l.111.58-.505.306.586.074.134.575.251-.535z"/></g></g></g></g></svg>