<svg xmlns="http://www.w3.org/2000/svg" width="966.614" height="677.48" viewBox="28.691 349.199 966.614 677.48"><path d="M991.992 382.91c-.003-.368-.013-.737-.027-1.106l-.024-.487c-.02-.37-.05-.74-.083-1.11-.016-.166-.03-.332-.05-.497-.038-.354-.084-.706-.134-1.06-.025-.18-.053-.36-.08-.54-.054-.327-.112-.654-.175-.98-.04-.2-.077-.402-.12-.602-.062-.297-.134-.594-.204-.89-.056-.225-.108-.448-.167-.67-.07-.267-.148-.532-.228-.797-.073-.246-.146-.493-.224-.737-.076-.235-.157-.47-.24-.706-.092-.27-.186-.537-.286-.804-.078-.208-.162-.414-.244-.62-.116-.29-.233-.58-.357-.863-.08-.183-.163-.36-.246-.542-.14-.31-.284-.613-.436-.916-.077-.16-.16-.316-.24-.475-.167-.32-.337-.637-.514-.95-.08-.143-.16-.283-.242-.425-.19-.325-.384-.646-.582-.962l-.258-.4c-.203-.313-.412-.622-.628-.928-.054-.077-.103-.156-.156-.232-.048-.067-.102-.132-.15-.198-.196-.273-.4-.54-.604-.807-.137-.177-.272-.352-.41-.522-.17-.208-.344-.413-.518-.617-.186-.22-.37-.437-.562-.648-.124-.138-.25-.27-.376-.406-.246-.267-.494-.53-.748-.785l-.204-.2c-.313-.31-.63-.614-.954-.91l-.025-.02c-1.526-1.388-3.164-2.61-4.89-3.655-.044-.025-.09-.05-.132-.076-.386-.23-.773-.457-1.167-.67-.202-.11-.41-.213-.615-.318-.237-.123-.474-.25-.715-.366-.37-.182-.75-.35-1.128-.518-.078-.033-.155-.07-.234-.104-1.84-.79-3.768-1.41-5.766-1.844-.028-.007-.057-.015-.085-.02-.414-.09-.83-.168-1.25-.24-.11-.02-.218-.042-.327-.06-.343-.056-.688-.103-1.035-.147-.195-.026-.39-.054-.588-.075-.27-.03-.544-.055-.816-.077-.28-.024-.563-.047-.844-.064-.208-.013-.417-.02-.626-.028-.35-.015-.7-.023-1.05-.026-.076 0-.152-.006-.23-.006H64c-.08 0-.156.005-.234.006-.346.003-.69.012-1.038.026-.213.008-.426.017-.64.028-.274.018-.55.04-.824.063-.28.022-.558.048-.834.08-.19.02-.38.046-.568.07-.353.045-.704.094-1.054.15-.102.017-.202.036-.303.054-.427.075-.854.154-1.274.245-.018.004-.036.01-.054.013-2.008.438-3.947 1.06-5.795 1.853-.058.025-.116.055-.174.08-.4.175-.796.354-1.188.544-.225.108-.445.228-.67.343-.22.113-.44.223-.66.34-.383.21-.762.432-1.14.656-.05.03-.105.06-.157.092-1.72 1.043-3.353 2.262-4.877 3.646l-.04.034c-.318.292-.633.595-.942.9l-.214.21c-.25.252-.495.512-.74.775-.127.137-.258.273-.384.415-.188.21-.37.424-.554.64-.177.207-.352.415-.523.627-.137.168-.27.34-.402.51-.21.272-.416.544-.617.82-.047.066-.097.127-.144.192-.055.074-.102.15-.154.228-.217.31-.428.62-.634.938-.085.13-.17.262-.252.394-.2.32-.396.642-.586.97-.08.14-.162.277-.24.418-.178.313-.347.632-.513.952-.083.158-.165.317-.244.478-.15.3-.293.604-.434.908-.084.184-.168.365-.25.55-.122.28-.237.566-.353.853-.084.21-.17.42-.25.633-.098.262-.19.525-.282.79-.082.24-.166.48-.243.722-.076.238-.146.48-.218.722-.08.27-.16.542-.232.812-.057.217-.108.436-.162.652-.073.302-.146.605-.21.908-.04.192-.077.388-.114.583-.064.333-.125.665-.18 1-.026.173-.052.348-.076.52-.052.36-.1.72-.138 1.078-.017.16-.03.32-.047.48-.034.375-.062.75-.084 1.127-.01.157-.017.312-.022.47-.017.376-.026.752-.03 1.127 0 .093-.006.185-.006.277v606.48c0 17.672 14.327 32 32 32h896c17.673 0 32-14.328 32-32V383.2c.002-.1-.006-.193-.006-.29zM860.068 415.2L511.96 663.605 163.92 415.198h696.15zM96 957.678V445.35l397.37 283.615c5.56 3.97 12.074 5.955 18.59 5.955 6.513 0 13.027-1.984 18.587-5.953L928 445.344v512.333H96z"/></svg>