<svg xmlns="http://www.w3.org/2000/svg" xmlns:xlink="http://www.w3.org/1999/xlink" viewBox="0 0 20 20" style="background:#fff"><defs><path id="a" d="M0 0h23.881v16H0z"/></defs><g fill="none" fill-rule="evenodd" transform="translate(-2)"><mask id="b" fill="#fff"><use xlink:href="#a"/></mask><path fill="#FF2B2D" d="M7.844 5.492c.062.434.433.825.998.666.62-.171 1.42.297 1.515 1.055.069.55.654 1.177 1.42.866l.063-.048c-.003-.01-.006-.02-.006-.03 0-.01.003-.02.006-.03-.027-.018-.054-.035-.08-.054a2.427 2.427 0 0 1 1.3-4.589c-.393.195-.65.667-.327 1.157.356.536.158 1.441-.533 1.765-.503.236-.918.987-.385 1.62.02.015.044.029.065.044a.1.1 0 0 1 .057-.02c.01-.03.017-.062.028-.091a2.427 2.427 0 0 1 4.765-.181c-.307-.315-.835-.413-1.2.046-.4.504-1.324.595-1.845.039-.38-.405-1.222-.569-1.658.133-.01.024-.016.05-.023.077a.097.097 0 0 1 .035.044h.1a2.427 2.427 0 0 1 1.642 4.477c.205-.389.135-.922-.416-1.128-.602-.224-.974-1.073-.606-1.742.268-.486.163-1.337-.64-1.536l-.079.002a.102.102 0 0 1-.032.047l.03.096a2.426 2.426 0 0 1-.869 3.17 2.43 2.43 0 0 1-2.88-.226c.432.075.918-.156.943-.742.028-.644.721-1.26 1.47-1.116.545.104 1.322-.257 1.263-1.083a1.203 1.203 0 0 0-.026-.073.105.105 0 0 1-.054-.019c-.027.022-.055.041-.081.06a2.428 2.428 0 0 1-3.96-2.656zM0 16h23.881V0H.001v16z"/><path fill="#FFF" d="M11.557 4.725l.217.193.251-.148-.115.267.217.192-.29-.027-.115.266-.063-.283-.29-.029.25-.147-.062-.284zm-.156.732l.06.037c-.438.649-.42 1.79.354 2.375-.533-.633-.118-1.383.385-1.62.69-.323.89-1.229.534-1.765-.325-.489-.067-.961.326-1.155a2.428 2.428 0 0 0-1.3 4.587c-.839-.64-.777-1.863-.359-2.46z"/><path fill="#FF1C1F" d="M11.659 5.184l.063.284.116-.267.29.029-.218-.193.115-.267-.25.148-.218-.193.063.284-.251.148zM11.88 7.914l-.065-.044c-.774-.586-.79-1.728-.354-2.376l-.06-.037c-.418.597-.48 1.819.36 2.46l.08.054a.104.104 0 0 1 .04-.057"/><path fill="#FFF" d="M14.532 6.862l-.064-.284.218.193.25-.148-.116.267.218.193-.289-.028-.115.267-.064-.284-.29-.028.252-.148zm-.34-.16l-.017.068c-.751-.215-1.831.153-2.148 1.07.436-.702 1.278-.538 1.658-.133.521.556 1.445.465 1.845-.04.365-.458.893-.36 1.2-.045a2.427 2.427 0 0 0-4.765.181c.35-.996 1.531-1.315 2.228-1.101z"/><path fill="#FF1C1F" d="M14.634 7.322l.115-.267.29.027-.219-.192.117-.267-.251.147-.218-.192.063.284-.249.148.288.028zM12.004 7.916l.022-.076c.318-.918 1.398-1.286 2.15-1.07l.017-.069c-.697-.212-1.878.106-2.228 1.102-.011.029-.018.06-.028.091h.004c.024 0 .044.009.063.022"/><path fill="#FFF" d="M8.958 7.205l-.063-.283.217.192.251-.148-.115.267.217.193-.29-.029-.115.268-.064-.285-.289-.027.25-.148zM8.518 8.3a2.429 2.429 0 0 0 3.285-.152c-.868.598-2.01.16-2.448-.422l.054-.043c.481.615 1.572.952 2.368.396-.766.311-1.352-.315-1.42-.867-.095-.757-.895-1.225-1.516-1.053-.565.157-.935-.233-.997-.667A2.429 2.429 0 0 0 8.519 8.3z"/><path fill="#FF1C1F" d="M9.06 7.665l.115-.267.29.027-.218-.192.116-.267-.25.147-.219-.192.064.284-.25.148.289.028zM9.41 7.682l-.055.045c.437.581 1.58 1.02 2.448.421l.082-.06a.101.101 0 0 1-.045-.056c-.021.016-.042.033-.063.047-.795.555-1.886.218-2.368-.397"/><path fill="#FFF" d="M14.176 10.424l-.29-.028-.115.268-.063-.285-.29-.027.25-.148-.063-.284.22.192.249-.147-.117.267.22.192zm-.305-.683l-.07.004c-.028-.781-.711-1.694-1.682-1.713.803.2.908 1.05.64 1.536-.368.669.004 1.518.606 1.743.55.205.62.738.416 1.127a2.427 2.427 0 0 0-1.642-4.476c1.054.026 1.72 1.052 1.732 1.779z"/><path fill="#FF1C1F" d="M13.824 10.112l-.219-.192.064.284-.251.148.289.027.063.285.116-.268.29.028-.218-.192.115-.267zM12.047 8a.114.114 0 0 1-.006.035c.025-.001.052-.003.079-.003.97.02 1.654.932 1.682 1.713l.07-.005c-.013-.727-.68-1.752-1.733-1.78-.034 0-.066 0-.1.002a.108.108 0 0 1 .008.038"/><path fill="#FFF" d="M10.326 10.875l-.063-.284-.29-.028.25-.148-.063-.283.22.193.249-.149-.116.268.218.192-.29-.028-.115.267zm.555-.5l-.025-.065c.734-.268 1.39-1.201 1.109-2.13.06.825-.717 1.187-1.263 1.083-.75-.144-1.442.472-1.47 1.115-.025.587-.51.818-.944.743a2.429 2.429 0 0 0 3.75-2.945c.301 1.012-.469 1.962-1.157 2.199z"/><path fill="#FF1C1F" d="M10.513 10.444l.116-.267-.25.147-.218-.192.063.283-.25.149.289.027.063.284.115-.266.29.027zM11.94 8.107c.008.024.018.049.025.074.282.928-.376 1.86-1.11 2.128l.027.065c.688-.236 1.457-1.186 1.156-2.197a1.991 1.991 0 0 0-.03-.096.108.108 0 0 1-.068.026"/><path fill="#FF1C1F" d="M11.884 8.089c.016.01.035.017.055.018h.001a.108.108 0 0 0 .1-.073.09.09 0 0 0-.001-.073.1.1 0 0 0-.036-.045.105.105 0 0 0-.063-.023h-.002a.108.108 0 0 0-.098.078.078.078 0 0 0-.006.029c0 .011.003.021.006.032a.101.101 0 0 0 .044.057"/></g></svg>