<svg xmlns="http://www.w3.org/2000/svg" viewBox="0 0 16 16"><path d="M10.6 5.4c-.2-.2-.5-.2-.7 0L8 7.3 6.1 5.4c-.5-.5-1.2.2-.7.7L7.3 8 5.4 9.9c-.2.2-.2.5 0 .7.2.2.5.2.7 0L8 8.7l1.9 1.9c.2.2.5.2.7 0 .2-.2.2-.5 0-.7L8.7 8l1.9-1.9c.2-.2.2-.5 0-.7-.2-.2 0 0 0 0z"/><path d="M14.2 5.4C12.8 2 8.8.4 5.4 1.8 2 3.2.4 7.2 1.8 10.6c1.4 3.4 5.4 5 8.8 3.6 3.4-1.4 5-5.4 3.6-8.8-.3-.8.4.8 0 0zm-2.1 6.7c-2.2 2.2-5.9 2.2-8.1 0C1.8 9.9 1.8 6.2 4 4c2.2-2.2 5.9-2.2 8.1 0 2.2 2.2 2.2 5.8 0 8.1-1.1 1 1-1.1 0 0z"/></svg>
