<?xml version="1.0" encoding="utf-8"?>
<!-- Generated by IcoMoon.io -->
<!DOCTYPE svg PUBLIC "-//W3C//DTD SVG 1.1//EN" "http://www.w3.org/Graphics/SVG/1.1/DTD/svg11.dtd">
<svg version="1.1" xmlns="http://www.w3.org/2000/svg" xmlns:xlink="http://www.w3.org/1999/xlink" width="16" height="16" viewBox="0 0 32 32">
<path d="M21.731 13.305c-0.389-0.392-1.022-0.394-1.414-0.005l-3.808 3.781-3.824-3.811c-0.391-0.39-1.024-0.389-1.414 0.002s-0.389 1.024 0.002 1.414l3.817 3.804-3.849 3.822c-0.392 0.389-0.394 1.022-0.005 1.414 0.196 0.197 0.453 0.295 0.71 0.295 0.255 0 0.51-0.097 0.705-0.29l3.856-3.829 3.81 3.796c0.195 0.195 0.451 0.292 0.706 0.292 0.256 0 0.513-0.098 0.708-0.294 0.39-0.391 0.389-1.024-0.002-1.414l-3.802-3.789 3.801-3.774c0.392-0.389 0.394-1.022 0.005-1.414z"></path>
<path d="M28.913 13.255c-0.679-1.604-1.65-3.045-2.887-4.282s-2.678-2.208-4.282-2.887c-1.662-0.703-3.426-1.059-5.245-1.059s-3.583 0.356-5.245 1.059c-1.604 0.679-3.045 1.65-4.282 2.887s-2.208 2.678-2.887 4.282c-0.703 1.662-1.059 3.426-1.059 5.245s0.356 3.583 1.059 5.245c0.679 1.604 1.65 3.045 2.887 4.282s2.678 2.208 4.282 2.887c1.662 0.703 3.426 1.059 5.245 1.059s3.583-0.356 5.245-1.059c1.604-0.679 3.045-1.65 4.282-2.887s2.208-2.678 2.887-4.282c0.703-1.662 1.059-3.426 1.059-5.245s-0.356-3.583-1.059-5.245zM24.612 26.612c-2.167 2.167-5.048 3.36-8.112 3.36s-5.946-1.193-8.112-3.36c-2.167-2.167-3.36-5.048-3.36-8.112s1.193-5.946 3.36-8.112c2.167-2.167 5.048-3.36 8.112-3.36s5.946 1.193 8.112 3.36c2.167 2.167 3.36 5.048 3.36 8.112s-1.193 5.946-3.36 8.112z"></path>
</svg>
