<svg xmlns="http://www.w3.org/2000/svg" width="100" height="99.998" viewBox="0 0 100 99.998"><path d="M55.229 49.978l14.138-14.035a3.7 3.7 0 0 0-5.212-5.252L49.986 44.755 35.761 30.58a3.701 3.701 0 0 0-5.224 5.242l14.198 14.146L30.419 64.18a3.7 3.7 0 0 0 5.214 5.252l14.344-14.24 14.171 14.121a3.686 3.686 0 0 0 2.611 1.079 3.7 3.7 0 0 0 2.611-6.321L55.229 49.978z"/><path d="M49.958-.049C22.359-.049-.094 22.405-.094 50.003s22.453 50.051 50.052 50.051c27.598 0 50.051-22.453 50.051-50.051C100.01 22.405 77.557-.049 49.958-.049zm0 92.703c-23.518 0-42.651-19.133-42.651-42.651 0-23.519 19.133-42.652 42.651-42.652s42.651 19.133 42.651 42.652c0 23.518-19.132 42.651-42.651 42.651z"/></svg>
