<?xml version="1.0" encoding="utf-8"?>
<!-- Generated by IcoMoon.io -->
<!DOCTYPE svg PUBLIC "-//W3C//DTD SVG 1.1//EN" "http://www.w3.org/Graphics/SVG/1.1/DTD/svg11.dtd">
<svg version="1.1" xmlns="http://www.w3.org/2000/svg" xmlns:xlink="http://www.w3.org/1999/xlink" width="16" height="16" viewBox="0 0 1024 900">
<g id="icomoon-ignore">
</g>
<path d="M718 188q11 0 22 1.5t22 4.5q16 4 30.5 12t28.5 19q15 13 27 28t21 34v0h1l3 7q13 27 20 59.5t7 68.5v3q0 15-4.5 32.5t-14.5 38.5q-11 24-26 47.5t-34 46.5q-39 48-85.5 94t-99.5 90q-46 38-85 67.5t-71 49.5q-31-20-70-49.5t-85-67.5h-1q-52-43-98.5-89t-86.5-95v0 0q-19-23-34-46.5t-26-47.5q-10-21-14.5-38.5t-4.5-32.5v-3q0-37 7-69.5t20-59.5v0h1q0-2 1-3.5t2-3.5q10-18 21.5-33t26.5-28q14-11 28.5-19t30.5-12q11-3 22.5-4.5t21.5-1.5q24 0 45.5 7t43.5 21q15 9 28 21t24 26q12 15 22.5 32.5t19.5 37.5l56 129 54-129q9-20 19-37t22-32q11-14 24.5-26t28.5-22h1q21-14 43-21t45-7v0zM718 128q-32 0-62 9.5t-59 27.5q-38 25-67.5 61t-49.5 83q-21-47-50-83t-66-61q-29-18-59.5-27.5t-62.5-9.5q-14 0-29 2t-30 6q-22 6-43 16.5t-40 26.5-34.5 36-27.5 44q-1 1-1.5 2t-0.5 2l-2 2v1q-17 34-25.5 73t-8.5 83v2q0 22 6 46t19 51q12 27 29 54t39 53q42 52 90.5 100t102.5 92q49 41 90 71.5t74 51.5q14 9 21.5 13.5t8.5 4.5v0 0 0 0q1 0 8.5-4.5t21.5-12.5q33-22 74-53t90-70q55-46 103.5-94t89.5-99q22-26 39-52.5t29-53.5q13-27 19-51.5t6-46.5v-2q-1-44-9-83t-24-72l-4-8q-13-24-28.5-43.5t-34.5-35.5-39.5-27-43.5-17q-15-4-30-6t-29-2v0 0z"></path>
</svg>
