<svg xmlns="http://www.w3.org/2000/svg" xmlns:xlink="http://www.w3.org/1999/xlink" width="20" height="15"><defs><path id="a" d="M0 0h20v15H0z"/></defs><g fill="none" fill-rule="evenodd"><mask id="b" fill="#fff"><use xlink:href="#a"/></mask><g fill-rule="nonzero"><path fill="#FFF" d="M-.625 0h22.5v15h-22.5z"/><path fill="#DF0000" d="M-.625 0h22.5v7.5h-22.5z"/><path fill="#FFF" d="M4.564 1.257c-1.039.238-1.81 1.008-2.029 2.053-.296 1.421.629 2.812 2.053 3.11a2.688 2.688 0 0 1-3.331-1.842A2.686 2.686 0 0 1 3.102 1.26c.5-.143.961-.143 1.462-.003z"/><path fill="#FFF" d="M4.156 3.436l.153.473-.405-.289-.402.291.15-.473-.401-.292.496-.005.154-.472.157.471.497.001-.4.295zm.548 1.627l.153.472-.404-.288-.402.291.15-.473-.402-.293.497-.004.154-.472.157.471h.496l-.399.296zM6.53 5.05l.153.473-.404-.289-.402.291.15-.473-.402-.292.496-.005.154-.472.158.471.496.001-.399.295zm.545-1.614l.153.473-.404-.288-.403.29.15-.473-.401-.292.496-.004.154-.472.157.47.497.001-.4.296zm-1.446-1.07l.153.472-.404-.288-.402.291.15-.473-.402-.292.496-.005.155-.472.157.471h.496l-.399.296z"/></g><path stroke="#CCC" d="M0 0h20v15H0z"/></g></svg>