<?xml version="1.0" encoding="utf-8"?>
<!-- Generated by IcoMoon.io -->
<!DOCTYPE svg PUBLIC "-//W3C//DTD SVG 1.1//EN" "http://www.w3.org/Graphics/SVG/1.1/DTD/svg11.dtd">
<svg version="1.1" xmlns="http://www.w3.org/2000/svg" xmlns:xlink="http://www.w3.org/1999/xlink" width="16" height="16" viewBox="0 0 1024 1024">
<g id="icomoon-ignore">
</g>
<path d="M480 124q25 0 48 5.5t44 17.5q20 12 36.5 27.5t29.5 36.5q12 20 17.5 41t5.5 44q0 24-5.5 45t-17.5 41-28.5 36-37.5 28h-1q-21 12-43.5 17.5t-47.5 5.5-47.5-5.5-43.5-17.5-37.5-27.5-28.5-36.5v0 0q-12-20-18-41t-6-44q0-24 6-45t18-41q12-21 28-36.5t37-27.5q22-11 44.5-17t47.5-6v0zM480 621q42 0 82.5 8t79.5 24 73.5 37.5 62.5 48.5q29 28 51 60.5t39 69.5q8 19 14 38t10 38q1 5 2 9.5t1 9.5h-830q0-5 1-9.5t2-9.5q4-19 10-38t14-38q17-37 39.5-69.5t50.5-60.5q29-27 63-48.5t73-37.5 79.5-24 82.5-8v0zM480 64q-33 0-63 8t-58 23q-28 16-50 37t-38 48-24 56-8 60q0 32 8 61t24 56q17 27 39 48.5t49 36.5q28 16 58 23.5t63 7.5 63-7.5 58-23.5 50-37 38-48 24-56 8-60q0-32-8-61t-24-56-38.5-48.5-49.5-36.5q-28-16-58-23.5t-63-7.5v0 0zM480 561q-48 0-94.5 9t-90.5 27q-45 18-83.5 43t-70.5 56q-33 31-59 68.5t-44 80.5q-19 43-28.5 87.5t-9.5 91.5h960q0-46-9.5-91t-27.5-88q-19-43-45-80t-58-69q-33-31-72-56t-83-43-90.5-27-94.5-9v0 0z"></path>
</svg>
