<svg viewBox="0 0 20 20" xmlns="http://www.w3.org/2000/svg"><g><path fill="none" d="M-2-2h24v24H-2z"/><path d="M1 .875h2.663a1 1 0 0 1 1 1v1.234H0V1.875a1 1 0 0 1 1-1zM0 4.226h4.663v11.569a1 1 0 0 1-1 1H1a1 1 0 0 1-1-1V4.226zm6.011 0h4.663v11.569a1 1 0 0 1-1 1H7.011a1 1 0 0 1-1-1V4.226zm1-3.351h2.663a1 1 0 0 1 1 1v1.234H6.011V1.875a1 1 0 0 1 1-1zm5.242.382l2.573-.689a1 1 0 0 1 1.224.707l.32 1.193-4.504 1.206-.32-1.192a1 1 0 0 1 .707-1.225zm-.109 3.228l4.504-1.207 2.994 11.174a1 1 0 0 1-.707 1.225l-2.572.69a1 1 0 0 1-1.225-.708L12.144 4.485zM.794 17.912h18.412a.794.794 0 1 1 0 1.588H.794a.794.794 0 1 1 0-1.588z" fill-rule="nonzero"/></g></svg>