<?xml version="1.0" encoding="UTF-8"?>
<svg width="23px" height="24px" viewBox="0 0 23 24" version="1.1" xmlns="http://www.w3.org/2000/svg" xmlns:xlink="http://www.w3.org/1999/xlink">
    <g id="Components" stroke="none" stroke-width="1" fill-rule="evenodd">
        <g id="Artboard" transform="translate(-406.000000, -13.000000)" >
            <path d="M419.912014,13.2760031 C421.466012,13.7530025 422.76701,14.5880016 423.822008,15.7850003 C425.121006,17.2609987 425.947005,18.9389968 426.000005,20.9999946 L426.000005,28.9999857 C426.000005,28.9999857 428.987,29.657985 429,33.0039813 C425.463005,33.0189813 409.85903,32.9849814 406.000036,32.9999813 C405.988036,29.693985 409.000031,28.9999857 409.000031,28.9999857 L409.000031,20.9999946 C409.036031,18.9389968 409.70203,17.3139986 410.991028,15.8300003 C412.047026,14.6100016 413.365024,13.7570025 414.941022,13.2740031 C415.115022,13.2210031 416.27302,12.9990034 417.427018,13.0000034 C418.580016,13.0000034 419.730014,13.2220031 419.912014,13.2760031 L419.912014,13.2760031 Z M419.999014,33.9999802 C420.001014,34.9139792 419.722014,36.9919769 417.514018,36.9999769 C415.370021,37.0079769 415.030022,34.9329792 415.026022,34.0189802 C415.95802,34.0169802 419.378015,34.0039802 419.999014,33.9999802 L419.999014,33.9999802 Z" id="Bell"></path>
        </g>
    </g>
</svg>